  0
SECTION
  2
HEADER
  9
$ACADVER
  1
AC1009
  9
$FILLMODE
 70
1
  9
$EXTMIN
 10
-0.3962
 20
-0.3962
 30
0.0000
  9
$EXTMAX
 10
241.4270
 20
119.5070
 30
0.0000
  0
ENDSEC
  0
SECTION
  2
TABLES
  0
TABLE
  2
LTYPE
 70
1
  0
LTYPE
  2
CONTINUOUS
 70
64
  3
Solid line
 72
65
 73
0
 40
0
  0
ENDTAB
  0
TABLE
  2
LAYER
 70
255
  0
LAYER
  2
1
 70
64
 62
12
  6
CONTINUOUS
  0
LAYER
  2
16
 70
64
 62
132
  6
CONTINUOUS
  0
LAYER
  2
17
 70
64
 62
122
  6
CONTINUOUS
  0
LAYER
  2
18
 70
64
 62
122
  6
CONTINUOUS
  0
LAYER
  2
19
 70
64
 62
53
  6
CONTINUOUS
  0
LAYER
  2
20
 70
64
 62
53
  6
CONTINUOUS
  0
LAYER
  2
21
 70
64
 62
251
  6
CONTINUOUS
  0
LAYER
  2
22
 70
64
 62
251
  6
CONTINUOUS
  0
LAYER
  2
23
 70
64
 62
53
  6
CONTINUOUS
  0
LAYER
  2
45
 70
64
 62
251
  6
CONTINUOUS
  0
LAYER
  2
49
 70
64
 62
251
  6
CONTINUOUS
  0
ENDTAB
  0
ENDSEC
  0
SECTION
  2
BLOCKS
  0
BLOCK
  8
0
  2
RECT
 70
64
 10
0.0000
 20
0.0000
 30
0.0000
  3
RECT
  0
SOLID
  8
0
 10
-0.5000
 20
-0.5000
 30
0.0000
 11
0.5000
 21
-0.5000
 31
0.0000
 12
-0.5000
 22
0.5000
 32
0.0000
 13
0.5000
 23
0.5000
 33
0.0000
  0
ENDBLK
  8
0
  0
BLOCK
  8
0
  2
PIE
 70
64
 10
0.0000
 20
0.0000
 30
0.0000
  3
PIE
  0
POLYLINE
  8
0
 66
1
 10
0.0000
 20
0.0000
 30
0.0000
 40
0.5000
 41
0.5000
 70
0
  0
VERTEX
  8
0
 10
0.0000
 20
-0.2500
 30
0.0000
 42
1.0000
  0
VERTEX
  8
0
 10
0.0000
 20
0.2500
 30
0.0000
 42
1.0000
  0
VERTEX
  8
0
 10
0.0000
 20
-0.2500
 30
0.0000
  0
SEQEND
  8
0
  0
ENDBLK
  8
0
  0
BLOCK
  8
0
  2
OCTAGONP
 70
64
 10
0.0000
 20
0.0000
 30
0.0000
  3
OCTAGONP
  0
POLYLINE
  8
0
 66
1
 10
0.0000
 20
0.0000
 30
0.0000
 40
0.5000
 41
0.5000
 70
0
  0
VERTEX
  8
0
 10
-0.2500
 20
-0.1036
 30
0.0000
  0
VERTEX
  8
0
 10
-0.2500
 20
0.1036
 30
0.0000
  0
VERTEX
  8
0
 10
-0.1036
 20
0.2500
 30
0.0000
  0
VERTEX
  8
0
 10
0.1036
 20
0.2500
 30
0.0000
  0
VERTEX
  8
0
 10
0.2500
 20
0.1036
 30
0.0000
  0
VERTEX
  8
0
 10
0.2500
 20
-0.1036
 30
0.0000
  0
VERTEX
  8
0
 10
0.1036
 20
-0.2500
 30
0.0000
  0
VERTEX
  8
0
 10
-0.1036
 20
-0.2500
 30
0.0000
  0
VERTEX
  8
0
 10
-0.2500
 20
-0.1036
 30
0.0000
  0
VERTEX
  8
0
 10
-0.2500
 20
0.1036
 30
0.0000
  0
SEQEND
  8
0
  0
ENDBLK
  8
0
  0
BLOCK
  8
0
  2
SQUAREP
 70
64
 10
0.0000
 20
0.0000
 30
0.0000
  3
SQUAREP
  0
SOLID
  8
0
 10
-0.5000
 20
-0.5000
 30
0.0000
 11
0.5000
 21
-0.5000
 31
0.0000
 12
-0.5000
 22
0.5000
 32
0.0000
 13
0.5000
 23
0.5000
 33
0.0000
  0
ENDBLK
  8
0
  0
BLOCK
  8
0
  2
ROUNDP
 70
64
 10
0.0000
 20
0.0000
 30
0.0000
  3
ROUNDP
  0
POLYLINE
  8
0
 66
1
 10
0.0000
 20
0.0000
 30
0.0000
 40
0.5000
 41
0.5000
 70
0
  0
VERTEX
  8
0
 10
0.0000
 20
-0.2500
 30
0.0000
 42
1.0000
  0
VERTEX
  8
0
 10
0.0000
 20
0.2500
 30
0.0000
 42
1.0000
  0
VERTEX
  8
0
 10
0.0000
 20
-0.2500
 30
0.0000
  0
SEQEND
  8
0
  0
ENDBLK
  8
0
  0
BLOCK
  8
0
  2
ANNULUSP
 70
64
 10
0.0000
 20
0.0000
 30
0.0000
  3
ANNULUSP
  0
POLYLINE
  8
0
 66
1
 10
0.0000
 20
0.0000
 30
0.0000
 40
0.5000
 41
0.5000
 70
0
  0
VERTEX
  8
0
 10
0.0000
 20
-0.2500
 30
0.0000
 42
1.0000
  0
VERTEX
  8
0
 10
0.0000
 20
0.2500
 30
0.0000
 42
1.0000
  0
VERTEX
  8
0
 10
0.0000
 20
-0.2500
 30
0.0000
  0
SEQEND
  8
0
  0
ENDBLK
  8
0
  0
BLOCK
  8
0
  2
THERMALP
 70
64
 10
0.0000
 20
0.0000
 30
0.0000
  3
THERMALP
  0
POLYLINE
  8
0
 66
1
 10
0.0000
 20
0.0000
 30
0.0000
 40
0.1000
 41
0.1000
 70
0
  0
VERTEX
  8
0
 10
-0.2379
 20
0.4500
 30
0.0000
  0
VERTEX
  8
0
 10
0.2379
 20
0.4500
 30
0.0000
  0
SEQEND
  8
0
  0
POLYLINE
  8
0
 66
1
 10
0.0000
 20
0.0000
 30
0.0000
 40
0.0500
 41
0.0500
 70
0
  0
VERTEX
  8
0
 10
0.2379
 20
0.4250
 30
0.0000
 42
1.0000
  0
VERTEX
  8
0
 10
0.2379
 20
0.4750
 30
0.0000
  0
SEQEND
  8
0
  0
POLYLINE
  8
0
 66
1
 10
0.0000
 20
0.0000
 30
0.0000
 40
0.0500
 41
0.0500
 70
0
  0
VERTEX
  8
0
 10
-0.2379
 20
0.4750
 30
0.0000
 42
1.0000
  0
VERTEX
  8
0
 10
-0.2379
 20
0.4250
 30
0.0000
  0
SEQEND
  8
0
  0
POLYLINE
  8
0
 66
1
 10
0.0000
 20
0.0000
 30
0.0000
 40
0.1000
 41
0.1000
 70
0
  0
VERTEX
  8
0
 10
0.4500
 20
0.2379
 30
0.0000
  0
VERTEX
  8
0
 10
0.4500
 20
-0.2379
 30
0.0000
  0
SEQEND
  8
0
  0
POLYLINE
  8
0
 66
1
 10
0.0000
 20
0.0000
 30
0.0000
 40
0.0500
 41
0.0500
 70
0
  0
VERTEX
  8
0
 10
0.4250
 20
-0.2379
 30
0.0000
 42
1.0000
  0
VERTEX
  8
0
 10
0.4750
 20
-0.2379
 30
0.0000
  0
SEQEND
  8
0
  0
POLYLINE
  8
0
 66
1
 10
0.0000
 20
0.0000
 30
0.0000
 40
0.0500
 41
0.0500
 70
0
  0
VERTEX
  8
0
 10
0.4750
 20
0.2379
 30
0.0000
 42
1.0000
  0
VERTEX
  8
0
 10
0.4250
 20
0.2379
 30
0.0000
  0
SEQEND
  8
0
  0
POLYLINE
  8
0
 66
1
 10
0.0000
 20
0.0000
 30
0.0000
 40
0.1000
 41
0.1000
 70
0
  0
VERTEX
  8
0
 10
0.2379
 20
-0.4500
 30
0.0000
  0
VERTEX
  8
0
 10
-0.2379
 20
-0.4500
 30
0.0000
  0
SEQEND
  8
0
  0
POLYLINE
  8
0
 66
1
 10
0.0000
 20
0.0000
 30
0.0000
 40
0.0500
 41
0.0500
 70
0
  0
VERTEX
  8
0
 10
-0.2379
 20
-0.4250
 30
0.0000
 42
1.0000
  0
VERTEX
  8
0
 10
-0.2379
 20
-0.4750
 30
0.0000
  0
SEQEND
  8
0
  0
POLYLINE
  8
0
 66
1
 10
0.0000
 20
0.0000
 30
0.0000
 40
0.0500
 41
0.0500
 70
0
  0
VERTEX
  8
0
 10
0.2379
 20
-0.4750
 30
0.0000
 42
1.0000
  0
VERTEX
  8
0
 10
0.2379
 20
-0.4250
 30
0.0000
  0
SEQEND
  8
0
  0
POLYLINE
  8
0
 66
1
 10
0.0000
 20
0.0000
 30
0.0000
 40
0.1000
 41
0.1000
 70
0
  0
VERTEX
  8
0
 10
-0.4500
 20
-0.2379
 30
0.0000
  0
VERTEX
  8
0
 10
-0.4500
 20
0.2379
 30
0.0000
  0
SEQEND
  8
0
  0
POLYLINE
  8
0
 66
1
 10
0.0000
 20
0.0000
 30
0.0000
 40
0.0500
 41
0.0500
 70
0
  0
VERTEX
  8
0
 10
-0.4250
 20
0.2379
 30
0.0000
 42
1.0000
  0
VERTEX
  8
0
 10
-0.4750
 20
0.2379
 30
0.0000
  0
SEQEND
  8
0
  0
POLYLINE
  8
0
 66
1
 10
0.0000
 20
0.0000
 30
0.0000
 40
0.0500
 41
0.0500
 70
0
  0
VERTEX
  8
0
 10
-0.4750
 20
-0.2379
 30
0.0000
 42
1.0000
  0
VERTEX
  8
0
 10
-0.4250
 20
-0.2379
 30
0.0000
  0
SEQEND
  8
0
  0
ENDBLK
  8
0
  0
BLOCK
  8
0
  2
OCTAGONV
 70
64
 10
0.0000
 20
0.0000
 30
0.0000
  3
OCTAGONV
  0
POLYLINE
  8
0
 66
1
 10
0.0000
 20
0.0000
 30
0.0000
 40
0.5000
 41
0.5000
 70
0
  0
VERTEX
  8
0
 10
-0.2500
 20
-0.1036
 30
0.0000
  0
VERTEX
  8
0
 10
-0.2500
 20
0.1036
 30
0.0000
  0
VERTEX
  8
0
 10
-0.1036
 20
0.2500
 30
0.0000
  0
VERTEX
  8
0
 10
0.1036
 20
0.2500
 30
0.0000
  0
VERTEX
  8
0
 10
0.2500
 20
0.1036
 30
0.0000
  0
VERTEX
  8
0
 10
0.2500
 20
-0.1036
 30
0.0000
  0
VERTEX
  8
0
 10
0.1036
 20
-0.2500
 30
0.0000
  0
VERTEX
  8
0
 10
-0.1036
 20
-0.2500
 30
0.0000
  0
VERTEX
  8
0
 10
-0.2500
 20
-0.1036
 30
0.0000
  0
VERTEX
  8
0
 10
-0.2500
 20
0.1036
 30
0.0000
  0
SEQEND
  8
0
  0
ENDBLK
  8
0
  0
BLOCK
  8
0
  2
SQUAREV
 70
64
 10
0.0000
 20
0.0000
 30
0.0000
  3
SQUAREV
  0
SOLID
  8
0
 10
-0.5000
 20
-0.5000
 30
0.0000
 11
0.5000
 21
-0.5000
 31
0.0000
 12
-0.5000
 22
0.5000
 32
0.0000
 13
0.5000
 23
0.5000
 33
0.0000
  0
ENDBLK
  8
0
  0
BLOCK
  8
0
  2
ROUNDV
 70
64
 10
0.0000
 20
0.0000
 30
0.0000
  3
ROUNDV
  0
POLYLINE
  8
0
 66
1
 10
0.0000
 20
0.0000
 30
0.0000
 40
0.5000
 41
0.5000
 70
0
  0
VERTEX
  8
0
 10
0.0000
 20
-0.2500
 30
0.0000
 42
1.0000
  0
VERTEX
  8
0
 10
0.0000
 20
0.2500
 30
0.0000
 42
1.0000
  0
VERTEX
  8
0
 10
0.0000
 20
-0.2500
 30
0.0000
  0
SEQEND
  8
0
  0
ENDBLK
  8
0
  0
BLOCK
  8
0
  2
ANNULUSV
 70
64
 10
0.0000
 20
0.0000
 30
0.0000
  3
ANNULUSV
  0
POLYLINE
  8
0
 66
1
 10
0.0000
 20
0.0000
 30
0.0000
 40
0.5000
 41
0.5000
 70
0
  0
VERTEX
  8
0
 10
0.0000
 20
-0.2500
 30
0.0000
 42
1.0000
  0
VERTEX
  8
0
 10
0.0000
 20
0.2500
 30
0.0000
 42
1.0000
  0
VERTEX
  8
0
 10
0.0000
 20
-0.2500
 30
0.0000
  0
SEQEND
  8
0
  0
ENDBLK
  8
0
  0
BLOCK
  8
0
  2
THERMALV
 70
64
 10
0.0000
 20
0.0000
 30
0.0000
  3
THERMALV
  0
POLYLINE
  8
0
 66
1
 10
0.0000
 20
0.0000
 30
0.0000
 40
0.1000
 41
0.1000
 70
0
  0
VERTEX
  8
0
 10
-0.2379
 20
0.4500
 30
0.0000
  0
VERTEX
  8
0
 10
0.2379
 20
0.4500
 30
0.0000
  0
SEQEND
  8
0
  0
POLYLINE
  8
0
 66
1
 10
0.0000
 20
0.0000
 30
0.0000
 40
0.0500
 41
0.0500
 70
0
  0
VERTEX
  8
0
 10
0.2379
 20
0.4250
 30
0.0000
 42
1.0000
  0
VERTEX
  8
0
 10
0.2379
 20
0.4750
 30
0.0000
  0
SEQEND
  8
0
  0
POLYLINE
  8
0
 66
1
 10
0.0000
 20
0.0000
 30
0.0000
 40
0.0500
 41
0.0500
 70
0
  0
VERTEX
  8
0
 10
-0.2379
 20
0.4750
 30
0.0000
 42
1.0000
  0
VERTEX
  8
0
 10
-0.2379
 20
0.4250
 30
0.0000
  0
SEQEND
  8
0
  0
POLYLINE
  8
0
 66
1
 10
0.0000
 20
0.0000
 30
0.0000
 40
0.1000
 41
0.1000
 70
0
  0
VERTEX
  8
0
 10
0.4500
 20
0.2379
 30
0.0000
  0
VERTEX
  8
0
 10
0.4500
 20
-0.2379
 30
0.0000
  0
SEQEND
  8
0
  0
POLYLINE
  8
0
 66
1
 10
0.0000
 20
0.0000
 30
0.0000
 40
0.0500
 41
0.0500
 70
0
  0
VERTEX
  8
0
 10
0.4250
 20
-0.2379
 30
0.0000
 42
1.0000
  0
VERTEX
  8
0
 10
0.4750
 20
-0.2379
 30
0.0000
  0
SEQEND
  8
0
  0
POLYLINE
  8
0
 66
1
 10
0.0000
 20
0.0000
 30
0.0000
 40
0.0500
 41
0.0500
 70
0
  0
VERTEX
  8
0
 10
0.4750
 20
0.2379
 30
0.0000
 42
1.0000
  0
VERTEX
  8
0
 10
0.4250
 20
0.2379
 30
0.0000
  0
SEQEND
  8
0
  0
POLYLINE
  8
0
 66
1
 10
0.0000
 20
0.0000
 30
0.0000
 40
0.1000
 41
0.1000
 70
0
  0
VERTEX
  8
0
 10
0.2379
 20
-0.4500
 30
0.0000
  0
VERTEX
  8
0
 10
-0.2379
 20
-0.4500
 30
0.0000
  0
SEQEND
  8
0
  0
POLYLINE
  8
0
 66
1
 10
0.0000
 20
0.0000
 30
0.0000
 40
0.0500
 41
0.0500
 70
0
  0
VERTEX
  8
0
 10
-0.2379
 20
-0.4250
 30
0.0000
 42
1.0000
  0
VERTEX
  8
0
 10
-0.2379
 20
-0.4750
 30
0.0000
  0
SEQEND
  8
0
  0
POLYLINE
  8
0
 66
1
 10
0.0000
 20
0.0000
 30
0.0000
 40
0.0500
 41
0.0500
 70
0
  0
VERTEX
  8
0
 10
0.2379
 20
-0.4750
 30
0.0000
 42
1.0000
  0
VERTEX
  8
0
 10
0.2379
 20
-0.4250
 30
0.0000
  0
SEQEND
  8
0
  0
POLYLINE
  8
0
 66
1
 10
0.0000
 20
0.0000
 30
0.0000
 40
0.1000
 41
0.1000
 70
0
  0
VERTEX
  8
0
 10
-0.4500
 20
-0.2379
 30
0.0000
  0
VERTEX
  8
0
 10
-0.4500
 20
0.2379
 30
0.0000
  0
SEQEND
  8
0
  0
POLYLINE
  8
0
 66
1
 10
0.0000
 20
0.0000
 30
0.0000
 40
0.0500
 41
0.0500
 70
0
  0
VERTEX
  8
0
 10
-0.4250
 20
0.2379
 30
0.0000
 42
1.0000
  0
VERTEX
  8
0
 10
-0.4750
 20
0.2379
 30
0.0000
  0
SEQEND
  8
0
  0
POLYLINE
  8
0
 66
1
 10
0.0000
 20
0.0000
 30
0.0000
 40
0.0500
 41
0.0500
 70
0
  0
VERTEX
  8
0
 10
-0.4750
 20
-0.2379
 30
0.0000
 42
1.0000
  0
VERTEX
  8
0
 10
-0.4250
 20
-0.2379
 30
0.0000
  0
SEQEND
  8
0
  0
ENDBLK
  8
0
  0
BLOCK
  8
0
  2
LONGP100
 70
64
 10
0.0000
 20
0.0000
 30
0.0000
  3
LONGP100
  0
POLYLINE
  8
0
 66
1
 10
0.0000
 20
0.0000
 30
0.0000
 40
1.0000
 41
1.0000
 70
0
  0
VERTEX
  8
0
 10
-0.5000
 20
0.0000
 30
0.0000
  0
VERTEX
  8
0
 10
0.5000
 20
0.0000
 30
0.0000
  0
SEQEND
  8
0
  0
POLYLINE
  8
0
 66
1
 10
0.0000
 20
0.0000
 30
0.0000
 40
0.5000
 41
0.5000
 70
0
  0
VERTEX
  8
0
 10
0.5000
 20
-0.2500
 30
0.0000
 42
1.0000
  0
VERTEX
  8
0
 10
0.5000
 20
0.2500
 30
0.0000
  0
SEQEND
  8
0
  0
POLYLINE
  8
0
 66
1
 10
0.0000
 20
0.0000
 30
0.0000
 40
0.5000
 41
0.5000
 70
0
  0
VERTEX
  8
0
 10
-0.5000
 20
0.2500
 30
0.0000
 42
1.0000
  0
VERTEX
  8
0
 10
-0.5000
 20
-0.2500
 30
0.0000
  0
SEQEND
  8
0
  0
ENDBLK
  8
0
  0
ENDSEC
  0
SECTION
  2
ENTITIES
  0
LINE
  8
20
 10
114.3000
 20
2.5400
 30
0.0000
 11
114.3000
 21
45.0850
 31
0.0000
  0
ARC
  8
20
 10
111.7600
 20
45.0850
 30
0.0000
 40
2.5400
 50
0.0000
 51
90.0000
  0
LINE
  8
20
 10
111.7600
 20
47.6250
 30
0.0000
 11
2.5400
 21
47.6250
 31
0.0000
  0
ARC
  8
20
 10
2.5400
 20
45.0850
 30
0.0000
 40
2.5400
 50
90.0000
 51
180.0000
  0
LINE
  8
20
 10
0.0000
 20
45.0850
 30
0.0000
 11
0.0000
 21
2.5400
 31
0.0000
  0
ARC
  8
20
 10
2.5400
 20
2.5400
 30
0.0000
 40
2.5400
 50
180.0000
 51
270.0000
  0
LINE
  8
20
 10
2.5400
 20
0.0000
 30
0.0000
 11
111.7600
 21
0.0000
 31
0.0000
  0
ARC
  8
20
 10
111.7600
 20
2.5400
 30
0.0000
 40
2.5400
 50
270.0000
 51
0.0000
  0
CIRCLE
  8
20
 10
3.1750
 20
3.1750
 30
0.0000
 40
1.6000
  0
CIRCLE
  8
20
 10
3.1750
 20
44.4500
 30
0.0000
 40
1.6000
  0
CIRCLE
  8
20
 10
111.1250
 20
44.4500
 30
0.0000
 40
1.6000
  0
CIRCLE
  8
20
 10
111.1250
 20
3.1750
 30
0.0000
 40
1.6000
  0
POINT
  8
23
 10
15.8750
 20
12.7000
 30
0.0000
  0
POLYLINE
  8
21
 66
1
 10
0.0000
 20
0.0000
 30
0.0000
 40
0.1270
 41
0.1270
 70
0
  0
VERTEX
  8
21
 10
11.6250
 20
17.5500
 30
0.0000
  0
VERTEX
  8
21
 10
20.1250
 20
17.5500
 30
0.0000
  0
SEQEND
  8
0
  0
POLYLINE
  8
21
 66
1
 10
0.0000
 20
0.0000
 30
0.0000
 40
0.0635
 41
0.0635
 70
0
  0
VERTEX
  8
21
 10
20.1250
 20
17.5183
 30
0.0000
 42
1.0000
  0
VERTEX
  8
21
 10
20.1250
 20
17.5817
 30
0.0000
  0
SEQEND
  8
0
  0
POLYLINE
  8
21
 66
1
 10
0.0000
 20
0.0000
 30
0.0000
 40
0.0635
 41
0.0635
 70
0
  0
VERTEX
  8
21
 10
11.6250
 20
17.5817
 30
0.0000
 42
1.0000
  0
VERTEX
  8
21
 10
11.6250
 20
17.5183
 30
0.0000
  0
SEQEND
  8
0
  0
POLYLINE
  8
21
 66
1
 10
0.0000
 20
0.0000
 30
0.0000
 40
0.1270
 41
0.1270
 70
0
  0
VERTEX
  8
21
 10
20.1250
 20
17.5500
 30
0.0000
  0
VERTEX
  8
21
 10
20.1250
 20
6.2000
 30
0.0000
  0
SEQEND
  8
0
  0
POLYLINE
  8
21
 66
1
 10
0.0000
 20
0.0000
 30
0.0000
 40
0.0635
 41
0.0635
 70
0
  0
VERTEX
  8
21
 10
20.0933
 20
6.2000
 30
0.0000
 42
1.0000
  0
VERTEX
  8
21
 10
20.1567
 20
6.2000
 30
0.0000
  0
SEQEND
  8
0
  0
POLYLINE
  8
21
 66
1
 10
0.0000
 20
0.0000
 30
0.0000
 40
0.0635
 41
0.0635
 70
0
  0
VERTEX
  8
21
 10
20.1567
 20
17.5500
 30
0.0000
 42
1.0000
  0
VERTEX
  8
21
 10
20.0933
 20
17.5500
 30
0.0000
  0
SEQEND
  8
0
  0
POLYLINE
  8
21
 66
1
 10
0.0000
 20
0.0000
 30
0.0000
 40
0.1270
 41
0.1270
 70
0
  0
VERTEX
  8
21
 10
20.1250
 20
6.2000
 30
0.0000
  0
VERTEX
  8
21
 10
11.6250
 20
6.2000
 30
0.0000
  0
SEQEND
  8
0
  0
POLYLINE
  8
21
 66
1
 10
0.0000
 20
0.0000
 30
0.0000
 40
0.0635
 41
0.0635
 70
0
  0
VERTEX
  8
21
 10
11.6250
 20
6.2317
 30
0.0000
 42
1.0000
  0
VERTEX
  8
21
 10
11.6250
 20
6.1683
 30
0.0000
  0
SEQEND
  8
0
  0
POLYLINE
  8
21
 66
1
 10
0.0000
 20
0.0000
 30
0.0000
 40
0.0635
 41
0.0635
 70
0
  0
VERTEX
  8
21
 10
20.1250
 20
6.1683
 30
0.0000
 42
1.0000
  0
VERTEX
  8
21
 10
20.1250
 20
6.2317
 30
0.0000
  0
SEQEND
  8
0
  0
POLYLINE
  8
21
 66
1
 10
0.0000
 20
0.0000
 30
0.0000
 40
0.1270
 41
0.1270
 70
0
  0
VERTEX
  8
21
 10
11.6250
 20
6.2000
 30
0.0000
  0
VERTEX
  8
21
 10
11.6250
 20
17.5500
 30
0.0000
  0
SEQEND
  8
0
  0
POLYLINE
  8
21
 66
1
 10
0.0000
 20
0.0000
 30
0.0000
 40
0.0635
 41
0.0635
 70
0
  0
VERTEX
  8
21
 10
11.6568
 20
17.5500
 30
0.0000
 42
1.0000
  0
VERTEX
  8
21
 10
11.5932
 20
17.5500
 30
0.0000
  0
SEQEND
  8
0
  0
POLYLINE
  8
21
 66
1
 10
0.0000
 20
0.0000
 30
0.0000
 40
0.0635
 41
0.0635
 70
0
  0
VERTEX
  8
21
 10
11.5932
 20
6.2000
 30
0.0000
 42
1.0000
  0
VERTEX
  8
21
 10
11.6568
 20
6.2000
 30
0.0000
  0
SEQEND
  8
0
  0
POLYLINE
  8
21
 66
1
 10
0.0000
 20
0.0000
 30
0.0000
 40
0.2032
 41
0.2032
 70
0
  0
VERTEX
  8
21
 10
16.9750
 20
12.0750
 30
0.0000
 42
1.7183
  0
VERTEX
  8
21
 10
14.7750
 20
12.0750
 30
0.0000
  0
SEQEND
  8
0
  0
POLYLINE
  8
21
 66
1
 10
0.0000
 20
0.0000
 30
0.0000
 40
0.1016
 41
0.1016
 70
0
  0
VERTEX
  8
21
 10
16.9308
 20
12.1001
 30
0.0000
 42
1.0000
  0
VERTEX
  8
21
 10
17.0192
 20
12.0499
 30
0.0000
  0
SEQEND
  8
0
  0
POLYLINE
  8
21
 66
1
 10
0.0000
 20
0.0000
 30
0.0000
 40
0.1016
 41
0.1016
 70
0
  0
VERTEX
  8
21
 10
14.7308
 20
12.0499
 30
0.0000
 42
1.0000
  0
VERTEX
  8
21
 10
14.8192
 20
12.1001
 30
0.0000
  0
SEQEND
  8
0
  0
POLYLINE
  8
21
 66
1
 10
0.0000
 20
0.0000
 30
0.0000
 40
0.2032
 41
0.2032
 70
0
  0
VERTEX
  8
21
 10
16.9750
 20
12.0750
 30
0.0000
  0
VERTEX
  8
21
 10
14.7750
 20
12.0750
 30
0.0000
  0
SEQEND
  8
0
  0
POLYLINE
  8
21
 66
1
 10
0.0000
 20
0.0000
 30
0.0000
 40
0.1016
 41
0.1016
 70
0
  0
VERTEX
  8
21
 10
14.7750
 20
12.1258
 30
0.0000
 42
1.0000
  0
VERTEX
  8
21
 10
14.7750
 20
12.0242
 30
0.0000
  0
SEQEND
  8
0
  0
POLYLINE
  8
21
 66
1
 10
0.0000
 20
0.0000
 30
0.0000
 40
0.1016
 41
0.1016
 70
0
  0
VERTEX
  8
21
 10
16.9750
 20
12.0242
 30
0.0000
 42
1.0000
  0
VERTEX
  8
21
 10
16.9750
 20
12.1258
 30
0.0000
  0
SEQEND
  8
0
  0
POLYLINE
  8
21
 66
1
 10
0.0000
 20
0.0000
 30
0.0000
 40
0.2032
 41
0.2032
 70
0
  0
VERTEX
  8
21
 10
18.3250
 20
12.0750
 30
0.0000
  0
VERTEX
  8
21
 10
13.4500
 20
12.0750
 30
0.0000
  0
SEQEND
  8
0
  0
POLYLINE
  8
21
 66
1
 10
0.0000
 20
0.0000
 30
0.0000
 40
0.1016
 41
0.1016
 70
0
  0
VERTEX
  8
21
 10
13.4500
 20
12.1258
 30
0.0000
 42
1.0000
  0
VERTEX
  8
21
 10
13.4500
 20
12.0242
 30
0.0000
  0
SEQEND
  8
0
  0
POLYLINE
  8
21
 66
1
 10
0.0000
 20
0.0000
 30
0.0000
 40
0.1016
 41
0.1016
 70
0
  0
VERTEX
  8
21
 10
18.3250
 20
12.0242
 30
0.0000
 42
1.0000
  0
VERTEX
  8
21
 10
18.3250
 20
12.1258
 30
0.0000
  0
SEQEND
  8
0
  0
POLYLINE
  8
21
 66
1
 10
0.0000
 20
0.0000
 30
0.0000
 40
0.2032
 41
0.2032
 70
0
  0
VERTEX
  8
21
 10
15.8750
 20
10.1600
 30
0.0000
 42
1.0000
  0
VERTEX
  8
21
 10
15.8750
 20
15.2400
 30
0.0000
 42
1.0000
  0
VERTEX
  8
21
 10
15.8750
 20
10.1600
 30
0.0000
  0
SEQEND
  8
0
  0
INSERT
  8
17
  2
OCTAGONP
 10
18.3750
 20
5.2000
 30
0.0000
 41
1.8796
 42
1.8796
 43
1.0000
 50
90.0000
  0
INSERT
  8
17
  2
OCTAGONP
 10
18.3750
 20
5.2000
 30
0.0000
 41
1.8796
 42
1.8796
 43
1.0000
 50
90.0000
  0
INSERT
  8
17
  2
OCTAGONP
 10
15.8750
 20
5.2000
 30
0.0000
 41
1.8796
 42
1.8796
 43
1.0000
 50
90.0000
  0
INSERT
  8
17
  2
OCTAGONP
 10
15.8750
 20
5.2000
 30
0.0000
 41
1.8796
 42
1.8796
 43
1.0000
 50
90.0000
  0
INSERT
  8
17
  2
OCTAGONP
 10
13.3750
 20
5.2000
 30
0.0000
 41
1.8796
 42
1.8796
 43
1.0000
 50
90.0000
  0
INSERT
  8
17
  2
OCTAGONP
 10
13.3750
 20
5.2000
 30
0.0000
 41
1.8796
 42
1.8796
 43
1.0000
 50
90.0000
  0
INSERT
  8
17
  2
LONGP100
 10
20.5750
 20
12.7000
 30
0.0000
 41
1.6002
 42
1.6002
 43
1.0000
 50
180.0000
  0
INSERT
  8
17
  2
LONGP100
 10
20.5750
 20
12.7000
 30
0.0000
 41
1.6002
 42
1.6002
 43
1.0000
 50
180.0000
  0
INSERT
  8
17
  2
LONGP100
 10
11.1750
 20
12.7000
 30
0.0000
 41
1.6002
 42
1.6002
 43
1.0000
 50
180.0000
  0
INSERT
  8
17
  2
LONGP100
 10
11.1750
 20
12.7000
 30
0.0000
 41
1.6002
 42
1.6002
 43
1.0000
 50
180.0000
  0
POLYLINE
  8
21
 66
1
 10
0.0000
 20
0.0000
 30
0.0000
 40
0.1016
 41
0.1016
 70
0
  0
VERTEX
  8
21
 10
12.1158
 20
16.5608
 30
0.0000
  0
VERTEX
  8
21
 10
12.1158
 20
17.7302
 30
0.0000
  0
SEQEND
  8
0
  0
POLYLINE
  8
21
 66
1
 10
0.0000
 20
0.0000
 30
0.0000
 40
0.0508
 41
0.0508
 70
0
  0
VERTEX
  8
21
 10
12.1412
 20
17.7302
 30
0.0000
 42
1.0000
  0
VERTEX
  8
21
 10
12.0904
 20
17.7302
 30
0.0000
  0
SEQEND
  8
0
  0
POLYLINE
  8
21
 66
1
 10
0.0000
 20
0.0000
 30
0.0000
 40
0.0508
 41
0.0508
 70
0
  0
VERTEX
  8
21
 10
12.0904
 20
16.5608
 30
0.0000
 42
1.0000
  0
VERTEX
  8
21
 10
12.1412
 20
16.5608
 30
0.0000
  0
SEQEND
  8
0
  0
POLYLINE
  8
21
 66
1
 10
0.0000
 20
0.0000
 30
0.0000
 40
0.1016
 41
0.1016
 70
0
  0
VERTEX
  8
21
 10
12.1158
 20
17.7302
 30
0.0000
  0
VERTEX
  8
21
 10
12.7005
 20
17.7302
 30
0.0000
  0
SEQEND
  8
0
  0
POLYLINE
  8
21
 66
1
 10
0.0000
 20
0.0000
 30
0.0000
 40
0.0508
 41
0.0508
 70
0
  0
VERTEX
  8
21
 10
12.7005
 20
17.7048
 30
0.0000
 42
1.0000
  0
VERTEX
  8
21
 10
12.7005
 20
17.7556
 30
0.0000
  0
SEQEND
  8
0
  0
POLYLINE
  8
21
 66
1
 10
0.0000
 20
0.0000
 30
0.0000
 40
0.0508
 41
0.0508
 70
0
  0
VERTEX
  8
21
 10
12.1158
 20
17.7556
 30
0.0000
 42
1.0000
  0
VERTEX
  8
21
 10
12.1158
 20
17.7048
 30
0.0000
  0
SEQEND
  8
0
  0
POLYLINE
  8
21
 66
1
 10
0.0000
 20
0.0000
 30
0.0000
 40
0.1016
 41
0.1016
 70
0
  0
VERTEX
  8
21
 10
12.7005
 20
17.7302
 30
0.0000
  0
VERTEX
  8
21
 10
12.8954
 20
17.5353
 30
0.0000
  0
SEQEND
  8
0
  0
POLYLINE
  8
21
 66
1
 10
0.0000
 20
0.0000
 30
0.0000
 40
0.0508
 41
0.0508
 70
0
  0
VERTEX
  8
21
 10
12.8774
 20
17.5173
 30
0.0000
 42
1.0000
  0
VERTEX
  8
21
 10
12.9134
 20
17.5533
 30
0.0000
  0
SEQEND
  8
0
  0
POLYLINE
  8
21
 66
1
 10
0.0000
 20
0.0000
 30
0.0000
 40
0.0508
 41
0.0508
 70
0
  0
VERTEX
  8
21
 10
12.7185
 20
17.7482
 30
0.0000
 42
1.0000
  0
VERTEX
  8
21
 10
12.6825
 20
17.7122
 30
0.0000
  0
SEQEND
  8
0
  0
POLYLINE
  8
21
 66
1
 10
0.0000
 20
0.0000
 30
0.0000
 40
0.1016
 41
0.1016
 70
0
  0
VERTEX
  8
21
 10
12.8954
 20
17.5353
 30
0.0000
  0
VERTEX
  8
21
 10
12.8954
 20
17.1455
 30
0.0000
  0
SEQEND
  8
0
  0
POLYLINE
  8
21
 66
1
 10
0.0000
 20
0.0000
 30
0.0000
 40
0.0508
 41
0.0508
 70
0
  0
VERTEX
  8
21
 10
12.8700
 20
17.1455
 30
0.0000
 42
1.0000
  0
VERTEX
  8
21
 10
12.9208
 20
17.1455
 30
0.0000
  0
SEQEND
  8
0
  0
POLYLINE
  8
21
 66
1
 10
0.0000
 20
0.0000
 30
0.0000
 40
0.0508
 41
0.0508
 70
0
  0
VERTEX
  8
21
 10
12.9208
 20
17.5353
 30
0.0000
 42
1.0000
  0
VERTEX
  8
21
 10
12.8700
 20
17.5353
 30
0.0000
  0
SEQEND
  8
0
  0
POLYLINE
  8
21
 66
1
 10
0.0000
 20
0.0000
 30
0.0000
 40
0.1016
 41
0.1016
 70
0
  0
VERTEX
  8
21
 10
12.8954
 20
17.1455
 30
0.0000
  0
VERTEX
  8
21
 10
12.7005
 20
16.9506
 30
0.0000
  0
SEQEND
  8
0
  0
POLYLINE
  8
21
 66
1
 10
0.0000
 20
0.0000
 30
0.0000
 40
0.0508
 41
0.0508
 70
0
  0
VERTEX
  8
21
 10
12.6825
 20
16.9686
 30
0.0000
 42
1.0000
  0
VERTEX
  8
21
 10
12.7185
 20
16.9326
 30
0.0000
  0
SEQEND
  8
0
  0
POLYLINE
  8
21
 66
1
 10
0.0000
 20
0.0000
 30
0.0000
 40
0.0508
 41
0.0508
 70
0
  0
VERTEX
  8
21
 10
12.9134
 20
17.1275
 30
0.0000
 42
1.0000
  0
VERTEX
  8
21
 10
12.8774
 20
17.1635
 30
0.0000
  0
SEQEND
  8
0
  0
POLYLINE
  8
21
 66
1
 10
0.0000
 20
0.0000
 30
0.0000
 40
0.1016
 41
0.1016
 70
0
  0
VERTEX
  8
21
 10
12.7005
 20
16.9506
 30
0.0000
  0
VERTEX
  8
21
 10
12.1158
 20
16.9506
 30
0.0000
  0
SEQEND
  8
0
  0
POLYLINE
  8
21
 66
1
 10
0.0000
 20
0.0000
 30
0.0000
 40
0.0508
 41
0.0508
 70
0
  0
VERTEX
  8
21
 10
12.1158
 20
16.9760
 30
0.0000
 42
1.0000
  0
VERTEX
  8
21
 10
12.1158
 20
16.9252
 30
0.0000
  0
SEQEND
  8
0
  0
POLYLINE
  8
21
 66
1
 10
0.0000
 20
0.0000
 30
0.0000
 40
0.0508
 41
0.0508
 70
0
  0
VERTEX
  8
21
 10
12.7005
 20
16.9252
 30
0.0000
 42
1.0000
  0
VERTEX
  8
21
 10
12.7005
 20
16.9760
 30
0.0000
  0
SEQEND
  8
0
  0
POLYLINE
  8
21
 66
1
 10
0.0000
 20
0.0000
 30
0.0000
 40
0.1016
 41
0.1016
 70
0
  0
VERTEX
  8
21
 10
12.5056
 20
16.9506
 30
0.0000
  0
VERTEX
  8
21
 10
12.8954
 20
16.5608
 30
0.0000
  0
SEQEND
  8
0
  0
POLYLINE
  8
21
 66
1
 10
0.0000
 20
0.0000
 30
0.0000
 40
0.0508
 41
0.0508
 70
0
  0
VERTEX
  8
21
 10
12.8774
 20
16.5428
 30
0.0000
 42
1.0000
  0
VERTEX
  8
21
 10
12.9134
 20
16.5788
 30
0.0000
  0
SEQEND
  8
0
  0
POLYLINE
  8
21
 66
1
 10
0.0000
 20
0.0000
 30
0.0000
 40
0.0508
 41
0.0508
 70
0
  0
VERTEX
  8
21
 10
12.5236
 20
16.9686
 30
0.0000
 42
1.0000
  0
VERTEX
  8
21
 10
12.4876
 20
16.9326
 30
0.0000
  0
SEQEND
  8
0
  0
POLYLINE
  8
21
 66
1
 10
0.0000
 20
0.0000
 30
0.0000
 40
0.1016
 41
0.1016
 70
0
  0
VERTEX
  8
21
 10
13.2852
 20
17.3404
 30
0.0000
  0
VERTEX
  8
21
 10
13.6750
 20
17.7302
 30
0.0000
  0
SEQEND
  8
0
  0
POLYLINE
  8
21
 66
1
 10
0.0000
 20
0.0000
 30
0.0000
 40
0.0508
 41
0.0508
 70
0
  0
VERTEX
  8
21
 10
13.6930
 20
17.7122
 30
0.0000
 42
1.0000
  0
VERTEX
  8
21
 10
13.6570
 20
17.7482
 30
0.0000
  0
SEQEND
  8
0
  0
POLYLINE
  8
21
 66
1
 10
0.0000
 20
0.0000
 30
0.0000
 40
0.0508
 41
0.0508
 70
0
  0
VERTEX
  8
21
 10
13.2672
 20
17.3584
 30
0.0000
 42
1.0000
  0
VERTEX
  8
21
 10
13.3032
 20
17.3224
 30
0.0000
  0
SEQEND
  8
0
  0
POLYLINE
  8
21
 66
1
 10
0.0000
 20
0.0000
 30
0.0000
 40
0.1016
 41
0.1016
 70
0
  0
VERTEX
  8
21
 10
13.6750
 20
17.7302
 30
0.0000
  0
VERTEX
  8
21
 10
13.6750
 20
16.5608
 30
0.0000
  0
SEQEND
  8
0
  0
POLYLINE
  8
21
 66
1
 10
0.0000
 20
0.0000
 30
0.0000
 40
0.0508
 41
0.0508
 70
0
  0
VERTEX
  8
21
 10
13.6496
 20
16.5608
 30
0.0000
 42
1.0000
  0
VERTEX
  8
21
 10
13.7004
 20
16.5608
 30
0.0000
  0
SEQEND
  8
0
  0
POLYLINE
  8
21
 66
1
 10
0.0000
 20
0.0000
 30
0.0000
 40
0.0508
 41
0.0508
 70
0
  0
VERTEX
  8
21
 10
13.7004
 20
17.7302
 30
0.0000
 42
1.0000
  0
VERTEX
  8
21
 10
13.6496
 20
17.7302
 30
0.0000
  0
SEQEND
  8
0
  0
POLYLINE
  8
21
 66
1
 10
0.0000
 20
0.0000
 30
0.0000
 40
0.1016
 41
0.1016
 70
0
  0
VERTEX
  8
21
 10
13.2852
 20
16.5608
 30
0.0000
  0
VERTEX
  8
21
 10
14.0648
 20
16.5608
 30
0.0000
  0
SEQEND
  8
0
  0
POLYLINE
  8
21
 66
1
 10
0.0000
 20
0.0000
 30
0.0000
 40
0.0508
 41
0.0508
 70
0
  0
VERTEX
  8
21
 10
14.0648
 20
16.5354
 30
0.0000
 42
1.0000
  0
VERTEX
  8
21
 10
14.0648
 20
16.5862
 30
0.0000
  0
SEQEND
  8
0
  0
POLYLINE
  8
21
 66
1
 10
0.0000
 20
0.0000
 30
0.0000
 40
0.0508
 41
0.0508
 70
0
  0
VERTEX
  8
21
 10
13.2852
 20
16.5862
 30
0.0000
 42
1.0000
  0
VERTEX
  8
21
 10
13.2852
 20
16.5354
 30
0.0000
  0
SEQEND
  8
0
  0
POINT
  8
23
 10
41.2750
 20
12.7000
 30
0.0000
  0
POLYLINE
  8
21
 66
1
 10
0.0000
 20
0.0000
 30
0.0000
 40
0.1270
 41
0.1270
 70
0
  0
VERTEX
  8
21
 10
37.0250
 20
17.5500
 30
0.0000
  0
VERTEX
  8
21
 10
45.5250
 20
17.5500
 30
0.0000
  0
SEQEND
  8
0
  0
POLYLINE
  8
21
 66
1
 10
0.0000
 20
0.0000
 30
0.0000
 40
0.0635
 41
0.0635
 70
0
  0
VERTEX
  8
21
 10
45.5250
 20
17.5183
 30
0.0000
 42
1.0000
  0
VERTEX
  8
21
 10
45.5250
 20
17.5817
 30
0.0000
  0
SEQEND
  8
0
  0
POLYLINE
  8
21
 66
1
 10
0.0000
 20
0.0000
 30
0.0000
 40
0.0635
 41
0.0635
 70
0
  0
VERTEX
  8
21
 10
37.0250
 20
17.5817
 30
0.0000
 42
1.0000
  0
VERTEX
  8
21
 10
37.0250
 20
17.5183
 30
0.0000
  0
SEQEND
  8
0
  0
POLYLINE
  8
21
 66
1
 10
0.0000
 20
0.0000
 30
0.0000
 40
0.1270
 41
0.1270
 70
0
  0
VERTEX
  8
21
 10
45.5250
 20
17.5500
 30
0.0000
  0
VERTEX
  8
21
 10
45.5250
 20
6.2000
 30
0.0000
  0
SEQEND
  8
0
  0
POLYLINE
  8
21
 66
1
 10
0.0000
 20
0.0000
 30
0.0000
 40
0.0635
 41
0.0635
 70
0
  0
VERTEX
  8
21
 10
45.4933
 20
6.2000
 30
0.0000
 42
1.0000
  0
VERTEX
  8
21
 10
45.5568
 20
6.2000
 30
0.0000
  0
SEQEND
  8
0
  0
POLYLINE
  8
21
 66
1
 10
0.0000
 20
0.0000
 30
0.0000
 40
0.0635
 41
0.0635
 70
0
  0
VERTEX
  8
21
 10
45.5568
 20
17.5500
 30
0.0000
 42
1.0000
  0
VERTEX
  8
21
 10
45.4933
 20
17.5500
 30
0.0000
  0
SEQEND
  8
0
  0
POLYLINE
  8
21
 66
1
 10
0.0000
 20
0.0000
 30
0.0000
 40
0.1270
 41
0.1270
 70
0
  0
VERTEX
  8
21
 10
45.5250
 20
6.2000
 30
0.0000
  0
VERTEX
  8
21
 10
37.0250
 20
6.2000
 30
0.0000
  0
SEQEND
  8
0
  0
POLYLINE
  8
21
 66
1
 10
0.0000
 20
0.0000
 30
0.0000
 40
0.0635
 41
0.0635
 70
0
  0
VERTEX
  8
21
 10
37.0250
 20
6.2317
 30
0.0000
 42
1.0000
  0
VERTEX
  8
21
 10
37.0250
 20
6.1683
 30
0.0000
  0
SEQEND
  8
0
  0
POLYLINE
  8
21
 66
1
 10
0.0000
 20
0.0000
 30
0.0000
 40
0.0635
 41
0.0635
 70
0
  0
VERTEX
  8
21
 10
45.5250
 20
6.1683
 30
0.0000
 42
1.0000
  0
VERTEX
  8
21
 10
45.5250
 20
6.2317
 30
0.0000
  0
SEQEND
  8
0
  0
POLYLINE
  8
21
 66
1
 10
0.0000
 20
0.0000
 30
0.0000
 40
0.1270
 41
0.1270
 70
0
  0
VERTEX
  8
21
 10
37.0250
 20
6.2000
 30
0.0000
  0
VERTEX
  8
21
 10
37.0250
 20
17.5500
 30
0.0000
  0
SEQEND
  8
0
  0
POLYLINE
  8
21
 66
1
 10
0.0000
 20
0.0000
 30
0.0000
 40
0.0635
 41
0.0635
 70
0
  0
VERTEX
  8
21
 10
37.0568
 20
17.5500
 30
0.0000
 42
1.0000
  0
VERTEX
  8
21
 10
36.9932
 20
17.5500
 30
0.0000
  0
SEQEND
  8
0
  0
POLYLINE
  8
21
 66
1
 10
0.0000
 20
0.0000
 30
0.0000
 40
0.0635
 41
0.0635
 70
0
  0
VERTEX
  8
21
 10
36.9932
 20
6.2000
 30
0.0000
 42
1.0000
  0
VERTEX
  8
21
 10
37.0568
 20
6.2000
 30
0.0000
  0
SEQEND
  8
0
  0
POLYLINE
  8
21
 66
1
 10
0.0000
 20
0.0000
 30
0.0000
 40
0.2032
 41
0.2032
 70
0
  0
VERTEX
  8
21
 10
42.3750
 20
12.0750
 30
0.0000
 42
1.7183
  0
VERTEX
  8
21
 10
40.1750
 20
12.0750
 30
0.0000
  0
SEQEND
  8
0
  0
POLYLINE
  8
21
 66
1
 10
0.0000
 20
0.0000
 30
0.0000
 40
0.1016
 41
0.1016
 70
0
  0
VERTEX
  8
21
 10
42.3308
 20
12.1001
 30
0.0000
 42
1.0000
  0
VERTEX
  8
21
 10
42.4192
 20
12.0499
 30
0.0000
  0
SEQEND
  8
0
  0
POLYLINE
  8
21
 66
1
 10
0.0000
 20
0.0000
 30
0.0000
 40
0.1016
 41
0.1016
 70
0
  0
VERTEX
  8
21
 10
40.1308
 20
12.0499
 30
0.0000
 42
1.0000
  0
VERTEX
  8
21
 10
40.2192
 20
12.1001
 30
0.0000
  0
SEQEND
  8
0
  0
POLYLINE
  8
21
 66
1
 10
0.0000
 20
0.0000
 30
0.0000
 40
0.2032
 41
0.2032
 70
0
  0
VERTEX
  8
21
 10
42.3750
 20
12.0750
 30
0.0000
  0
VERTEX
  8
21
 10
40.1750
 20
12.0750
 30
0.0000
  0
SEQEND
  8
0
  0
POLYLINE
  8
21
 66
1
 10
0.0000
 20
0.0000
 30
0.0000
 40
0.1016
 41
0.1016
 70
0
  0
VERTEX
  8
21
 10
40.1750
 20
12.1258
 30
0.0000
 42
1.0000
  0
VERTEX
  8
21
 10
40.1750
 20
12.0242
 30
0.0000
  0
SEQEND
  8
0
  0
POLYLINE
  8
21
 66
1
 10
0.0000
 20
0.0000
 30
0.0000
 40
0.1016
 41
0.1016
 70
0
  0
VERTEX
  8
21
 10
42.3750
 20
12.0242
 30
0.0000
 42
1.0000
  0
VERTEX
  8
21
 10
42.3750
 20
12.1258
 30
0.0000
  0
SEQEND
  8
0
  0
POLYLINE
  8
21
 66
1
 10
0.0000
 20
0.0000
 30
0.0000
 40
0.2032
 41
0.2032
 70
0
  0
VERTEX
  8
21
 10
43.7250
 20
12.0750
 30
0.0000
  0
VERTEX
  8
21
 10
38.8500
 20
12.0750
 30
0.0000
  0
SEQEND
  8
0
  0
POLYLINE
  8
21
 66
1
 10
0.0000
 20
0.0000
 30
0.0000
 40
0.1016
 41
0.1016
 70
0
  0
VERTEX
  8
21
 10
38.8500
 20
12.1258
 30
0.0000
 42
1.0000
  0
VERTEX
  8
21
 10
38.8500
 20
12.0242
 30
0.0000
  0
SEQEND
  8
0
  0
POLYLINE
  8
21
 66
1
 10
0.0000
 20
0.0000
 30
0.0000
 40
0.1016
 41
0.1016
 70
0
  0
VERTEX
  8
21
 10
43.7250
 20
12.0242
 30
0.0000
 42
1.0000
  0
VERTEX
  8
21
 10
43.7250
 20
12.1258
 30
0.0000
  0
SEQEND
  8
0
  0
POLYLINE
  8
21
 66
1
 10
0.0000
 20
0.0000
 30
0.0000
 40
0.2032
 41
0.2032
 70
0
  0
VERTEX
  8
21
 10
41.2750
 20
10.1600
 30
0.0000
 42
1.0000
  0
VERTEX
  8
21
 10
41.2750
 20
15.2400
 30
0.0000
 42
1.0000
  0
VERTEX
  8
21
 10
41.2750
 20
10.1600
 30
0.0000
  0
SEQEND
  8
0
  0
INSERT
  8
17
  2
OCTAGONP
 10
43.7750
 20
5.2000
 30
0.0000
 41
1.8796
 42
1.8796
 43
1.0000
 50
90.0000
  0
INSERT
  8
17
  2
OCTAGONP
 10
43.7750
 20
5.2000
 30
0.0000
 41
1.8796
 42
1.8796
 43
1.0000
 50
90.0000
  0
INSERT
  8
17
  2
OCTAGONP
 10
41.2750
 20
5.2000
 30
0.0000
 41
1.8796
 42
1.8796
 43
1.0000
 50
90.0000
  0
INSERT
  8
17
  2
OCTAGONP
 10
41.2750
 20
5.2000
 30
0.0000
 41
1.8796
 42
1.8796
 43
1.0000
 50
90.0000
  0
INSERT
  8
17
  2
OCTAGONP
 10
38.7750
 20
5.2000
 30
0.0000
 41
1.8796
 42
1.8796
 43
1.0000
 50
90.0000
  0
INSERT
  8
17
  2
OCTAGONP
 10
38.7750
 20
5.2000
 30
0.0000
 41
1.8796
 42
1.8796
 43
1.0000
 50
90.0000
  0
INSERT
  8
17
  2
LONGP100
 10
45.9750
 20
12.7000
 30
0.0000
 41
1.6002
 42
1.6002
 43
1.0000
 50
180.0000
  0
INSERT
  8
17
  2
LONGP100
 10
45.9750
 20
12.7000
 30
0.0000
 41
1.6002
 42
1.6002
 43
1.0000
 50
180.0000
  0
INSERT
  8
17
  2
LONGP100
 10
36.5750
 20
12.7000
 30
0.0000
 41
1.6002
 42
1.6002
 43
1.0000
 50
180.0000
  0
INSERT
  8
17
  2
LONGP100
 10
36.5750
 20
12.7000
 30
0.0000
 41
1.6002
 42
1.6002
 43
1.0000
 50
180.0000
  0
POLYLINE
  8
21
 66
1
 10
0.0000
 20
0.0000
 30
0.0000
 40
0.1016
 41
0.1016
 70
0
  0
VERTEX
  8
21
 10
37.5158
 20
16.5608
 30
0.0000
  0
VERTEX
  8
21
 10
37.5158
 20
17.7302
 30
0.0000
  0
SEQEND
  8
0
  0
POLYLINE
  8
21
 66
1
 10
0.0000
 20
0.0000
 30
0.0000
 40
0.0508
 41
0.0508
 70
0
  0
VERTEX
  8
21
 10
37.5412
 20
17.7302
 30
0.0000
 42
1.0000
  0
VERTEX
  8
21
 10
37.4904
 20
17.7302
 30
0.0000
  0
SEQEND
  8
0
  0
POLYLINE
  8
21
 66
1
 10
0.0000
 20
0.0000
 30
0.0000
 40
0.0508
 41
0.0508
 70
0
  0
VERTEX
  8
21
 10
37.4904
 20
16.5608
 30
0.0000
 42
1.0000
  0
VERTEX
  8
21
 10
37.5412
 20
16.5608
 30
0.0000
  0
SEQEND
  8
0
  0
POLYLINE
  8
21
 66
1
 10
0.0000
 20
0.0000
 30
0.0000
 40
0.1016
 41
0.1016
 70
0
  0
VERTEX
  8
21
 10
37.5158
 20
17.7302
 30
0.0000
  0
VERTEX
  8
21
 10
38.1005
 20
17.7302
 30
0.0000
  0
SEQEND
  8
0
  0
POLYLINE
  8
21
 66
1
 10
0.0000
 20
0.0000
 30
0.0000
 40
0.0508
 41
0.0508
 70
0
  0
VERTEX
  8
21
 10
38.1005
 20
17.7048
 30
0.0000
 42
1.0000
  0
VERTEX
  8
21
 10
38.1005
 20
17.7556
 30
0.0000
  0
SEQEND
  8
0
  0
POLYLINE
  8
21
 66
1
 10
0.0000
 20
0.0000
 30
0.0000
 40
0.0508
 41
0.0508
 70
0
  0
VERTEX
  8
21
 10
37.5158
 20
17.7556
 30
0.0000
 42
1.0000
  0
VERTEX
  8
21
 10
37.5158
 20
17.7048
 30
0.0000
  0
SEQEND
  8
0
  0
POLYLINE
  8
21
 66
1
 10
0.0000
 20
0.0000
 30
0.0000
 40
0.1016
 41
0.1016
 70
0
  0
VERTEX
  8
21
 10
38.1005
 20
17.7302
 30
0.0000
  0
VERTEX
  8
21
 10
38.2954
 20
17.5353
 30
0.0000
  0
SEQEND
  8
0
  0
POLYLINE
  8
21
 66
1
 10
0.0000
 20
0.0000
 30
0.0000
 40
0.0508
 41
0.0508
 70
0
  0
VERTEX
  8
21
 10
38.2774
 20
17.5173
 30
0.0000
 42
1.0000
  0
VERTEX
  8
21
 10
38.3134
 20
17.5533
 30
0.0000
  0
SEQEND
  8
0
  0
POLYLINE
  8
21
 66
1
 10
0.0000
 20
0.0000
 30
0.0000
 40
0.0508
 41
0.0508
 70
0
  0
VERTEX
  8
21
 10
38.1185
 20
17.7482
 30
0.0000
 42
1.0000
  0
VERTEX
  8
21
 10
38.0825
 20
17.7122
 30
0.0000
  0
SEQEND
  8
0
  0
POLYLINE
  8
21
 66
1
 10
0.0000
 20
0.0000
 30
0.0000
 40
0.1016
 41
0.1016
 70
0
  0
VERTEX
  8
21
 10
38.2954
 20
17.5353
 30
0.0000
  0
VERTEX
  8
21
 10
38.2954
 20
17.1455
 30
0.0000
  0
SEQEND
  8
0
  0
POLYLINE
  8
21
 66
1
 10
0.0000
 20
0.0000
 30
0.0000
 40
0.0508
 41
0.0508
 70
0
  0
VERTEX
  8
21
 10
38.2700
 20
17.1455
 30
0.0000
 42
1.0000
  0
VERTEX
  8
21
 10
38.3208
 20
17.1455
 30
0.0000
  0
SEQEND
  8
0
  0
POLYLINE
  8
21
 66
1
 10
0.0000
 20
0.0000
 30
0.0000
 40
0.0508
 41
0.0508
 70
0
  0
VERTEX
  8
21
 10
38.3208
 20
17.5353
 30
0.0000
 42
1.0000
  0
VERTEX
  8
21
 10
38.2700
 20
17.5353
 30
0.0000
  0
SEQEND
  8
0
  0
POLYLINE
  8
21
 66
1
 10
0.0000
 20
0.0000
 30
0.0000
 40
0.1016
 41
0.1016
 70
0
  0
VERTEX
  8
21
 10
38.2954
 20
17.1455
 30
0.0000
  0
VERTEX
  8
21
 10
38.1005
 20
16.9506
 30
0.0000
  0
SEQEND
  8
0
  0
POLYLINE
  8
21
 66
1
 10
0.0000
 20
0.0000
 30
0.0000
 40
0.0508
 41
0.0508
 70
0
  0
VERTEX
  8
21
 10
38.0825
 20
16.9686
 30
0.0000
 42
1.0000
  0
VERTEX
  8
21
 10
38.1185
 20
16.9326
 30
0.0000
  0
SEQEND
  8
0
  0
POLYLINE
  8
21
 66
1
 10
0.0000
 20
0.0000
 30
0.0000
 40
0.0508
 41
0.0508
 70
0
  0
VERTEX
  8
21
 10
38.3134
 20
17.1275
 30
0.0000
 42
1.0000
  0
VERTEX
  8
21
 10
38.2774
 20
17.1635
 30
0.0000
  0
SEQEND
  8
0
  0
POLYLINE
  8
21
 66
1
 10
0.0000
 20
0.0000
 30
0.0000
 40
0.1016
 41
0.1016
 70
0
  0
VERTEX
  8
21
 10
38.1005
 20
16.9506
 30
0.0000
  0
VERTEX
  8
21
 10
37.5158
 20
16.9506
 30
0.0000
  0
SEQEND
  8
0
  0
POLYLINE
  8
21
 66
1
 10
0.0000
 20
0.0000
 30
0.0000
 40
0.0508
 41
0.0508
 70
0
  0
VERTEX
  8
21
 10
37.5158
 20
16.9760
 30
0.0000
 42
1.0000
  0
VERTEX
  8
21
 10
37.5158
 20
16.9252
 30
0.0000
  0
SEQEND
  8
0
  0
POLYLINE
  8
21
 66
1
 10
0.0000
 20
0.0000
 30
0.0000
 40
0.0508
 41
0.0508
 70
0
  0
VERTEX
  8
21
 10
38.1005
 20
16.9252
 30
0.0000
 42
1.0000
  0
VERTEX
  8
21
 10
38.1005
 20
16.9760
 30
0.0000
  0
SEQEND
  8
0
  0
POLYLINE
  8
21
 66
1
 10
0.0000
 20
0.0000
 30
0.0000
 40
0.1016
 41
0.1016
 70
0
  0
VERTEX
  8
21
 10
37.9056
 20
16.9506
 30
0.0000
  0
VERTEX
  8
21
 10
38.2954
 20
16.5608
 30
0.0000
  0
SEQEND
  8
0
  0
POLYLINE
  8
21
 66
1
 10
0.0000
 20
0.0000
 30
0.0000
 40
0.0508
 41
0.0508
 70
0
  0
VERTEX
  8
21
 10
38.2774
 20
16.5428
 30
0.0000
 42
1.0000
  0
VERTEX
  8
21
 10
38.3134
 20
16.5788
 30
0.0000
  0
SEQEND
  8
0
  0
POLYLINE
  8
21
 66
1
 10
0.0000
 20
0.0000
 30
0.0000
 40
0.0508
 41
0.0508
 70
0
  0
VERTEX
  8
21
 10
37.9236
 20
16.9686
 30
0.0000
 42
1.0000
  0
VERTEX
  8
21
 10
37.8876
 20
16.9326
 30
0.0000
  0
SEQEND
  8
0
  0
POLYLINE
  8
21
 66
1
 10
0.0000
 20
0.0000
 30
0.0000
 40
0.1016
 41
0.1016
 70
0
  0
VERTEX
  8
21
 10
39.4648
 20
16.5608
 30
0.0000
  0
VERTEX
  8
21
 10
38.6852
 20
16.5608
 30
0.0000
  0
SEQEND
  8
0
  0
POLYLINE
  8
21
 66
1
 10
0.0000
 20
0.0000
 30
0.0000
 40
0.0508
 41
0.0508
 70
0
  0
VERTEX
  8
21
 10
38.6852
 20
16.5862
 30
0.0000
 42
1.0000
  0
VERTEX
  8
21
 10
38.6852
 20
16.5354
 30
0.0000
  0
SEQEND
  8
0
  0
POLYLINE
  8
21
 66
1
 10
0.0000
 20
0.0000
 30
0.0000
 40
0.0508
 41
0.0508
 70
0
  0
VERTEX
  8
21
 10
39.4648
 20
16.5354
 30
0.0000
 42
1.0000
  0
VERTEX
  8
21
 10
39.4648
 20
16.5862
 30
0.0000
  0
SEQEND
  8
0
  0
POLYLINE
  8
21
 66
1
 10
0.0000
 20
0.0000
 30
0.0000
 40
0.1016
 41
0.1016
 70
0
  0
VERTEX
  8
21
 10
38.6852
 20
16.5608
 30
0.0000
  0
VERTEX
  8
21
 10
39.4648
 20
17.3404
 30
0.0000
  0
SEQEND
  8
0
  0
POLYLINE
  8
21
 66
1
 10
0.0000
 20
0.0000
 30
0.0000
 40
0.0508
 41
0.0508
 70
0
  0
VERTEX
  8
21
 10
39.4828
 20
17.3224
 30
0.0000
 42
1.0000
  0
VERTEX
  8
21
 10
39.4468
 20
17.3584
 30
0.0000
  0
SEQEND
  8
0
  0
POLYLINE
  8
21
 66
1
 10
0.0000
 20
0.0000
 30
0.0000
 40
0.0508
 41
0.0508
 70
0
  0
VERTEX
  8
21
 10
38.6672
 20
16.5788
 30
0.0000
 42
1.0000
  0
VERTEX
  8
21
 10
38.7032
 20
16.5428
 30
0.0000
  0
SEQEND
  8
0
  0
POLYLINE
  8
21
 66
1
 10
0.0000
 20
0.0000
 30
0.0000
 40
0.1016
 41
0.1016
 70
0
  0
VERTEX
  8
21
 10
39.4648
 20
17.3404
 30
0.0000
  0
VERTEX
  8
21
 10
39.4648
 20
17.5353
 30
0.0000
  0
SEQEND
  8
0
  0
POLYLINE
  8
21
 66
1
 10
0.0000
 20
0.0000
 30
0.0000
 40
0.0508
 41
0.0508
 70
0
  0
VERTEX
  8
21
 10
39.4902
 20
17.5353
 30
0.0000
 42
1.0000
  0
VERTEX
  8
21
 10
39.4394
 20
17.5353
 30
0.0000
  0
SEQEND
  8
0
  0
POLYLINE
  8
21
 66
1
 10
0.0000
 20
0.0000
 30
0.0000
 40
0.0508
 41
0.0508
 70
0
  0
VERTEX
  8
21
 10
39.4394
 20
17.3404
 30
0.0000
 42
1.0000
  0
VERTEX
  8
21
 10
39.4902
 20
17.3404
 30
0.0000
  0
SEQEND
  8
0
  0
POLYLINE
  8
21
 66
1
 10
0.0000
 20
0.0000
 30
0.0000
 40
0.1016
 41
0.1016
 70
0
  0
VERTEX
  8
21
 10
39.4648
 20
17.5353
 30
0.0000
  0
VERTEX
  8
21
 10
39.2699
 20
17.7302
 30
0.0000
  0
SEQEND
  8
0
  0
POLYLINE
  8
21
 66
1
 10
0.0000
 20
0.0000
 30
0.0000
 40
0.0508
 41
0.0508
 70
0
  0
VERTEX
  8
21
 10
39.2879
 20
17.7482
 30
0.0000
 42
1.0000
  0
VERTEX
  8
21
 10
39.2519
 20
17.7122
 30
0.0000
  0
SEQEND
  8
0
  0
POLYLINE
  8
21
 66
1
 10
0.0000
 20
0.0000
 30
0.0000
 40
0.0508
 41
0.0508
 70
0
  0
VERTEX
  8
21
 10
39.4468
 20
17.5173
 30
0.0000
 42
1.0000
  0
VERTEX
  8
21
 10
39.4828
 20
17.5533
 30
0.0000
  0
SEQEND
  8
0
  0
POLYLINE
  8
21
 66
1
 10
0.0000
 20
0.0000
 30
0.0000
 40
0.1016
 41
0.1016
 70
0
  0
VERTEX
  8
21
 10
39.2699
 20
17.7302
 30
0.0000
  0
VERTEX
  8
21
 10
38.8801
 20
17.7302
 30
0.0000
  0
SEQEND
  8
0
  0
POLYLINE
  8
21
 66
1
 10
0.0000
 20
0.0000
 30
0.0000
 40
0.0508
 41
0.0508
 70
0
  0
VERTEX
  8
21
 10
38.8801
 20
17.7556
 30
0.0000
 42
1.0000
  0
VERTEX
  8
21
 10
38.8801
 20
17.7048
 30
0.0000
  0
SEQEND
  8
0
  0
POLYLINE
  8
21
 66
1
 10
0.0000
 20
0.0000
 30
0.0000
 40
0.0508
 41
0.0508
 70
0
  0
VERTEX
  8
21
 10
39.2699
 20
17.7048
 30
0.0000
 42
1.0000
  0
VERTEX
  8
21
 10
39.2699
 20
17.7556
 30
0.0000
  0
SEQEND
  8
0
  0
POLYLINE
  8
21
 66
1
 10
0.0000
 20
0.0000
 30
0.0000
 40
0.1016
 41
0.1016
 70
0
  0
VERTEX
  8
21
 10
38.8801
 20
17.7302
 30
0.0000
  0
VERTEX
  8
21
 10
38.6852
 20
17.5353
 30
0.0000
  0
SEQEND
  8
0
  0
POLYLINE
  8
21
 66
1
 10
0.0000
 20
0.0000
 30
0.0000
 40
0.0508
 41
0.0508
 70
0
  0
VERTEX
  8
21
 10
38.6672
 20
17.5533
 30
0.0000
 42
1.0000
  0
VERTEX
  8
21
 10
38.7032
 20
17.5173
 30
0.0000
  0
SEQEND
  8
0
  0
POLYLINE
  8
21
 66
1
 10
0.0000
 20
0.0000
 30
0.0000
 40
0.0508
 41
0.0508
 70
0
  0
VERTEX
  8
21
 10
38.8981
 20
17.7122
 30
0.0000
 42
1.0000
  0
VERTEX
  8
21
 10
38.8621
 20
17.7482
 30
0.0000
  0
SEQEND
  8
0
  0
POINT
  8
23
 10
66.6750
 20
12.7000
 30
0.0000
  0
POLYLINE
  8
21
 66
1
 10
0.0000
 20
0.0000
 30
0.0000
 40
0.1270
 41
0.1270
 70
0
  0
VERTEX
  8
21
 10
62.4250
 20
17.5500
 30
0.0000
  0
VERTEX
  8
21
 10
70.9250
 20
17.5500
 30
0.0000
  0
SEQEND
  8
0
  0
POLYLINE
  8
21
 66
1
 10
0.0000
 20
0.0000
 30
0.0000
 40
0.0635
 41
0.0635
 70
0
  0
VERTEX
  8
21
 10
70.9250
 20
17.5183
 30
0.0000
 42
1.0000
  0
VERTEX
  8
21
 10
70.9250
 20
17.5817
 30
0.0000
  0
SEQEND
  8
0
  0
POLYLINE
  8
21
 66
1
 10
0.0000
 20
0.0000
 30
0.0000
 40
0.0635
 41
0.0635
 70
0
  0
VERTEX
  8
21
 10
62.4250
 20
17.5817
 30
0.0000
 42
1.0000
  0
VERTEX
  8
21
 10
62.4250
 20
17.5183
 30
0.0000
  0
SEQEND
  8
0
  0
POLYLINE
  8
21
 66
1
 10
0.0000
 20
0.0000
 30
0.0000
 40
0.1270
 41
0.1270
 70
0
  0
VERTEX
  8
21
 10
70.9250
 20
17.5500
 30
0.0000
  0
VERTEX
  8
21
 10
70.9250
 20
6.2000
 30
0.0000
  0
SEQEND
  8
0
  0
POLYLINE
  8
21
 66
1
 10
0.0000
 20
0.0000
 30
0.0000
 40
0.0635
 41
0.0635
 70
0
  0
VERTEX
  8
21
 10
70.8932
 20
6.2000
 30
0.0000
 42
1.0000
  0
VERTEX
  8
21
 10
70.9567
 20
6.2000
 30
0.0000
  0
SEQEND
  8
0
  0
POLYLINE
  8
21
 66
1
 10
0.0000
 20
0.0000
 30
0.0000
 40
0.0635
 41
0.0635
 70
0
  0
VERTEX
  8
21
 10
70.9567
 20
17.5500
 30
0.0000
 42
1.0000
  0
VERTEX
  8
21
 10
70.8932
 20
17.5500
 30
0.0000
  0
SEQEND
  8
0
  0
POLYLINE
  8
21
 66
1
 10
0.0000
 20
0.0000
 30
0.0000
 40
0.1270
 41
0.1270
 70
0
  0
VERTEX
  8
21
 10
70.9250
 20
6.2000
 30
0.0000
  0
VERTEX
  8
21
 10
62.4250
 20
6.2000
 30
0.0000
  0
SEQEND
  8
0
  0
POLYLINE
  8
21
 66
1
 10
0.0000
 20
0.0000
 30
0.0000
 40
0.0635
 41
0.0635
 70
0
  0
VERTEX
  8
21
 10
62.4250
 20
6.2317
 30
0.0000
 42
1.0000
  0
VERTEX
  8
21
 10
62.4250
 20
6.1683
 30
0.0000
  0
SEQEND
  8
0
  0
POLYLINE
  8
21
 66
1
 10
0.0000
 20
0.0000
 30
0.0000
 40
0.0635
 41
0.0635
 70
0
  0
VERTEX
  8
21
 10
70.9250
 20
6.1683
 30
0.0000
 42
1.0000
  0
VERTEX
  8
21
 10
70.9250
 20
6.2317
 30
0.0000
  0
SEQEND
  8
0
  0
POLYLINE
  8
21
 66
1
 10
0.0000
 20
0.0000
 30
0.0000
 40
0.1270
 41
0.1270
 70
0
  0
VERTEX
  8
21
 10
62.4250
 20
6.2000
 30
0.0000
  0
VERTEX
  8
21
 10
62.4250
 20
17.5500
 30
0.0000
  0
SEQEND
  8
0
  0
POLYLINE
  8
21
 66
1
 10
0.0000
 20
0.0000
 30
0.0000
 40
0.0635
 41
0.0635
 70
0
  0
VERTEX
  8
21
 10
62.4568
 20
17.5500
 30
0.0000
 42
1.0000
  0
VERTEX
  8
21
 10
62.3933
 20
17.5500
 30
0.0000
  0
SEQEND
  8
0
  0
POLYLINE
  8
21
 66
1
 10
0.0000
 20
0.0000
 30
0.0000
 40
0.0635
 41
0.0635
 70
0
  0
VERTEX
  8
21
 10
62.3933
 20
6.2000
 30
0.0000
 42
1.0000
  0
VERTEX
  8
21
 10
62.4568
 20
6.2000
 30
0.0000
  0
SEQEND
  8
0
  0
POLYLINE
  8
21
 66
1
 10
0.0000
 20
0.0000
 30
0.0000
 40
0.2032
 41
0.2032
 70
0
  0
VERTEX
  8
21
 10
67.7750
 20
12.0750
 30
0.0000
 42
1.7183
  0
VERTEX
  8
21
 10
65.5750
 20
12.0750
 30
0.0000
  0
SEQEND
  8
0
  0
POLYLINE
  8
21
 66
1
 10
0.0000
 20
0.0000
 30
0.0000
 40
0.1016
 41
0.1016
 70
0
  0
VERTEX
  8
21
 10
67.7308
 20
12.1001
 30
0.0000
 42
1.0000
  0
VERTEX
  8
21
 10
67.8192
 20
12.0499
 30
0.0000
  0
SEQEND
  8
0
  0
POLYLINE
  8
21
 66
1
 10
0.0000
 20
0.0000
 30
0.0000
 40
0.1016
 41
0.1016
 70
0
  0
VERTEX
  8
21
 10
65.5308
 20
12.0499
 30
0.0000
 42
1.0000
  0
VERTEX
  8
21
 10
65.6192
 20
12.1001
 30
0.0000
  0
SEQEND
  8
0
  0
POLYLINE
  8
21
 66
1
 10
0.0000
 20
0.0000
 30
0.0000
 40
0.2032
 41
0.2032
 70
0
  0
VERTEX
  8
21
 10
67.7750
 20
12.0750
 30
0.0000
  0
VERTEX
  8
21
 10
65.5750
 20
12.0750
 30
0.0000
  0
SEQEND
  8
0
  0
POLYLINE
  8
21
 66
1
 10
0.0000
 20
0.0000
 30
0.0000
 40
0.1016
 41
0.1016
 70
0
  0
VERTEX
  8
21
 10
65.5750
 20
12.1258
 30
0.0000
 42
1.0000
  0
VERTEX
  8
21
 10
65.5750
 20
12.0242
 30
0.0000
  0
SEQEND
  8
0
  0
POLYLINE
  8
21
 66
1
 10
0.0000
 20
0.0000
 30
0.0000
 40
0.1016
 41
0.1016
 70
0
  0
VERTEX
  8
21
 10
67.7750
 20
12.0242
 30
0.0000
 42
1.0000
  0
VERTEX
  8
21
 10
67.7750
 20
12.1258
 30
0.0000
  0
SEQEND
  8
0
  0
POLYLINE
  8
21
 66
1
 10
0.0000
 20
0.0000
 30
0.0000
 40
0.2032
 41
0.2032
 70
0
  0
VERTEX
  8
21
 10
69.1250
 20
12.0750
 30
0.0000
  0
VERTEX
  8
21
 10
64.2500
 20
12.0750
 30
0.0000
  0
SEQEND
  8
0
  0
POLYLINE
  8
21
 66
1
 10
0.0000
 20
0.0000
 30
0.0000
 40
0.1016
 41
0.1016
 70
0
  0
VERTEX
  8
21
 10
64.2500
 20
12.1258
 30
0.0000
 42
1.0000
  0
VERTEX
  8
21
 10
64.2500
 20
12.0242
 30
0.0000
  0
SEQEND
  8
0
  0
POLYLINE
  8
21
 66
1
 10
0.0000
 20
0.0000
 30
0.0000
 40
0.1016
 41
0.1016
 70
0
  0
VERTEX
  8
21
 10
69.1250
 20
12.0242
 30
0.0000
 42
1.0000
  0
VERTEX
  8
21
 10
69.1250
 20
12.1258
 30
0.0000
  0
SEQEND
  8
0
  0
POLYLINE
  8
21
 66
1
 10
0.0000
 20
0.0000
 30
0.0000
 40
0.2032
 41
0.2032
 70
0
  0
VERTEX
  8
21
 10
66.6750
 20
10.1600
 30
0.0000
 42
1.0000
  0
VERTEX
  8
21
 10
66.6750
 20
15.2400
 30
0.0000
 42
1.0000
  0
VERTEX
  8
21
 10
66.6750
 20
10.1600
 30
0.0000
  0
SEQEND
  8
0
  0
INSERT
  8
17
  2
OCTAGONP
 10
69.1750
 20
5.2000
 30
0.0000
 41
1.8796
 42
1.8796
 43
1.0000
 50
90.0000
  0
INSERT
  8
17
  2
OCTAGONP
 10
69.1750
 20
5.2000
 30
0.0000
 41
1.8796
 42
1.8796
 43
1.0000
 50
90.0000
  0
INSERT
  8
17
  2
OCTAGONP
 10
66.6750
 20
5.2000
 30
0.0000
 41
1.8796
 42
1.8796
 43
1.0000
 50
90.0000
  0
INSERT
  8
17
  2
OCTAGONP
 10
66.6750
 20
5.2000
 30
0.0000
 41
1.8796
 42
1.8796
 43
1.0000
 50
90.0000
  0
INSERT
  8
17
  2
OCTAGONP
 10
64.1750
 20
5.2000
 30
0.0000
 41
1.8796
 42
1.8796
 43
1.0000
 50
90.0000
  0
INSERT
  8
17
  2
OCTAGONP
 10
64.1750
 20
5.2000
 30
0.0000
 41
1.8796
 42
1.8796
 43
1.0000
 50
90.0000
  0
INSERT
  8
17
  2
LONGP100
 10
71.3750
 20
12.7000
 30
0.0000
 41
1.6002
 42
1.6002
 43
1.0000
 50
180.0000
  0
INSERT
  8
17
  2
LONGP100
 10
71.3750
 20
12.7000
 30
0.0000
 41
1.6002
 42
1.6002
 43
1.0000
 50
180.0000
  0
INSERT
  8
17
  2
LONGP100
 10
61.9750
 20
12.7000
 30
0.0000
 41
1.6002
 42
1.6002
 43
1.0000
 50
180.0000
  0
INSERT
  8
17
  2
LONGP100
 10
61.9750
 20
12.7000
 30
0.0000
 41
1.6002
 42
1.6002
 43
1.0000
 50
180.0000
  0
POLYLINE
  8
21
 66
1
 10
0.0000
 20
0.0000
 30
0.0000
 40
0.1016
 41
0.1016
 70
0
  0
VERTEX
  8
21
 10
62.9158
 20
16.5608
 30
0.0000
  0
VERTEX
  8
21
 10
62.9158
 20
17.7302
 30
0.0000
  0
SEQEND
  8
0
  0
POLYLINE
  8
21
 66
1
 10
0.0000
 20
0.0000
 30
0.0000
 40
0.0508
 41
0.0508
 70
0
  0
VERTEX
  8
21
 10
62.9412
 20
17.7302
 30
0.0000
 42
1.0000
  0
VERTEX
  8
21
 10
62.8904
 20
17.7302
 30
0.0000
  0
SEQEND
  8
0
  0
POLYLINE
  8
21
 66
1
 10
0.0000
 20
0.0000
 30
0.0000
 40
0.0508
 41
0.0508
 70
0
  0
VERTEX
  8
21
 10
62.8904
 20
16.5608
 30
0.0000
 42
1.0000
  0
VERTEX
  8
21
 10
62.9412
 20
16.5608
 30
0.0000
  0
SEQEND
  8
0
  0
POLYLINE
  8
21
 66
1
 10
0.0000
 20
0.0000
 30
0.0000
 40
0.1016
 41
0.1016
 70
0
  0
VERTEX
  8
21
 10
62.9158
 20
17.7302
 30
0.0000
  0
VERTEX
  8
21
 10
63.5005
 20
17.7302
 30
0.0000
  0
SEQEND
  8
0
  0
POLYLINE
  8
21
 66
1
 10
0.0000
 20
0.0000
 30
0.0000
 40
0.0508
 41
0.0508
 70
0
  0
VERTEX
  8
21
 10
63.5005
 20
17.7048
 30
0.0000
 42
1.0000
  0
VERTEX
  8
21
 10
63.5005
 20
17.7556
 30
0.0000
  0
SEQEND
  8
0
  0
POLYLINE
  8
21
 66
1
 10
0.0000
 20
0.0000
 30
0.0000
 40
0.0508
 41
0.0508
 70
0
  0
VERTEX
  8
21
 10
62.9158
 20
17.7556
 30
0.0000
 42
1.0000
  0
VERTEX
  8
21
 10
62.9158
 20
17.7048
 30
0.0000
  0
SEQEND
  8
0
  0
POLYLINE
  8
21
 66
1
 10
0.0000
 20
0.0000
 30
0.0000
 40
0.1016
 41
0.1016
 70
0
  0
VERTEX
  8
21
 10
63.5005
 20
17.7302
 30
0.0000
  0
VERTEX
  8
21
 10
63.6954
 20
17.5353
 30
0.0000
  0
SEQEND
  8
0
  0
POLYLINE
  8
21
 66
1
 10
0.0000
 20
0.0000
 30
0.0000
 40
0.0508
 41
0.0508
 70
0
  0
VERTEX
  8
21
 10
63.6774
 20
17.5173
 30
0.0000
 42
1.0000
  0
VERTEX
  8
21
 10
63.7134
 20
17.5533
 30
0.0000
  0
SEQEND
  8
0
  0
POLYLINE
  8
21
 66
1
 10
0.0000
 20
0.0000
 30
0.0000
 40
0.0508
 41
0.0508
 70
0
  0
VERTEX
  8
21
 10
63.5185
 20
17.7482
 30
0.0000
 42
1.0000
  0
VERTEX
  8
21
 10
63.4825
 20
17.7122
 30
0.0000
  0
SEQEND
  8
0
  0
POLYLINE
  8
21
 66
1
 10
0.0000
 20
0.0000
 30
0.0000
 40
0.1016
 41
0.1016
 70
0
  0
VERTEX
  8
21
 10
63.6954
 20
17.5353
 30
0.0000
  0
VERTEX
  8
21
 10
63.6954
 20
17.1455
 30
0.0000
  0
SEQEND
  8
0
  0
POLYLINE
  8
21
 66
1
 10
0.0000
 20
0.0000
 30
0.0000
 40
0.0508
 41
0.0508
 70
0
  0
VERTEX
  8
21
 10
63.6700
 20
17.1455
 30
0.0000
 42
1.0000
  0
VERTEX
  8
21
 10
63.7208
 20
17.1455
 30
0.0000
  0
SEQEND
  8
0
  0
POLYLINE
  8
21
 66
1
 10
0.0000
 20
0.0000
 30
0.0000
 40
0.0508
 41
0.0508
 70
0
  0
VERTEX
  8
21
 10
63.7208
 20
17.5353
 30
0.0000
 42
1.0000
  0
VERTEX
  8
21
 10
63.6700
 20
17.5353
 30
0.0000
  0
SEQEND
  8
0
  0
POLYLINE
  8
21
 66
1
 10
0.0000
 20
0.0000
 30
0.0000
 40
0.1016
 41
0.1016
 70
0
  0
VERTEX
  8
21
 10
63.6954
 20
17.1455
 30
0.0000
  0
VERTEX
  8
21
 10
63.5005
 20
16.9506
 30
0.0000
  0
SEQEND
  8
0
  0
POLYLINE
  8
21
 66
1
 10
0.0000
 20
0.0000
 30
0.0000
 40
0.0508
 41
0.0508
 70
0
  0
VERTEX
  8
21
 10
63.4825
 20
16.9686
 30
0.0000
 42
1.0000
  0
VERTEX
  8
21
 10
63.5185
 20
16.9326
 30
0.0000
  0
SEQEND
  8
0
  0
POLYLINE
  8
21
 66
1
 10
0.0000
 20
0.0000
 30
0.0000
 40
0.0508
 41
0.0508
 70
0
  0
VERTEX
  8
21
 10
63.7134
 20
17.1275
 30
0.0000
 42
1.0000
  0
VERTEX
  8
21
 10
63.6774
 20
17.1635
 30
0.0000
  0
SEQEND
  8
0
  0
POLYLINE
  8
21
 66
1
 10
0.0000
 20
0.0000
 30
0.0000
 40
0.1016
 41
0.1016
 70
0
  0
VERTEX
  8
21
 10
63.5005
 20
16.9506
 30
0.0000
  0
VERTEX
  8
21
 10
62.9158
 20
16.9506
 30
0.0000
  0
SEQEND
  8
0
  0
POLYLINE
  8
21
 66
1
 10
0.0000
 20
0.0000
 30
0.0000
 40
0.0508
 41
0.0508
 70
0
  0
VERTEX
  8
21
 10
62.9158
 20
16.9760
 30
0.0000
 42
1.0000
  0
VERTEX
  8
21
 10
62.9158
 20
16.9252
 30
0.0000
  0
SEQEND
  8
0
  0
POLYLINE
  8
21
 66
1
 10
0.0000
 20
0.0000
 30
0.0000
 40
0.0508
 41
0.0508
 70
0
  0
VERTEX
  8
21
 10
63.5005
 20
16.9252
 30
0.0000
 42
1.0000
  0
VERTEX
  8
21
 10
63.5005
 20
16.9760
 30
0.0000
  0
SEQEND
  8
0
  0
POLYLINE
  8
21
 66
1
 10
0.0000
 20
0.0000
 30
0.0000
 40
0.1016
 41
0.1016
 70
0
  0
VERTEX
  8
21
 10
63.3056
 20
16.9506
 30
0.0000
  0
VERTEX
  8
21
 10
63.6954
 20
16.5608
 30
0.0000
  0
SEQEND
  8
0
  0
POLYLINE
  8
21
 66
1
 10
0.0000
 20
0.0000
 30
0.0000
 40
0.0508
 41
0.0508
 70
0
  0
VERTEX
  8
21
 10
63.6774
 20
16.5428
 30
0.0000
 42
1.0000
  0
VERTEX
  8
21
 10
63.7134
 20
16.5788
 30
0.0000
  0
SEQEND
  8
0
  0
POLYLINE
  8
21
 66
1
 10
0.0000
 20
0.0000
 30
0.0000
 40
0.0508
 41
0.0508
 70
0
  0
VERTEX
  8
21
 10
63.3236
 20
16.9686
 30
0.0000
 42
1.0000
  0
VERTEX
  8
21
 10
63.2876
 20
16.9326
 30
0.0000
  0
SEQEND
  8
0
  0
POLYLINE
  8
21
 66
1
 10
0.0000
 20
0.0000
 30
0.0000
 40
0.1016
 41
0.1016
 70
0
  0
VERTEX
  8
21
 10
64.0852
 20
17.5353
 30
0.0000
  0
VERTEX
  8
21
 10
64.2801
 20
17.7302
 30
0.0000
  0
SEQEND
  8
0
  0
POLYLINE
  8
21
 66
1
 10
0.0000
 20
0.0000
 30
0.0000
 40
0.0508
 41
0.0508
 70
0
  0
VERTEX
  8
21
 10
64.2981
 20
17.7122
 30
0.0000
 42
1.0000
  0
VERTEX
  8
21
 10
64.2621
 20
17.7482
 30
0.0000
  0
SEQEND
  8
0
  0
POLYLINE
  8
21
 66
1
 10
0.0000
 20
0.0000
 30
0.0000
 40
0.0508
 41
0.0508
 70
0
  0
VERTEX
  8
21
 10
64.0672
 20
17.5533
 30
0.0000
 42
1.0000
  0
VERTEX
  8
21
 10
64.1032
 20
17.5173
 30
0.0000
  0
SEQEND
  8
0
  0
POLYLINE
  8
21
 66
1
 10
0.0000
 20
0.0000
 30
0.0000
 40
0.1016
 41
0.1016
 70
0
  0
VERTEX
  8
21
 10
64.2801
 20
17.7302
 30
0.0000
  0
VERTEX
  8
21
 10
64.6699
 20
17.7302
 30
0.0000
  0
SEQEND
  8
0
  0
POLYLINE
  8
21
 66
1
 10
0.0000
 20
0.0000
 30
0.0000
 40
0.0508
 41
0.0508
 70
0
  0
VERTEX
  8
21
 10
64.6699
 20
17.7048
 30
0.0000
 42
1.0000
  0
VERTEX
  8
21
 10
64.6699
 20
17.7556
 30
0.0000
  0
SEQEND
  8
0
  0
POLYLINE
  8
21
 66
1
 10
0.0000
 20
0.0000
 30
0.0000
 40
0.0508
 41
0.0508
 70
0
  0
VERTEX
  8
21
 10
64.2801
 20
17.7556
 30
0.0000
 42
1.0000
  0
VERTEX
  8
21
 10
64.2801
 20
17.7048
 30
0.0000
  0
SEQEND
  8
0
  0
POLYLINE
  8
21
 66
1
 10
0.0000
 20
0.0000
 30
0.0000
 40
0.1016
 41
0.1016
 70
0
  0
VERTEX
  8
21
 10
64.6699
 20
17.7302
 30
0.0000
  0
VERTEX
  8
21
 10
64.8648
 20
17.5353
 30
0.0000
  0
SEQEND
  8
0
  0
POLYLINE
  8
21
 66
1
 10
0.0000
 20
0.0000
 30
0.0000
 40
0.0508
 41
0.0508
 70
0
  0
VERTEX
  8
21
 10
64.8468
 20
17.5173
 30
0.0000
 42
1.0000
  0
VERTEX
  8
21
 10
64.8828
 20
17.5533
 30
0.0000
  0
SEQEND
  8
0
  0
POLYLINE
  8
21
 66
1
 10
0.0000
 20
0.0000
 30
0.0000
 40
0.0508
 41
0.0508
 70
0
  0
VERTEX
  8
21
 10
64.6879
 20
17.7482
 30
0.0000
 42
1.0000
  0
VERTEX
  8
21
 10
64.6519
 20
17.7122
 30
0.0000
  0
SEQEND
  8
0
  0
POLYLINE
  8
21
 66
1
 10
0.0000
 20
0.0000
 30
0.0000
 40
0.1016
 41
0.1016
 70
0
  0
VERTEX
  8
21
 10
64.8648
 20
17.5353
 30
0.0000
  0
VERTEX
  8
21
 10
64.8648
 20
17.3404
 30
0.0000
  0
SEQEND
  8
0
  0
POLYLINE
  8
21
 66
1
 10
0.0000
 20
0.0000
 30
0.0000
 40
0.0508
 41
0.0508
 70
0
  0
VERTEX
  8
21
 10
64.8394
 20
17.3404
 30
0.0000
 42
1.0000
  0
VERTEX
  8
21
 10
64.8902
 20
17.3404
 30
0.0000
  0
SEQEND
  8
0
  0
POLYLINE
  8
21
 66
1
 10
0.0000
 20
0.0000
 30
0.0000
 40
0.0508
 41
0.0508
 70
0
  0
VERTEX
  8
21
 10
64.8902
 20
17.5353
 30
0.0000
 42
1.0000
  0
VERTEX
  8
21
 10
64.8394
 20
17.5353
 30
0.0000
  0
SEQEND
  8
0
  0
POLYLINE
  8
21
 66
1
 10
0.0000
 20
0.0000
 30
0.0000
 40
0.1016
 41
0.1016
 70
0
  0
VERTEX
  8
21
 10
64.8648
 20
17.3404
 30
0.0000
  0
VERTEX
  8
21
 10
64.6699
 20
17.1455
 30
0.0000
  0
SEQEND
  8
0
  0
POLYLINE
  8
21
 66
1
 10
0.0000
 20
0.0000
 30
0.0000
 40
0.0508
 41
0.0508
 70
0
  0
VERTEX
  8
21
 10
64.6519
 20
17.1635
 30
0.0000
 42
1.0000
  0
VERTEX
  8
21
 10
64.6879
 20
17.1275
 30
0.0000
  0
SEQEND
  8
0
  0
POLYLINE
  8
21
 66
1
 10
0.0000
 20
0.0000
 30
0.0000
 40
0.0508
 41
0.0508
 70
0
  0
VERTEX
  8
21
 10
64.8828
 20
17.3224
 30
0.0000
 42
1.0000
  0
VERTEX
  8
21
 10
64.8468
 20
17.3584
 30
0.0000
  0
SEQEND
  8
0
  0
POLYLINE
  8
21
 66
1
 10
0.0000
 20
0.0000
 30
0.0000
 40
0.1016
 41
0.1016
 70
0
  0
VERTEX
  8
21
 10
64.6699
 20
17.1455
 30
0.0000
  0
VERTEX
  8
21
 10
64.4750
 20
17.1455
 30
0.0000
  0
SEQEND
  8
0
  0
POLYLINE
  8
21
 66
1
 10
0.0000
 20
0.0000
 30
0.0000
 40
0.0508
 41
0.0508
 70
0
  0
VERTEX
  8
21
 10
64.4750
 20
17.1709
 30
0.0000
 42
1.0000
  0
VERTEX
  8
21
 10
64.4750
 20
17.1201
 30
0.0000
  0
SEQEND
  8
0
  0
POLYLINE
  8
21
 66
1
 10
0.0000
 20
0.0000
 30
0.0000
 40
0.0508
 41
0.0508
 70
0
  0
VERTEX
  8
21
 10
64.6699
 20
17.1201
 30
0.0000
 42
1.0000
  0
VERTEX
  8
21
 10
64.6699
 20
17.1709
 30
0.0000
  0
SEQEND
  8
0
  0
POLYLINE
  8
21
 66
1
 10
0.0000
 20
0.0000
 30
0.0000
 40
0.1016
 41
0.1016
 70
0
  0
VERTEX
  8
21
 10
64.6699
 20
17.1455
 30
0.0000
  0
VERTEX
  8
21
 10
64.8648
 20
16.9506
 30
0.0000
  0
SEQEND
  8
0
  0
POLYLINE
  8
21
 66
1
 10
0.0000
 20
0.0000
 30
0.0000
 40
0.0508
 41
0.0508
 70
0
  0
VERTEX
  8
21
 10
64.8468
 20
16.9326
 30
0.0000
 42
1.0000
  0
VERTEX
  8
21
 10
64.8828
 20
16.9686
 30
0.0000
  0
SEQEND
  8
0
  0
POLYLINE
  8
21
 66
1
 10
0.0000
 20
0.0000
 30
0.0000
 40
0.0508
 41
0.0508
 70
0
  0
VERTEX
  8
21
 10
64.6879
 20
17.1635
 30
0.0000
 42
1.0000
  0
VERTEX
  8
21
 10
64.6519
 20
17.1275
 30
0.0000
  0
SEQEND
  8
0
  0
POLYLINE
  8
21
 66
1
 10
0.0000
 20
0.0000
 30
0.0000
 40
0.1016
 41
0.1016
 70
0
  0
VERTEX
  8
21
 10
64.8648
 20
16.9506
 30
0.0000
  0
VERTEX
  8
21
 10
64.8648
 20
16.7557
 30
0.0000
  0
SEQEND
  8
0
  0
POLYLINE
  8
21
 66
1
 10
0.0000
 20
0.0000
 30
0.0000
 40
0.0508
 41
0.0508
 70
0
  0
VERTEX
  8
21
 10
64.8394
 20
16.7557
 30
0.0000
 42
1.0000
  0
VERTEX
  8
21
 10
64.8902
 20
16.7557
 30
0.0000
  0
SEQEND
  8
0
  0
POLYLINE
  8
21
 66
1
 10
0.0000
 20
0.0000
 30
0.0000
 40
0.0508
 41
0.0508
 70
0
  0
VERTEX
  8
21
 10
64.8902
 20
16.9506
 30
0.0000
 42
1.0000
  0
VERTEX
  8
21
 10
64.8394
 20
16.9506
 30
0.0000
  0
SEQEND
  8
0
  0
POLYLINE
  8
21
 66
1
 10
0.0000
 20
0.0000
 30
0.0000
 40
0.1016
 41
0.1016
 70
0
  0
VERTEX
  8
21
 10
64.8648
 20
16.7557
 30
0.0000
  0
VERTEX
  8
21
 10
64.6699
 20
16.5608
 30
0.0000
  0
SEQEND
  8
0
  0
POLYLINE
  8
21
 66
1
 10
0.0000
 20
0.0000
 30
0.0000
 40
0.0508
 41
0.0508
 70
0
  0
VERTEX
  8
21
 10
64.6519
 20
16.5788
 30
0.0000
 42
1.0000
  0
VERTEX
  8
21
 10
64.6879
 20
16.5428
 30
0.0000
  0
SEQEND
  8
0
  0
POLYLINE
  8
21
 66
1
 10
0.0000
 20
0.0000
 30
0.0000
 40
0.0508
 41
0.0508
 70
0
  0
VERTEX
  8
21
 10
64.8828
 20
16.7377
 30
0.0000
 42
1.0000
  0
VERTEX
  8
21
 10
64.8468
 20
16.7737
 30
0.0000
  0
SEQEND
  8
0
  0
POLYLINE
  8
21
 66
1
 10
0.0000
 20
0.0000
 30
0.0000
 40
0.1016
 41
0.1016
 70
0
  0
VERTEX
  8
21
 10
64.6699
 20
16.5608
 30
0.0000
  0
VERTEX
  8
21
 10
64.2801
 20
16.5608
 30
0.0000
  0
SEQEND
  8
0
  0
POLYLINE
  8
21
 66
1
 10
0.0000
 20
0.0000
 30
0.0000
 40
0.0508
 41
0.0508
 70
0
  0
VERTEX
  8
21
 10
64.2801
 20
16.5862
 30
0.0000
 42
1.0000
  0
VERTEX
  8
21
 10
64.2801
 20
16.5354
 30
0.0000
  0
SEQEND
  8
0
  0
POLYLINE
  8
21
 66
1
 10
0.0000
 20
0.0000
 30
0.0000
 40
0.0508
 41
0.0508
 70
0
  0
VERTEX
  8
21
 10
64.6699
 20
16.5354
 30
0.0000
 42
1.0000
  0
VERTEX
  8
21
 10
64.6699
 20
16.5862
 30
0.0000
  0
SEQEND
  8
0
  0
POLYLINE
  8
21
 66
1
 10
0.0000
 20
0.0000
 30
0.0000
 40
0.1016
 41
0.1016
 70
0
  0
VERTEX
  8
21
 10
64.2801
 20
16.5608
 30
0.0000
  0
VERTEX
  8
21
 10
64.0852
 20
16.7557
 30
0.0000
  0
SEQEND
  8
0
  0
POLYLINE
  8
21
 66
1
 10
0.0000
 20
0.0000
 30
0.0000
 40
0.0508
 41
0.0508
 70
0
  0
VERTEX
  8
21
 10
64.1032
 20
16.7737
 30
0.0000
 42
1.0000
  0
VERTEX
  8
21
 10
64.0672
 20
16.7377
 30
0.0000
  0
SEQEND
  8
0
  0
POLYLINE
  8
21
 66
1
 10
0.0000
 20
0.0000
 30
0.0000
 40
0.0508
 41
0.0508
 70
0
  0
VERTEX
  8
21
 10
64.2621
 20
16.5428
 30
0.0000
 42
1.0000
  0
VERTEX
  8
21
 10
64.2981
 20
16.5788
 30
0.0000
  0
SEQEND
  8
0
  0
POINT
  8
23
 10
92.0750
 20
12.7000
 30
0.0000
  0
POLYLINE
  8
21
 66
1
 10
0.0000
 20
0.0000
 30
0.0000
 40
0.1270
 41
0.1270
 70
0
  0
VERTEX
  8
21
 10
87.8250
 20
17.5500
 30
0.0000
  0
VERTEX
  8
21
 10
96.3250
 20
17.5500
 30
0.0000
  0
SEQEND
  8
0
  0
POLYLINE
  8
21
 66
1
 10
0.0000
 20
0.0000
 30
0.0000
 40
0.0635
 41
0.0635
 70
0
  0
VERTEX
  8
21
 10
96.3250
 20
17.5183
 30
0.0000
 42
1.0000
  0
VERTEX
  8
21
 10
96.3250
 20
17.5817
 30
0.0000
  0
SEQEND
  8
0
  0
POLYLINE
  8
21
 66
1
 10
0.0000
 20
0.0000
 30
0.0000
 40
0.0635
 41
0.0635
 70
0
  0
VERTEX
  8
21
 10
87.8250
 20
17.5817
 30
0.0000
 42
1.0000
  0
VERTEX
  8
21
 10
87.8250
 20
17.5183
 30
0.0000
  0
SEQEND
  8
0
  0
POLYLINE
  8
21
 66
1
 10
0.0000
 20
0.0000
 30
0.0000
 40
0.1270
 41
0.1270
 70
0
  0
VERTEX
  8
21
 10
96.3250
 20
17.5500
 30
0.0000
  0
VERTEX
  8
21
 10
96.3250
 20
6.2000
 30
0.0000
  0
SEQEND
  8
0
  0
POLYLINE
  8
21
 66
1
 10
0.0000
 20
0.0000
 30
0.0000
 40
0.0635
 41
0.0635
 70
0
  0
VERTEX
  8
21
 10
96.2933
 20
6.2000
 30
0.0000
 42
1.0000
  0
VERTEX
  8
21
 10
96.3568
 20
6.2000
 30
0.0000
  0
SEQEND
  8
0
  0
POLYLINE
  8
21
 66
1
 10
0.0000
 20
0.0000
 30
0.0000
 40
0.0635
 41
0.0635
 70
0
  0
VERTEX
  8
21
 10
96.3568
 20
17.5500
 30
0.0000
 42
1.0000
  0
VERTEX
  8
21
 10
96.2933
 20
17.5500
 30
0.0000
  0
SEQEND
  8
0
  0
POLYLINE
  8
21
 66
1
 10
0.0000
 20
0.0000
 30
0.0000
 40
0.1270
 41
0.1270
 70
0
  0
VERTEX
  8
21
 10
96.3250
 20
6.2000
 30
0.0000
  0
VERTEX
  8
21
 10
87.8250
 20
6.2000
 30
0.0000
  0
SEQEND
  8
0
  0
POLYLINE
  8
21
 66
1
 10
0.0000
 20
0.0000
 30
0.0000
 40
0.0635
 41
0.0635
 70
0
  0
VERTEX
  8
21
 10
87.8250
 20
6.2317
 30
0.0000
 42
1.0000
  0
VERTEX
  8
21
 10
87.8250
 20
6.1683
 30
0.0000
  0
SEQEND
  8
0
  0
POLYLINE
  8
21
 66
1
 10
0.0000
 20
0.0000
 30
0.0000
 40
0.0635
 41
0.0635
 70
0
  0
VERTEX
  8
21
 10
96.3250
 20
6.1683
 30
0.0000
 42
1.0000
  0
VERTEX
  8
21
 10
96.3250
 20
6.2317
 30
0.0000
  0
SEQEND
  8
0
  0
POLYLINE
  8
21
 66
1
 10
0.0000
 20
0.0000
 30
0.0000
 40
0.1270
 41
0.1270
 70
0
  0
VERTEX
  8
21
 10
87.8250
 20
6.2000
 30
0.0000
  0
VERTEX
  8
21
 10
87.8250
 20
17.5500
 30
0.0000
  0
SEQEND
  8
0
  0
POLYLINE
  8
21
 66
1
 10
0.0000
 20
0.0000
 30
0.0000
 40
0.0635
 41
0.0635
 70
0
  0
VERTEX
  8
21
 10
87.8568
 20
17.5500
 30
0.0000
 42
1.0000
  0
VERTEX
  8
21
 10
87.7933
 20
17.5500
 30
0.0000
  0
SEQEND
  8
0
  0
POLYLINE
  8
21
 66
1
 10
0.0000
 20
0.0000
 30
0.0000
 40
0.0635
 41
0.0635
 70
0
  0
VERTEX
  8
21
 10
87.7933
 20
6.2000
 30
0.0000
 42
1.0000
  0
VERTEX
  8
21
 10
87.8568
 20
6.2000
 30
0.0000
  0
SEQEND
  8
0
  0
POLYLINE
  8
21
 66
1
 10
0.0000
 20
0.0000
 30
0.0000
 40
0.2032
 41
0.2032
 70
0
  0
VERTEX
  8
21
 10
93.1750
 20
12.0750
 30
0.0000
 42
1.7183
  0
VERTEX
  8
21
 10
90.9750
 20
12.0750
 30
0.0000
  0
SEQEND
  8
0
  0
POLYLINE
  8
21
 66
1
 10
0.0000
 20
0.0000
 30
0.0000
 40
0.1016
 41
0.1016
 70
0
  0
VERTEX
  8
21
 10
93.1308
 20
12.1001
 30
0.0000
 42
1.0000
  0
VERTEX
  8
21
 10
93.2192
 20
12.0499
 30
0.0000
  0
SEQEND
  8
0
  0
POLYLINE
  8
21
 66
1
 10
0.0000
 20
0.0000
 30
0.0000
 40
0.1016
 41
0.1016
 70
0
  0
VERTEX
  8
21
 10
90.9308
 20
12.0499
 30
0.0000
 42
1.0000
  0
VERTEX
  8
21
 10
91.0192
 20
12.1001
 30
0.0000
  0
SEQEND
  8
0
  0
POLYLINE
  8
21
 66
1
 10
0.0000
 20
0.0000
 30
0.0000
 40
0.2032
 41
0.2032
 70
0
  0
VERTEX
  8
21
 10
93.1750
 20
12.0750
 30
0.0000
  0
VERTEX
  8
21
 10
90.9750
 20
12.0750
 30
0.0000
  0
SEQEND
  8
0
  0
POLYLINE
  8
21
 66
1
 10
0.0000
 20
0.0000
 30
0.0000
 40
0.1016
 41
0.1016
 70
0
  0
VERTEX
  8
21
 10
90.9750
 20
12.1258
 30
0.0000
 42
1.0000
  0
VERTEX
  8
21
 10
90.9750
 20
12.0242
 30
0.0000
  0
SEQEND
  8
0
  0
POLYLINE
  8
21
 66
1
 10
0.0000
 20
0.0000
 30
0.0000
 40
0.1016
 41
0.1016
 70
0
  0
VERTEX
  8
21
 10
93.1750
 20
12.0242
 30
0.0000
 42
1.0000
  0
VERTEX
  8
21
 10
93.1750
 20
12.1258
 30
0.0000
  0
SEQEND
  8
0
  0
POLYLINE
  8
21
 66
1
 10
0.0000
 20
0.0000
 30
0.0000
 40
0.2032
 41
0.2032
 70
0
  0
VERTEX
  8
21
 10
94.5250
 20
12.0750
 30
0.0000
  0
VERTEX
  8
21
 10
89.6500
 20
12.0750
 30
0.0000
  0
SEQEND
  8
0
  0
POLYLINE
  8
21
 66
1
 10
0.0000
 20
0.0000
 30
0.0000
 40
0.1016
 41
0.1016
 70
0
  0
VERTEX
  8
21
 10
89.6500
 20
12.1258
 30
0.0000
 42
1.0000
  0
VERTEX
  8
21
 10
89.6500
 20
12.0242
 30
0.0000
  0
SEQEND
  8
0
  0
POLYLINE
  8
21
 66
1
 10
0.0000
 20
0.0000
 30
0.0000
 40
0.1016
 41
0.1016
 70
0
  0
VERTEX
  8
21
 10
94.5250
 20
12.0242
 30
0.0000
 42
1.0000
  0
VERTEX
  8
21
 10
94.5250
 20
12.1258
 30
0.0000
  0
SEQEND
  8
0
  0
POLYLINE
  8
21
 66
1
 10
0.0000
 20
0.0000
 30
0.0000
 40
0.2032
 41
0.2032
 70
0
  0
VERTEX
  8
21
 10
92.0750
 20
10.1600
 30
0.0000
 42
1.0000
  0
VERTEX
  8
21
 10
92.0750
 20
15.2400
 30
0.0000
 42
1.0000
  0
VERTEX
  8
21
 10
92.0750
 20
10.1600
 30
0.0000
  0
SEQEND
  8
0
  0
INSERT
  8
17
  2
OCTAGONP
 10
94.5750
 20
5.2000
 30
0.0000
 41
1.8796
 42
1.8796
 43
1.0000
 50
90.0000
  0
INSERT
  8
17
  2
OCTAGONP
 10
94.5750
 20
5.2000
 30
0.0000
 41
1.8796
 42
1.8796
 43
1.0000
 50
90.0000
  0
INSERT
  8
17
  2
OCTAGONP
 10
92.0750
 20
5.2000
 30
0.0000
 41
1.8796
 42
1.8796
 43
1.0000
 50
90.0000
  0
INSERT
  8
17
  2
OCTAGONP
 10
92.0750
 20
5.2000
 30
0.0000
 41
1.8796
 42
1.8796
 43
1.0000
 50
90.0000
  0
INSERT
  8
17
  2
OCTAGONP
 10
89.5750
 20
5.2000
 30
0.0000
 41
1.8796
 42
1.8796
 43
1.0000
 50
90.0000
  0
INSERT
  8
17
  2
OCTAGONP
 10
89.5750
 20
5.2000
 30
0.0000
 41
1.8796
 42
1.8796
 43
1.0000
 50
90.0000
  0
INSERT
  8
17
  2
LONGP100
 10
96.7750
 20
12.7000
 30
0.0000
 41
1.6002
 42
1.6002
 43
1.0000
 50
180.0000
  0
INSERT
  8
17
  2
LONGP100
 10
96.7750
 20
12.7000
 30
0.0000
 41
1.6002
 42
1.6002
 43
1.0000
 50
180.0000
  0
INSERT
  8
17
  2
LONGP100
 10
87.3750
 20
12.7000
 30
0.0000
 41
1.6002
 42
1.6002
 43
1.0000
 50
180.0000
  0
INSERT
  8
17
  2
LONGP100
 10
87.3750
 20
12.7000
 30
0.0000
 41
1.6002
 42
1.6002
 43
1.0000
 50
180.0000
  0
POLYLINE
  8
21
 66
1
 10
0.0000
 20
0.0000
 30
0.0000
 40
0.1016
 41
0.1016
 70
0
  0
VERTEX
  8
21
 10
88.3158
 20
16.5608
 30
0.0000
  0
VERTEX
  8
21
 10
88.3158
 20
17.7302
 30
0.0000
  0
SEQEND
  8
0
  0
POLYLINE
  8
21
 66
1
 10
0.0000
 20
0.0000
 30
0.0000
 40
0.0508
 41
0.0508
 70
0
  0
VERTEX
  8
21
 10
88.3412
 20
17.7302
 30
0.0000
 42
1.0000
  0
VERTEX
  8
21
 10
88.2904
 20
17.7302
 30
0.0000
  0
SEQEND
  8
0
  0
POLYLINE
  8
21
 66
1
 10
0.0000
 20
0.0000
 30
0.0000
 40
0.0508
 41
0.0508
 70
0
  0
VERTEX
  8
21
 10
88.2904
 20
16.5608
 30
0.0000
 42
1.0000
  0
VERTEX
  8
21
 10
88.3412
 20
16.5608
 30
0.0000
  0
SEQEND
  8
0
  0
POLYLINE
  8
21
 66
1
 10
0.0000
 20
0.0000
 30
0.0000
 40
0.1016
 41
0.1016
 70
0
  0
VERTEX
  8
21
 10
88.3158
 20
17.7302
 30
0.0000
  0
VERTEX
  8
21
 10
88.9005
 20
17.7302
 30
0.0000
  0
SEQEND
  8
0
  0
POLYLINE
  8
21
 66
1
 10
0.0000
 20
0.0000
 30
0.0000
 40
0.0508
 41
0.0508
 70
0
  0
VERTEX
  8
21
 10
88.9005
 20
17.7048
 30
0.0000
 42
1.0000
  0
VERTEX
  8
21
 10
88.9005
 20
17.7556
 30
0.0000
  0
SEQEND
  8
0
  0
POLYLINE
  8
21
 66
1
 10
0.0000
 20
0.0000
 30
0.0000
 40
0.0508
 41
0.0508
 70
0
  0
VERTEX
  8
21
 10
88.3158
 20
17.7556
 30
0.0000
 42
1.0000
  0
VERTEX
  8
21
 10
88.3158
 20
17.7048
 30
0.0000
  0
SEQEND
  8
0
  0
POLYLINE
  8
21
 66
1
 10
0.0000
 20
0.0000
 30
0.0000
 40
0.1016
 41
0.1016
 70
0
  0
VERTEX
  8
21
 10
88.9005
 20
17.7302
 30
0.0000
  0
VERTEX
  8
21
 10
89.0954
 20
17.5353
 30
0.0000
  0
SEQEND
  8
0
  0
POLYLINE
  8
21
 66
1
 10
0.0000
 20
0.0000
 30
0.0000
 40
0.0508
 41
0.0508
 70
0
  0
VERTEX
  8
21
 10
89.0774
 20
17.5173
 30
0.0000
 42
1.0000
  0
VERTEX
  8
21
 10
89.1134
 20
17.5533
 30
0.0000
  0
SEQEND
  8
0
  0
POLYLINE
  8
21
 66
1
 10
0.0000
 20
0.0000
 30
0.0000
 40
0.0508
 41
0.0508
 70
0
  0
VERTEX
  8
21
 10
88.9185
 20
17.7482
 30
0.0000
 42
1.0000
  0
VERTEX
  8
21
 10
88.8825
 20
17.7122
 30
0.0000
  0
SEQEND
  8
0
  0
POLYLINE
  8
21
 66
1
 10
0.0000
 20
0.0000
 30
0.0000
 40
0.1016
 41
0.1016
 70
0
  0
VERTEX
  8
21
 10
89.0954
 20
17.5353
 30
0.0000
  0
VERTEX
  8
21
 10
89.0954
 20
17.1455
 30
0.0000
  0
SEQEND
  8
0
  0
POLYLINE
  8
21
 66
1
 10
0.0000
 20
0.0000
 30
0.0000
 40
0.0508
 41
0.0508
 70
0
  0
VERTEX
  8
21
 10
89.0700
 20
17.1455
 30
0.0000
 42
1.0000
  0
VERTEX
  8
21
 10
89.1208
 20
17.1455
 30
0.0000
  0
SEQEND
  8
0
  0
POLYLINE
  8
21
 66
1
 10
0.0000
 20
0.0000
 30
0.0000
 40
0.0508
 41
0.0508
 70
0
  0
VERTEX
  8
21
 10
89.1208
 20
17.5353
 30
0.0000
 42
1.0000
  0
VERTEX
  8
21
 10
89.0700
 20
17.5353
 30
0.0000
  0
SEQEND
  8
0
  0
POLYLINE
  8
21
 66
1
 10
0.0000
 20
0.0000
 30
0.0000
 40
0.1016
 41
0.1016
 70
0
  0
VERTEX
  8
21
 10
89.0954
 20
17.1455
 30
0.0000
  0
VERTEX
  8
21
 10
88.9005
 20
16.9506
 30
0.0000
  0
SEQEND
  8
0
  0
POLYLINE
  8
21
 66
1
 10
0.0000
 20
0.0000
 30
0.0000
 40
0.0508
 41
0.0508
 70
0
  0
VERTEX
  8
21
 10
88.8825
 20
16.9686
 30
0.0000
 42
1.0000
  0
VERTEX
  8
21
 10
88.9185
 20
16.9326
 30
0.0000
  0
SEQEND
  8
0
  0
POLYLINE
  8
21
 66
1
 10
0.0000
 20
0.0000
 30
0.0000
 40
0.0508
 41
0.0508
 70
0
  0
VERTEX
  8
21
 10
89.1134
 20
17.1275
 30
0.0000
 42
1.0000
  0
VERTEX
  8
21
 10
89.0774
 20
17.1635
 30
0.0000
  0
SEQEND
  8
0
  0
POLYLINE
  8
21
 66
1
 10
0.0000
 20
0.0000
 30
0.0000
 40
0.1016
 41
0.1016
 70
0
  0
VERTEX
  8
21
 10
88.9005
 20
16.9506
 30
0.0000
  0
VERTEX
  8
21
 10
88.3158
 20
16.9506
 30
0.0000
  0
SEQEND
  8
0
  0
POLYLINE
  8
21
 66
1
 10
0.0000
 20
0.0000
 30
0.0000
 40
0.0508
 41
0.0508
 70
0
  0
VERTEX
  8
21
 10
88.3158
 20
16.9760
 30
0.0000
 42
1.0000
  0
VERTEX
  8
21
 10
88.3158
 20
16.9252
 30
0.0000
  0
SEQEND
  8
0
  0
POLYLINE
  8
21
 66
1
 10
0.0000
 20
0.0000
 30
0.0000
 40
0.0508
 41
0.0508
 70
0
  0
VERTEX
  8
21
 10
88.9005
 20
16.9252
 30
0.0000
 42
1.0000
  0
VERTEX
  8
21
 10
88.9005
 20
16.9760
 30
0.0000
  0
SEQEND
  8
0
  0
POLYLINE
  8
21
 66
1
 10
0.0000
 20
0.0000
 30
0.0000
 40
0.1016
 41
0.1016
 70
0
  0
VERTEX
  8
21
 10
88.7056
 20
16.9506
 30
0.0000
  0
VERTEX
  8
21
 10
89.0954
 20
16.5608
 30
0.0000
  0
SEQEND
  8
0
  0
POLYLINE
  8
21
 66
1
 10
0.0000
 20
0.0000
 30
0.0000
 40
0.0508
 41
0.0508
 70
0
  0
VERTEX
  8
21
 10
89.0774
 20
16.5428
 30
0.0000
 42
1.0000
  0
VERTEX
  8
21
 10
89.1134
 20
16.5788
 30
0.0000
  0
SEQEND
  8
0
  0
POLYLINE
  8
21
 66
1
 10
0.0000
 20
0.0000
 30
0.0000
 40
0.0508
 41
0.0508
 70
0
  0
VERTEX
  8
21
 10
88.7236
 20
16.9686
 30
0.0000
 42
1.0000
  0
VERTEX
  8
21
 10
88.6876
 20
16.9326
 30
0.0000
  0
SEQEND
  8
0
  0
POLYLINE
  8
21
 66
1
 10
0.0000
 20
0.0000
 30
0.0000
 40
0.1016
 41
0.1016
 70
0
  0
VERTEX
  8
21
 10
90.0699
 20
16.5608
 30
0.0000
  0
VERTEX
  8
21
 10
90.0699
 20
17.7302
 30
0.0000
  0
SEQEND
  8
0
  0
POLYLINE
  8
21
 66
1
 10
0.0000
 20
0.0000
 30
0.0000
 40
0.0508
 41
0.0508
 70
0
  0
VERTEX
  8
21
 10
90.0953
 20
17.7302
 30
0.0000
 42
1.0000
  0
VERTEX
  8
21
 10
90.0445
 20
17.7302
 30
0.0000
  0
SEQEND
  8
0
  0
POLYLINE
  8
21
 66
1
 10
0.0000
 20
0.0000
 30
0.0000
 40
0.0508
 41
0.0508
 70
0
  0
VERTEX
  8
21
 10
90.0445
 20
16.5608
 30
0.0000
 42
1.0000
  0
VERTEX
  8
21
 10
90.0953
 20
16.5608
 30
0.0000
  0
SEQEND
  8
0
  0
POLYLINE
  8
21
 66
1
 10
0.0000
 20
0.0000
 30
0.0000
 40
0.1016
 41
0.1016
 70
0
  0
VERTEX
  8
21
 10
90.0699
 20
17.7302
 30
0.0000
  0
VERTEX
  8
21
 10
89.4852
 20
17.1455
 30
0.0000
  0
SEQEND
  8
0
  0
POLYLINE
  8
21
 66
1
 10
0.0000
 20
0.0000
 30
0.0000
 40
0.0508
 41
0.0508
 70
0
  0
VERTEX
  8
21
 10
89.4672
 20
17.1635
 30
0.0000
 42
1.0000
  0
VERTEX
  8
21
 10
89.5032
 20
17.1275
 30
0.0000
  0
SEQEND
  8
0
  0
POLYLINE
  8
21
 66
1
 10
0.0000
 20
0.0000
 30
0.0000
 40
0.0508
 41
0.0508
 70
0
  0
VERTEX
  8
21
 10
90.0879
 20
17.7122
 30
0.0000
 42
1.0000
  0
VERTEX
  8
21
 10
90.0519
 20
17.7482
 30
0.0000
  0
SEQEND
  8
0
  0
POLYLINE
  8
21
 66
1
 10
0.0000
 20
0.0000
 30
0.0000
 40
0.1016
 41
0.1016
 70
0
  0
VERTEX
  8
21
 10
89.4852
 20
17.1455
 30
0.0000
  0
VERTEX
  8
21
 10
90.2648
 20
17.1455
 30
0.0000
  0
SEQEND
  8
0
  0
POLYLINE
  8
21
 66
1
 10
0.0000
 20
0.0000
 30
0.0000
 40
0.0508
 41
0.0508
 70
0
  0
VERTEX
  8
21
 10
90.2648
 20
17.1201
 30
0.0000
 42
1.0000
  0
VERTEX
  8
21
 10
90.2648
 20
17.1709
 30
0.0000
  0
SEQEND
  8
0
  0
POLYLINE
  8
21
 66
1
 10
0.0000
 20
0.0000
 30
0.0000
 40
0.0508
 41
0.0508
 70
0
  0
VERTEX
  8
21
 10
89.4852
 20
17.1709
 30
0.0000
 42
1.0000
  0
VERTEX
  8
21
 10
89.4852
 20
17.1201
 30
0.0000
  0
SEQEND
  8
0
  0
POINT
  8
23
 10
50.8000
 20
34.9250
 30
0.0000
  0
POLYLINE
  8
21
 66
1
 10
0.0000
 20
0.0000
 30
0.0000
 40
0.1270
 41
0.1270
 70
0
  0
VERTEX
  8
21
 10
46.5500
 20
39.7750
 30
0.0000
  0
VERTEX
  8
21
 10
55.0500
 20
39.7750
 30
0.0000
  0
SEQEND
  8
0
  0
POLYLINE
  8
21
 66
1
 10
0.0000
 20
0.0000
 30
0.0000
 40
0.0635
 41
0.0635
 70
0
  0
VERTEX
  8
21
 10
55.0500
 20
39.7432
 30
0.0000
 42
1.0000
  0
VERTEX
  8
21
 10
55.0500
 20
39.8068
 30
0.0000
  0
SEQEND
  8
0
  0
POLYLINE
  8
21
 66
1
 10
0.0000
 20
0.0000
 30
0.0000
 40
0.0635
 41
0.0635
 70
0
  0
VERTEX
  8
21
 10
46.5500
 20
39.8068
 30
0.0000
 42
1.0000
  0
VERTEX
  8
21
 10
46.5500
 20
39.7432
 30
0.0000
  0
SEQEND
  8
0
  0
POLYLINE
  8
21
 66
1
 10
0.0000
 20
0.0000
 30
0.0000
 40
0.1270
 41
0.1270
 70
0
  0
VERTEX
  8
21
 10
55.0500
 20
39.7750
 30
0.0000
  0
VERTEX
  8
21
 10
55.0500
 20
28.4250
 30
0.0000
  0
SEQEND
  8
0
  0
POLYLINE
  8
21
 66
1
 10
0.0000
 20
0.0000
 30
0.0000
 40
0.0635
 41
0.0635
 70
0
  0
VERTEX
  8
21
 10
55.0183
 20
28.4250
 30
0.0000
 42
1.0000
  0
VERTEX
  8
21
 10
55.0818
 20
28.4250
 30
0.0000
  0
SEQEND
  8
0
  0
POLYLINE
  8
21
 66
1
 10
0.0000
 20
0.0000
 30
0.0000
 40
0.0635
 41
0.0635
 70
0
  0
VERTEX
  8
21
 10
55.0818
 20
39.7750
 30
0.0000
 42
1.0000
  0
VERTEX
  8
21
 10
55.0183
 20
39.7750
 30
0.0000
  0
SEQEND
  8
0
  0
POLYLINE
  8
21
 66
1
 10
0.0000
 20
0.0000
 30
0.0000
 40
0.1270
 41
0.1270
 70
0
  0
VERTEX
  8
21
 10
55.0500
 20
28.4250
 30
0.0000
  0
VERTEX
  8
21
 10
46.5500
 20
28.4250
 30
0.0000
  0
SEQEND
  8
0
  0
POLYLINE
  8
21
 66
1
 10
0.0000
 20
0.0000
 30
0.0000
 40
0.0635
 41
0.0635
 70
0
  0
VERTEX
  8
21
 10
46.5500
 20
28.4567
 30
0.0000
 42
1.0000
  0
VERTEX
  8
21
 10
46.5500
 20
28.3933
 30
0.0000
  0
SEQEND
  8
0
  0
POLYLINE
  8
21
 66
1
 10
0.0000
 20
0.0000
 30
0.0000
 40
0.0635
 41
0.0635
 70
0
  0
VERTEX
  8
21
 10
55.0500
 20
28.3933
 30
0.0000
 42
1.0000
  0
VERTEX
  8
21
 10
55.0500
 20
28.4567
 30
0.0000
  0
SEQEND
  8
0
  0
POLYLINE
  8
21
 66
1
 10
0.0000
 20
0.0000
 30
0.0000
 40
0.1270
 41
0.1270
 70
0
  0
VERTEX
  8
21
 10
46.5500
 20
28.4250
 30
0.0000
  0
VERTEX
  8
21
 10
46.5500
 20
39.7750
 30
0.0000
  0
SEQEND
  8
0
  0
POLYLINE
  8
21
 66
1
 10
0.0000
 20
0.0000
 30
0.0000
 40
0.0635
 41
0.0635
 70
0
  0
VERTEX
  8
21
 10
46.5818
 20
39.7750
 30
0.0000
 42
1.0000
  0
VERTEX
  8
21
 10
46.5183
 20
39.7750
 30
0.0000
  0
SEQEND
  8
0
  0
POLYLINE
  8
21
 66
1
 10
0.0000
 20
0.0000
 30
0.0000
 40
0.0635
 41
0.0635
 70
0
  0
VERTEX
  8
21
 10
46.5183
 20
28.4250
 30
0.0000
 42
1.0000
  0
VERTEX
  8
21
 10
46.5818
 20
28.4250
 30
0.0000
  0
SEQEND
  8
0
  0
POLYLINE
  8
21
 66
1
 10
0.0000
 20
0.0000
 30
0.0000
 40
0.2032
 41
0.2032
 70
0
  0
VERTEX
  8
21
 10
51.9000
 20
34.3000
 30
0.0000
 42
1.7183
  0
VERTEX
  8
21
 10
49.7000
 20
34.3000
 30
0.0000
  0
SEQEND
  8
0
  0
POLYLINE
  8
21
 66
1
 10
0.0000
 20
0.0000
 30
0.0000
 40
0.1016
 41
0.1016
 70
0
  0
VERTEX
  8
21
 10
51.8558
 20
34.3251
 30
0.0000
 42
1.0000
  0
VERTEX
  8
21
 10
51.9442
 20
34.2749
 30
0.0000
  0
SEQEND
  8
0
  0
POLYLINE
  8
21
 66
1
 10
0.0000
 20
0.0000
 30
0.0000
 40
0.1016
 41
0.1016
 70
0
  0
VERTEX
  8
21
 10
49.6558
 20
34.2749
 30
0.0000
 42
1.0000
  0
VERTEX
  8
21
 10
49.7442
 20
34.3251
 30
0.0000
  0
SEQEND
  8
0
  0
POLYLINE
  8
21
 66
1
 10
0.0000
 20
0.0000
 30
0.0000
 40
0.2032
 41
0.2032
 70
0
  0
VERTEX
  8
21
 10
51.9000
 20
34.3000
 30
0.0000
  0
VERTEX
  8
21
 10
49.7000
 20
34.3000
 30
0.0000
  0
SEQEND
  8
0
  0
POLYLINE
  8
21
 66
1
 10
0.0000
 20
0.0000
 30
0.0000
 40
0.1016
 41
0.1016
 70
0
  0
VERTEX
  8
21
 10
49.7000
 20
34.3508
 30
0.0000
 42
1.0000
  0
VERTEX
  8
21
 10
49.7000
 20
34.2492
 30
0.0000
  0
SEQEND
  8
0
  0
POLYLINE
  8
21
 66
1
 10
0.0000
 20
0.0000
 30
0.0000
 40
0.1016
 41
0.1016
 70
0
  0
VERTEX
  8
21
 10
51.9000
 20
34.2492
 30
0.0000
 42
1.0000
  0
VERTEX
  8
21
 10
51.9000
 20
34.3508
 30
0.0000
  0
SEQEND
  8
0
  0
POLYLINE
  8
21
 66
1
 10
0.0000
 20
0.0000
 30
0.0000
 40
0.2032
 41
0.2032
 70
0
  0
VERTEX
  8
21
 10
53.2500
 20
34.3000
 30
0.0000
  0
VERTEX
  8
21
 10
48.3750
 20
34.3000
 30
0.0000
  0
SEQEND
  8
0
  0
POLYLINE
  8
21
 66
1
 10
0.0000
 20
0.0000
 30
0.0000
 40
0.1016
 41
0.1016
 70
0
  0
VERTEX
  8
21
 10
48.3750
 20
34.3508
 30
0.0000
 42
1.0000
  0
VERTEX
  8
21
 10
48.3750
 20
34.2492
 30
0.0000
  0
SEQEND
  8
0
  0
POLYLINE
  8
21
 66
1
 10
0.0000
 20
0.0000
 30
0.0000
 40
0.1016
 41
0.1016
 70
0
  0
VERTEX
  8
21
 10
53.2500
 20
34.2492
 30
0.0000
 42
1.0000
  0
VERTEX
  8
21
 10
53.2500
 20
34.3508
 30
0.0000
  0
SEQEND
  8
0
  0
POLYLINE
  8
21
 66
1
 10
0.0000
 20
0.0000
 30
0.0000
 40
0.2032
 41
0.2032
 70
0
  0
VERTEX
  8
21
 10
50.8000
 20
32.3850
 30
0.0000
 42
1.0000
  0
VERTEX
  8
21
 10
50.8000
 20
37.4650
 30
0.0000
 42
1.0000
  0
VERTEX
  8
21
 10
50.8000
 20
32.3850
 30
0.0000
  0
SEQEND
  8
0
  0
INSERT
  8
17
  2
OCTAGONP
 10
53.3000
 20
27.4250
 30
0.0000
 41
1.8796
 42
1.8796
 43
1.0000
 50
90.0000
  0
INSERT
  8
17
  2
OCTAGONP
 10
53.3000
 20
27.4250
 30
0.0000
 41
1.8796
 42
1.8796
 43
1.0000
 50
90.0000
  0
INSERT
  8
17
  2
OCTAGONP
 10
50.8000
 20
27.4250
 30
0.0000
 41
1.8796
 42
1.8796
 43
1.0000
 50
90.0000
  0
INSERT
  8
17
  2
OCTAGONP
 10
50.8000
 20
27.4250
 30
0.0000
 41
1.8796
 42
1.8796
 43
1.0000
 50
90.0000
  0
INSERT
  8
17
  2
OCTAGONP
 10
48.3000
 20
27.4250
 30
0.0000
 41
1.8796
 42
1.8796
 43
1.0000
 50
90.0000
  0
INSERT
  8
17
  2
OCTAGONP
 10
48.3000
 20
27.4250
 30
0.0000
 41
1.8796
 42
1.8796
 43
1.0000
 50
90.0000
  0
INSERT
  8
17
  2
LONGP100
 10
55.5000
 20
34.9250
 30
0.0000
 41
1.6002
 42
1.6002
 43
1.0000
 50
180.0000
  0
INSERT
  8
17
  2
LONGP100
 10
55.5000
 20
34.9250
 30
0.0000
 41
1.6002
 42
1.6002
 43
1.0000
 50
180.0000
  0
INSERT
  8
17
  2
LONGP100
 10
46.1000
 20
34.9250
 30
0.0000
 41
1.6002
 42
1.6002
 43
1.0000
 50
180.0000
  0
INSERT
  8
17
  2
LONGP100
 10
46.1000
 20
34.9250
 30
0.0000
 41
1.6002
 42
1.6002
 43
1.0000
 50
180.0000
  0
POLYLINE
  8
21
 66
1
 10
0.0000
 20
0.0000
 30
0.0000
 40
0.1016
 41
0.1016
 70
0
  0
VERTEX
  8
21
 10
47.0408
 20
38.7858
 30
0.0000
  0
VERTEX
  8
21
 10
47.0408
 20
39.9552
 30
0.0000
  0
SEQEND
  8
0
  0
POLYLINE
  8
21
 66
1
 10
0.0000
 20
0.0000
 30
0.0000
 40
0.0508
 41
0.0508
 70
0
  0
VERTEX
  8
21
 10
47.0662
 20
39.9552
 30
0.0000
 42
1.0000
  0
VERTEX
  8
21
 10
47.0154
 20
39.9552
 30
0.0000
  0
SEQEND
  8
0
  0
POLYLINE
  8
21
 66
1
 10
0.0000
 20
0.0000
 30
0.0000
 40
0.0508
 41
0.0508
 70
0
  0
VERTEX
  8
21
 10
47.0154
 20
38.7858
 30
0.0000
 42
1.0000
  0
VERTEX
  8
21
 10
47.0662
 20
38.7858
 30
0.0000
  0
SEQEND
  8
0
  0
POLYLINE
  8
21
 66
1
 10
0.0000
 20
0.0000
 30
0.0000
 40
0.1016
 41
0.1016
 70
0
  0
VERTEX
  8
21
 10
47.0408
 20
39.9552
 30
0.0000
  0
VERTEX
  8
21
 10
47.6255
 20
39.9552
 30
0.0000
  0
SEQEND
  8
0
  0
POLYLINE
  8
21
 66
1
 10
0.0000
 20
0.0000
 30
0.0000
 40
0.0508
 41
0.0508
 70
0
  0
VERTEX
  8
21
 10
47.6255
 20
39.9298
 30
0.0000
 42
1.0000
  0
VERTEX
  8
21
 10
47.6255
 20
39.9806
 30
0.0000
  0
SEQEND
  8
0
  0
POLYLINE
  8
21
 66
1
 10
0.0000
 20
0.0000
 30
0.0000
 40
0.0508
 41
0.0508
 70
0
  0
VERTEX
  8
21
 10
47.0408
 20
39.9806
 30
0.0000
 42
1.0000
  0
VERTEX
  8
21
 10
47.0408
 20
39.9298
 30
0.0000
  0
SEQEND
  8
0
  0
POLYLINE
  8
21
 66
1
 10
0.0000
 20
0.0000
 30
0.0000
 40
0.1016
 41
0.1016
 70
0
  0
VERTEX
  8
21
 10
47.6255
 20
39.9552
 30
0.0000
  0
VERTEX
  8
21
 10
47.8204
 20
39.7603
 30
0.0000
  0
SEQEND
  8
0
  0
POLYLINE
  8
21
 66
1
 10
0.0000
 20
0.0000
 30
0.0000
 40
0.0508
 41
0.0508
 70
0
  0
VERTEX
  8
21
 10
47.8024
 20
39.7423
 30
0.0000
 42
1.0000
  0
VERTEX
  8
21
 10
47.8384
 20
39.7783
 30
0.0000
  0
SEQEND
  8
0
  0
POLYLINE
  8
21
 66
1
 10
0.0000
 20
0.0000
 30
0.0000
 40
0.0508
 41
0.0508
 70
0
  0
VERTEX
  8
21
 10
47.6435
 20
39.9732
 30
0.0000
 42
1.0000
  0
VERTEX
  8
21
 10
47.6075
 20
39.9372
 30
0.0000
  0
SEQEND
  8
0
  0
POLYLINE
  8
21
 66
1
 10
0.0000
 20
0.0000
 30
0.0000
 40
0.1016
 41
0.1016
 70
0
  0
VERTEX
  8
21
 10
47.8204
 20
39.7603
 30
0.0000
  0
VERTEX
  8
21
 10
47.8204
 20
39.3705
 30
0.0000
  0
SEQEND
  8
0
  0
POLYLINE
  8
21
 66
1
 10
0.0000
 20
0.0000
 30
0.0000
 40
0.0508
 41
0.0508
 70
0
  0
VERTEX
  8
21
 10
47.7950
 20
39.3705
 30
0.0000
 42
1.0000
  0
VERTEX
  8
21
 10
47.8458
 20
39.3705
 30
0.0000
  0
SEQEND
  8
0
  0
POLYLINE
  8
21
 66
1
 10
0.0000
 20
0.0000
 30
0.0000
 40
0.0508
 41
0.0508
 70
0
  0
VERTEX
  8
21
 10
47.8458
 20
39.7603
 30
0.0000
 42
1.0000
  0
VERTEX
  8
21
 10
47.7950
 20
39.7603
 30
0.0000
  0
SEQEND
  8
0
  0
POLYLINE
  8
21
 66
1
 10
0.0000
 20
0.0000
 30
0.0000
 40
0.1016
 41
0.1016
 70
0
  0
VERTEX
  8
21
 10
47.8204
 20
39.3705
 30
0.0000
  0
VERTEX
  8
21
 10
47.6255
 20
39.1756
 30
0.0000
  0
SEQEND
  8
0
  0
POLYLINE
  8
21
 66
1
 10
0.0000
 20
0.0000
 30
0.0000
 40
0.0508
 41
0.0508
 70
0
  0
VERTEX
  8
21
 10
47.6075
 20
39.1936
 30
0.0000
 42
1.0000
  0
VERTEX
  8
21
 10
47.6435
 20
39.1576
 30
0.0000
  0
SEQEND
  8
0
  0
POLYLINE
  8
21
 66
1
 10
0.0000
 20
0.0000
 30
0.0000
 40
0.0508
 41
0.0508
 70
0
  0
VERTEX
  8
21
 10
47.8384
 20
39.3525
 30
0.0000
 42
1.0000
  0
VERTEX
  8
21
 10
47.8024
 20
39.3885
 30
0.0000
  0
SEQEND
  8
0
  0
POLYLINE
  8
21
 66
1
 10
0.0000
 20
0.0000
 30
0.0000
 40
0.1016
 41
0.1016
 70
0
  0
VERTEX
  8
21
 10
47.6255
 20
39.1756
 30
0.0000
  0
VERTEX
  8
21
 10
47.0408
 20
39.1756
 30
0.0000
  0
SEQEND
  8
0
  0
POLYLINE
  8
21
 66
1
 10
0.0000
 20
0.0000
 30
0.0000
 40
0.0508
 41
0.0508
 70
0
  0
VERTEX
  8
21
 10
47.0408
 20
39.2010
 30
0.0000
 42
1.0000
  0
VERTEX
  8
21
 10
47.0408
 20
39.1502
 30
0.0000
  0
SEQEND
  8
0
  0
POLYLINE
  8
21
 66
1
 10
0.0000
 20
0.0000
 30
0.0000
 40
0.0508
 41
0.0508
 70
0
  0
VERTEX
  8
21
 10
47.6255
 20
39.1502
 30
0.0000
 42
1.0000
  0
VERTEX
  8
21
 10
47.6255
 20
39.2010
 30
0.0000
  0
SEQEND
  8
0
  0
POLYLINE
  8
21
 66
1
 10
0.0000
 20
0.0000
 30
0.0000
 40
0.1016
 41
0.1016
 70
0
  0
VERTEX
  8
21
 10
47.4306
 20
39.1756
 30
0.0000
  0
VERTEX
  8
21
 10
47.8204
 20
38.7858
 30
0.0000
  0
SEQEND
  8
0
  0
POLYLINE
  8
21
 66
1
 10
0.0000
 20
0.0000
 30
0.0000
 40
0.0508
 41
0.0508
 70
0
  0
VERTEX
  8
21
 10
47.8024
 20
38.7678
 30
0.0000
 42
1.0000
  0
VERTEX
  8
21
 10
47.8384
 20
38.8038
 30
0.0000
  0
SEQEND
  8
0
  0
POLYLINE
  8
21
 66
1
 10
0.0000
 20
0.0000
 30
0.0000
 40
0.0508
 41
0.0508
 70
0
  0
VERTEX
  8
21
 10
47.4486
 20
39.1936
 30
0.0000
 42
1.0000
  0
VERTEX
  8
21
 10
47.4126
 20
39.1576
 30
0.0000
  0
SEQEND
  8
0
  0
POLYLINE
  8
21
 66
1
 10
0.0000
 20
0.0000
 30
0.0000
 40
0.1016
 41
0.1016
 70
0
  0
VERTEX
  8
21
 10
48.9898
 20
39.9552
 30
0.0000
  0
VERTEX
  8
21
 10
48.2102
 20
39.9552
 30
0.0000
  0
SEQEND
  8
0
  0
POLYLINE
  8
21
 66
1
 10
0.0000
 20
0.0000
 30
0.0000
 40
0.0508
 41
0.0508
 70
0
  0
VERTEX
  8
21
 10
48.2102
 20
39.9806
 30
0.0000
 42
1.0000
  0
VERTEX
  8
21
 10
48.2102
 20
39.9298
 30
0.0000
  0
SEQEND
  8
0
  0
POLYLINE
  8
21
 66
1
 10
0.0000
 20
0.0000
 30
0.0000
 40
0.0508
 41
0.0508
 70
0
  0
VERTEX
  8
21
 10
48.9898
 20
39.9298
 30
0.0000
 42
1.0000
  0
VERTEX
  8
21
 10
48.9898
 20
39.9806
 30
0.0000
  0
SEQEND
  8
0
  0
POLYLINE
  8
21
 66
1
 10
0.0000
 20
0.0000
 30
0.0000
 40
0.1016
 41
0.1016
 70
0
  0
VERTEX
  8
21
 10
48.2102
 20
39.9552
 30
0.0000
  0
VERTEX
  8
21
 10
48.2102
 20
39.3705
 30
0.0000
  0
SEQEND
  8
0
  0
POLYLINE
  8
21
 66
1
 10
0.0000
 20
0.0000
 30
0.0000
 40
0.0508
 41
0.0508
 70
0
  0
VERTEX
  8
21
 10
48.1848
 20
39.3705
 30
0.0000
 42
1.0000
  0
VERTEX
  8
21
 10
48.2356
 20
39.3705
 30
0.0000
  0
SEQEND
  8
0
  0
POLYLINE
  8
21
 66
1
 10
0.0000
 20
0.0000
 30
0.0000
 40
0.0508
 41
0.0508
 70
0
  0
VERTEX
  8
21
 10
48.2356
 20
39.9552
 30
0.0000
 42
1.0000
  0
VERTEX
  8
21
 10
48.1848
 20
39.9552
 30
0.0000
  0
SEQEND
  8
0
  0
POLYLINE
  8
21
 66
1
 10
0.0000
 20
0.0000
 30
0.0000
 40
0.1016
 41
0.1016
 70
0
  0
VERTEX
  8
21
 10
48.2102
 20
39.3705
 30
0.0000
  0
VERTEX
  8
21
 10
48.6000
 20
39.5654
 30
0.0000
  0
SEQEND
  8
0
  0
POLYLINE
  8
21
 66
1
 10
0.0000
 20
0.0000
 30
0.0000
 40
0.0508
 41
0.0508
 70
0
  0
VERTEX
  8
21
 10
48.6114
 20
39.5427
 30
0.0000
 42
1.0000
  0
VERTEX
  8
21
 10
48.5886
 20
39.5881
 30
0.0000
  0
SEQEND
  8
0
  0
POLYLINE
  8
21
 66
1
 10
0.0000
 20
0.0000
 30
0.0000
 40
0.0508
 41
0.0508
 70
0
  0
VERTEX
  8
21
 10
48.1988
 20
39.3932
 30
0.0000
 42
1.0000
  0
VERTEX
  8
21
 10
48.2216
 20
39.3478
 30
0.0000
  0
SEQEND
  8
0
  0
POLYLINE
  8
21
 66
1
 10
0.0000
 20
0.0000
 30
0.0000
 40
0.1016
 41
0.1016
 70
0
  0
VERTEX
  8
21
 10
48.6000
 20
39.5654
 30
0.0000
  0
VERTEX
  8
21
 10
48.7949
 20
39.5654
 30
0.0000
  0
SEQEND
  8
0
  0
POLYLINE
  8
21
 66
1
 10
0.0000
 20
0.0000
 30
0.0000
 40
0.0508
 41
0.0508
 70
0
  0
VERTEX
  8
21
 10
48.7949
 20
39.5400
 30
0.0000
 42
1.0000
  0
VERTEX
  8
21
 10
48.7949
 20
39.5908
 30
0.0000
  0
SEQEND
  8
0
  0
POLYLINE
  8
21
 66
1
 10
0.0000
 20
0.0000
 30
0.0000
 40
0.0508
 41
0.0508
 70
0
  0
VERTEX
  8
21
 10
48.6000
 20
39.5908
 30
0.0000
 42
1.0000
  0
VERTEX
  8
21
 10
48.6000
 20
39.5400
 30
0.0000
  0
SEQEND
  8
0
  0
POLYLINE
  8
21
 66
1
 10
0.0000
 20
0.0000
 30
0.0000
 40
0.1016
 41
0.1016
 70
0
  0
VERTEX
  8
21
 10
48.7949
 20
39.5654
 30
0.0000
  0
VERTEX
  8
21
 10
48.9898
 20
39.3705
 30
0.0000
  0
SEQEND
  8
0
  0
POLYLINE
  8
21
 66
1
 10
0.0000
 20
0.0000
 30
0.0000
 40
0.0508
 41
0.0508
 70
0
  0
VERTEX
  8
21
 10
48.9718
 20
39.3525
 30
0.0000
 42
1.0000
  0
VERTEX
  8
21
 10
49.0078
 20
39.3885
 30
0.0000
  0
SEQEND
  8
0
  0
POLYLINE
  8
21
 66
1
 10
0.0000
 20
0.0000
 30
0.0000
 40
0.0508
 41
0.0508
 70
0
  0
VERTEX
  8
21
 10
48.8129
 20
39.5834
 30
0.0000
 42
1.0000
  0
VERTEX
  8
21
 10
48.7769
 20
39.5474
 30
0.0000
  0
SEQEND
  8
0
  0
POLYLINE
  8
21
 66
1
 10
0.0000
 20
0.0000
 30
0.0000
 40
0.1016
 41
0.1016
 70
0
  0
VERTEX
  8
21
 10
48.9898
 20
39.3705
 30
0.0000
  0
VERTEX
  8
21
 10
48.9898
 20
38.9807
 30
0.0000
  0
SEQEND
  8
0
  0
POLYLINE
  8
21
 66
1
 10
0.0000
 20
0.0000
 30
0.0000
 40
0.0508
 41
0.0508
 70
0
  0
VERTEX
  8
21
 10
48.9644
 20
38.9807
 30
0.0000
 42
1.0000
  0
VERTEX
  8
21
 10
49.0152
 20
38.9807
 30
0.0000
  0
SEQEND
  8
0
  0
POLYLINE
  8
21
 66
1
 10
0.0000
 20
0.0000
 30
0.0000
 40
0.0508
 41
0.0508
 70
0
  0
VERTEX
  8
21
 10
49.0152
 20
39.3705
 30
0.0000
 42
1.0000
  0
VERTEX
  8
21
 10
48.9644
 20
39.3705
 30
0.0000
  0
SEQEND
  8
0
  0
POLYLINE
  8
21
 66
1
 10
0.0000
 20
0.0000
 30
0.0000
 40
0.1016
 41
0.1016
 70
0
  0
VERTEX
  8
21
 10
48.9898
 20
38.9807
 30
0.0000
  0
VERTEX
  8
21
 10
48.7949
 20
38.7858
 30
0.0000
  0
SEQEND
  8
0
  0
POLYLINE
  8
21
 66
1
 10
0.0000
 20
0.0000
 30
0.0000
 40
0.0508
 41
0.0508
 70
0
  0
VERTEX
  8
21
 10
48.7769
 20
38.8038
 30
0.0000
 42
1.0000
  0
VERTEX
  8
21
 10
48.8129
 20
38.7678
 30
0.0000
  0
SEQEND
  8
0
  0
POLYLINE
  8
21
 66
1
 10
0.0000
 20
0.0000
 30
0.0000
 40
0.0508
 41
0.0508
 70
0
  0
VERTEX
  8
21
 10
49.0078
 20
38.9627
 30
0.0000
 42
1.0000
  0
VERTEX
  8
21
 10
48.9718
 20
38.9987
 30
0.0000
  0
SEQEND
  8
0
  0
POLYLINE
  8
21
 66
1
 10
0.0000
 20
0.0000
 30
0.0000
 40
0.1016
 41
0.1016
 70
0
  0
VERTEX
  8
21
 10
48.7949
 20
38.7858
 30
0.0000
  0
VERTEX
  8
21
 10
48.4051
 20
38.7858
 30
0.0000
  0
SEQEND
  8
0
  0
POLYLINE
  8
21
 66
1
 10
0.0000
 20
0.0000
 30
0.0000
 40
0.0508
 41
0.0508
 70
0
  0
VERTEX
  8
21
 10
48.4051
 20
38.8112
 30
0.0000
 42
1.0000
  0
VERTEX
  8
21
 10
48.4051
 20
38.7604
 30
0.0000
  0
SEQEND
  8
0
  0
POLYLINE
  8
21
 66
1
 10
0.0000
 20
0.0000
 30
0.0000
 40
0.0508
 41
0.0508
 70
0
  0
VERTEX
  8
21
 10
48.7949
 20
38.7604
 30
0.0000
 42
1.0000
  0
VERTEX
  8
21
 10
48.7949
 20
38.8112
 30
0.0000
  0
SEQEND
  8
0
  0
POLYLINE
  8
21
 66
1
 10
0.0000
 20
0.0000
 30
0.0000
 40
0.1016
 41
0.1016
 70
0
  0
VERTEX
  8
21
 10
48.4051
 20
38.7858
 30
0.0000
  0
VERTEX
  8
21
 10
48.2102
 20
38.9807
 30
0.0000
  0
SEQEND
  8
0
  0
POLYLINE
  8
21
 66
1
 10
0.0000
 20
0.0000
 30
0.0000
 40
0.0508
 41
0.0508
 70
0
  0
VERTEX
  8
21
 10
48.2282
 20
38.9987
 30
0.0000
 42
1.0000
  0
VERTEX
  8
21
 10
48.1922
 20
38.9627
 30
0.0000
  0
SEQEND
  8
0
  0
POLYLINE
  8
21
 66
1
 10
0.0000
 20
0.0000
 30
0.0000
 40
0.0508
 41
0.0508
 70
0
  0
VERTEX
  8
21
 10
48.3871
 20
38.7678
 30
0.0000
 42
1.0000
  0
VERTEX
  8
21
 10
48.4231
 20
38.8038
 30
0.0000
  0
SEQEND
  8
0
  0
POINT
  8
23
 10
76.2000
 20
34.9250
 30
0.0000
  0
POLYLINE
  8
21
 66
1
 10
0.0000
 20
0.0000
 30
0.0000
 40
0.1270
 41
0.1270
 70
0
  0
VERTEX
  8
21
 10
71.9500
 20
39.7750
 30
0.0000
  0
VERTEX
  8
21
 10
80.4500
 20
39.7750
 30
0.0000
  0
SEQEND
  8
0
  0
POLYLINE
  8
21
 66
1
 10
0.0000
 20
0.0000
 30
0.0000
 40
0.0635
 41
0.0635
 70
0
  0
VERTEX
  8
21
 10
80.4500
 20
39.7432
 30
0.0000
 42
1.0000
  0
VERTEX
  8
21
 10
80.4500
 20
39.8068
 30
0.0000
  0
SEQEND
  8
0
  0
POLYLINE
  8
21
 66
1
 10
0.0000
 20
0.0000
 30
0.0000
 40
0.0635
 41
0.0635
 70
0
  0
VERTEX
  8
21
 10
71.9500
 20
39.8068
 30
0.0000
 42
1.0000
  0
VERTEX
  8
21
 10
71.9500
 20
39.7432
 30
0.0000
  0
SEQEND
  8
0
  0
POLYLINE
  8
21
 66
1
 10
0.0000
 20
0.0000
 30
0.0000
 40
0.1270
 41
0.1270
 70
0
  0
VERTEX
  8
21
 10
80.4500
 20
39.7750
 30
0.0000
  0
VERTEX
  8
21
 10
80.4500
 20
28.4250
 30
0.0000
  0
SEQEND
  8
0
  0
POLYLINE
  8
21
 66
1
 10
0.0000
 20
0.0000
 30
0.0000
 40
0.0635
 41
0.0635
 70
0
  0
VERTEX
  8
21
 10
80.4183
 20
28.4250
 30
0.0000
 42
1.0000
  0
VERTEX
  8
21
 10
80.4818
 20
28.4250
 30
0.0000
  0
SEQEND
  8
0
  0
POLYLINE
  8
21
 66
1
 10
0.0000
 20
0.0000
 30
0.0000
 40
0.0635
 41
0.0635
 70
0
  0
VERTEX
  8
21
 10
80.4818
 20
39.7750
 30
0.0000
 42
1.0000
  0
VERTEX
  8
21
 10
80.4183
 20
39.7750
 30
0.0000
  0
SEQEND
  8
0
  0
POLYLINE
  8
21
 66
1
 10
0.0000
 20
0.0000
 30
0.0000
 40
0.1270
 41
0.1270
 70
0
  0
VERTEX
  8
21
 10
80.4500
 20
28.4250
 30
0.0000
  0
VERTEX
  8
21
 10
71.9500
 20
28.4250
 30
0.0000
  0
SEQEND
  8
0
  0
POLYLINE
  8
21
 66
1
 10
0.0000
 20
0.0000
 30
0.0000
 40
0.0635
 41
0.0635
 70
0
  0
VERTEX
  8
21
 10
71.9500
 20
28.4567
 30
0.0000
 42
1.0000
  0
VERTEX
  8
21
 10
71.9500
 20
28.3933
 30
0.0000
  0
SEQEND
  8
0
  0
POLYLINE
  8
21
 66
1
 10
0.0000
 20
0.0000
 30
0.0000
 40
0.0635
 41
0.0635
 70
0
  0
VERTEX
  8
21
 10
80.4500
 20
28.3933
 30
0.0000
 42
1.0000
  0
VERTEX
  8
21
 10
80.4500
 20
28.4567
 30
0.0000
  0
SEQEND
  8
0
  0
POLYLINE
  8
21
 66
1
 10
0.0000
 20
0.0000
 30
0.0000
 40
0.1270
 41
0.1270
 70
0
  0
VERTEX
  8
21
 10
71.9500
 20
28.4250
 30
0.0000
  0
VERTEX
  8
21
 10
71.9500
 20
39.7750
 30
0.0000
  0
SEQEND
  8
0
  0
POLYLINE
  8
21
 66
1
 10
0.0000
 20
0.0000
 30
0.0000
 40
0.0635
 41
0.0635
 70
0
  0
VERTEX
  8
21
 10
71.9818
 20
39.7750
 30
0.0000
 42
1.0000
  0
VERTEX
  8
21
 10
71.9183
 20
39.7750
 30
0.0000
  0
SEQEND
  8
0
  0
POLYLINE
  8
21
 66
1
 10
0.0000
 20
0.0000
 30
0.0000
 40
0.0635
 41
0.0635
 70
0
  0
VERTEX
  8
21
 10
71.9183
 20
28.4250
 30
0.0000
 42
1.0000
  0
VERTEX
  8
21
 10
71.9818
 20
28.4250
 30
0.0000
  0
SEQEND
  8
0
  0
POLYLINE
  8
21
 66
1
 10
0.0000
 20
0.0000
 30
0.0000
 40
0.2032
 41
0.2032
 70
0
  0
VERTEX
  8
21
 10
77.3000
 20
34.3000
 30
0.0000
 42
1.7183
  0
VERTEX
  8
21
 10
75.1000
 20
34.3000
 30
0.0000
  0
SEQEND
  8
0
  0
POLYLINE
  8
21
 66
1
 10
0.0000
 20
0.0000
 30
0.0000
 40
0.1016
 41
0.1016
 70
0
  0
VERTEX
  8
21
 10
77.2558
 20
34.3251
 30
0.0000
 42
1.0000
  0
VERTEX
  8
21
 10
77.3442
 20
34.2749
 30
0.0000
  0
SEQEND
  8
0
  0
POLYLINE
  8
21
 66
1
 10
0.0000
 20
0.0000
 30
0.0000
 40
0.1016
 41
0.1016
 70
0
  0
VERTEX
  8
21
 10
75.0558
 20
34.2749
 30
0.0000
 42
1.0000
  0
VERTEX
  8
21
 10
75.1442
 20
34.3251
 30
0.0000
  0
SEQEND
  8
0
  0
POLYLINE
  8
21
 66
1
 10
0.0000
 20
0.0000
 30
0.0000
 40
0.2032
 41
0.2032
 70
0
  0
VERTEX
  8
21
 10
77.3000
 20
34.3000
 30
0.0000
  0
VERTEX
  8
21
 10
75.1000
 20
34.3000
 30
0.0000
  0
SEQEND
  8
0
  0
POLYLINE
  8
21
 66
1
 10
0.0000
 20
0.0000
 30
0.0000
 40
0.1016
 41
0.1016
 70
0
  0
VERTEX
  8
21
 10
75.1000
 20
34.3508
 30
0.0000
 42
1.0000
  0
VERTEX
  8
21
 10
75.1000
 20
34.2492
 30
0.0000
  0
SEQEND
  8
0
  0
POLYLINE
  8
21
 66
1
 10
0.0000
 20
0.0000
 30
0.0000
 40
0.1016
 41
0.1016
 70
0
  0
VERTEX
  8
21
 10
77.3000
 20
34.2492
 30
0.0000
 42
1.0000
  0
VERTEX
  8
21
 10
77.3000
 20
34.3508
 30
0.0000
  0
SEQEND
  8
0
  0
POLYLINE
  8
21
 66
1
 10
0.0000
 20
0.0000
 30
0.0000
 40
0.2032
 41
0.2032
 70
0
  0
VERTEX
  8
21
 10
78.6500
 20
34.3000
 30
0.0000
  0
VERTEX
  8
21
 10
73.7750
 20
34.3000
 30
0.0000
  0
SEQEND
  8
0
  0
POLYLINE
  8
21
 66
1
 10
0.0000
 20
0.0000
 30
0.0000
 40
0.1016
 41
0.1016
 70
0
  0
VERTEX
  8
21
 10
73.7750
 20
34.3508
 30
0.0000
 42
1.0000
  0
VERTEX
  8
21
 10
73.7750
 20
34.2492
 30
0.0000
  0
SEQEND
  8
0
  0
POLYLINE
  8
21
 66
1
 10
0.0000
 20
0.0000
 30
0.0000
 40
0.1016
 41
0.1016
 70
0
  0
VERTEX
  8
21
 10
78.6500
 20
34.2492
 30
0.0000
 42
1.0000
  0
VERTEX
  8
21
 10
78.6500
 20
34.3508
 30
0.0000
  0
SEQEND
  8
0
  0
POLYLINE
  8
21
 66
1
 10
0.0000
 20
0.0000
 30
0.0000
 40
0.2032
 41
0.2032
 70
0
  0
VERTEX
  8
21
 10
76.2000
 20
32.3850
 30
0.0000
 42
1.0000
  0
VERTEX
  8
21
 10
76.2000
 20
37.4650
 30
0.0000
 42
1.0000
  0
VERTEX
  8
21
 10
76.2000
 20
32.3850
 30
0.0000
  0
SEQEND
  8
0
  0
INSERT
  8
17
  2
OCTAGONP
 10
78.7000
 20
27.4250
 30
0.0000
 41
1.8796
 42
1.8796
 43
1.0000
 50
90.0000
  0
INSERT
  8
17
  2
OCTAGONP
 10
78.7000
 20
27.4250
 30
0.0000
 41
1.8796
 42
1.8796
 43
1.0000
 50
90.0000
  0
INSERT
  8
17
  2
OCTAGONP
 10
76.2000
 20
27.4250
 30
0.0000
 41
1.8796
 42
1.8796
 43
1.0000
 50
90.0000
  0
INSERT
  8
17
  2
OCTAGONP
 10
76.2000
 20
27.4250
 30
0.0000
 41
1.8796
 42
1.8796
 43
1.0000
 50
90.0000
  0
INSERT
  8
17
  2
OCTAGONP
 10
73.7000
 20
27.4250
 30
0.0000
 41
1.8796
 42
1.8796
 43
1.0000
 50
90.0000
  0
INSERT
  8
17
  2
OCTAGONP
 10
73.7000
 20
27.4250
 30
0.0000
 41
1.8796
 42
1.8796
 43
1.0000
 50
90.0000
  0
INSERT
  8
17
  2
LONGP100
 10
80.9000
 20
34.9250
 30
0.0000
 41
1.6002
 42
1.6002
 43
1.0000
 50
180.0000
  0
INSERT
  8
17
  2
LONGP100
 10
80.9000
 20
34.9250
 30
0.0000
 41
1.6002
 42
1.6002
 43
1.0000
 50
180.0000
  0
INSERT
  8
17
  2
LONGP100
 10
71.5000
 20
34.9250
 30
0.0000
 41
1.6002
 42
1.6002
 43
1.0000
 50
180.0000
  0
INSERT
  8
17
  2
LONGP100
 10
71.5000
 20
34.9250
 30
0.0000
 41
1.6002
 42
1.6002
 43
1.0000
 50
180.0000
  0
POLYLINE
  8
21
 66
1
 10
0.0000
 20
0.0000
 30
0.0000
 40
0.1016
 41
0.1016
 70
0
  0
VERTEX
  8
21
 10
72.4408
 20
38.7858
 30
0.0000
  0
VERTEX
  8
21
 10
72.4408
 20
39.9552
 30
0.0000
  0
SEQEND
  8
0
  0
POLYLINE
  8
21
 66
1
 10
0.0000
 20
0.0000
 30
0.0000
 40
0.0508
 41
0.0508
 70
0
  0
VERTEX
  8
21
 10
72.4662
 20
39.9552
 30
0.0000
 42
1.0000
  0
VERTEX
  8
21
 10
72.4154
 20
39.9552
 30
0.0000
  0
SEQEND
  8
0
  0
POLYLINE
  8
21
 66
1
 10
0.0000
 20
0.0000
 30
0.0000
 40
0.0508
 41
0.0508
 70
0
  0
VERTEX
  8
21
 10
72.4154
 20
38.7858
 30
0.0000
 42
1.0000
  0
VERTEX
  8
21
 10
72.4662
 20
38.7858
 30
0.0000
  0
SEQEND
  8
0
  0
POLYLINE
  8
21
 66
1
 10
0.0000
 20
0.0000
 30
0.0000
 40
0.1016
 41
0.1016
 70
0
  0
VERTEX
  8
21
 10
72.4408
 20
39.9552
 30
0.0000
  0
VERTEX
  8
21
 10
73.0255
 20
39.9552
 30
0.0000
  0
SEQEND
  8
0
  0
POLYLINE
  8
21
 66
1
 10
0.0000
 20
0.0000
 30
0.0000
 40
0.0508
 41
0.0508
 70
0
  0
VERTEX
  8
21
 10
73.0255
 20
39.9298
 30
0.0000
 42
1.0000
  0
VERTEX
  8
21
 10
73.0255
 20
39.9806
 30
0.0000
  0
SEQEND
  8
0
  0
POLYLINE
  8
21
 66
1
 10
0.0000
 20
0.0000
 30
0.0000
 40
0.0508
 41
0.0508
 70
0
  0
VERTEX
  8
21
 10
72.4408
 20
39.9806
 30
0.0000
 42
1.0000
  0
VERTEX
  8
21
 10
72.4408
 20
39.9298
 30
0.0000
  0
SEQEND
  8
0
  0
POLYLINE
  8
21
 66
1
 10
0.0000
 20
0.0000
 30
0.0000
 40
0.1016
 41
0.1016
 70
0
  0
VERTEX
  8
21
 10
73.0255
 20
39.9552
 30
0.0000
  0
VERTEX
  8
21
 10
73.2204
 20
39.7603
 30
0.0000
  0
SEQEND
  8
0
  0
POLYLINE
  8
21
 66
1
 10
0.0000
 20
0.0000
 30
0.0000
 40
0.0508
 41
0.0508
 70
0
  0
VERTEX
  8
21
 10
73.2024
 20
39.7423
 30
0.0000
 42
1.0000
  0
VERTEX
  8
21
 10
73.2384
 20
39.7783
 30
0.0000
  0
SEQEND
  8
0
  0
POLYLINE
  8
21
 66
1
 10
0.0000
 20
0.0000
 30
0.0000
 40
0.0508
 41
0.0508
 70
0
  0
VERTEX
  8
21
 10
73.0435
 20
39.9732
 30
0.0000
 42
1.0000
  0
VERTEX
  8
21
 10
73.0075
 20
39.9372
 30
0.0000
  0
SEQEND
  8
0
  0
POLYLINE
  8
21
 66
1
 10
0.0000
 20
0.0000
 30
0.0000
 40
0.1016
 41
0.1016
 70
0
  0
VERTEX
  8
21
 10
73.2204
 20
39.7603
 30
0.0000
  0
VERTEX
  8
21
 10
73.2204
 20
39.3705
 30
0.0000
  0
SEQEND
  8
0
  0
POLYLINE
  8
21
 66
1
 10
0.0000
 20
0.0000
 30
0.0000
 40
0.0508
 41
0.0508
 70
0
  0
VERTEX
  8
21
 10
73.1950
 20
39.3705
 30
0.0000
 42
1.0000
  0
VERTEX
  8
21
 10
73.2458
 20
39.3705
 30
0.0000
  0
SEQEND
  8
0
  0
POLYLINE
  8
21
 66
1
 10
0.0000
 20
0.0000
 30
0.0000
 40
0.0508
 41
0.0508
 70
0
  0
VERTEX
  8
21
 10
73.2458
 20
39.7603
 30
0.0000
 42
1.0000
  0
VERTEX
  8
21
 10
73.1950
 20
39.7603
 30
0.0000
  0
SEQEND
  8
0
  0
POLYLINE
  8
21
 66
1
 10
0.0000
 20
0.0000
 30
0.0000
 40
0.1016
 41
0.1016
 70
0
  0
VERTEX
  8
21
 10
73.2204
 20
39.3705
 30
0.0000
  0
VERTEX
  8
21
 10
73.0255
 20
39.1756
 30
0.0000
  0
SEQEND
  8
0
  0
POLYLINE
  8
21
 66
1
 10
0.0000
 20
0.0000
 30
0.0000
 40
0.0508
 41
0.0508
 70
0
  0
VERTEX
  8
21
 10
73.0075
 20
39.1936
 30
0.0000
 42
1.0000
  0
VERTEX
  8
21
 10
73.0435
 20
39.1576
 30
0.0000
  0
SEQEND
  8
0
  0
POLYLINE
  8
21
 66
1
 10
0.0000
 20
0.0000
 30
0.0000
 40
0.0508
 41
0.0508
 70
0
  0
VERTEX
  8
21
 10
73.2384
 20
39.3525
 30
0.0000
 42
1.0000
  0
VERTEX
  8
21
 10
73.2024
 20
39.3885
 30
0.0000
  0
SEQEND
  8
0
  0
POLYLINE
  8
21
 66
1
 10
0.0000
 20
0.0000
 30
0.0000
 40
0.1016
 41
0.1016
 70
0
  0
VERTEX
  8
21
 10
73.0255
 20
39.1756
 30
0.0000
  0
VERTEX
  8
21
 10
72.4408
 20
39.1756
 30
0.0000
  0
SEQEND
  8
0
  0
POLYLINE
  8
21
 66
1
 10
0.0000
 20
0.0000
 30
0.0000
 40
0.0508
 41
0.0508
 70
0
  0
VERTEX
  8
21
 10
72.4408
 20
39.2010
 30
0.0000
 42
1.0000
  0
VERTEX
  8
21
 10
72.4408
 20
39.1502
 30
0.0000
  0
SEQEND
  8
0
  0
POLYLINE
  8
21
 66
1
 10
0.0000
 20
0.0000
 30
0.0000
 40
0.0508
 41
0.0508
 70
0
  0
VERTEX
  8
21
 10
73.0255
 20
39.1502
 30
0.0000
 42
1.0000
  0
VERTEX
  8
21
 10
73.0255
 20
39.2010
 30
0.0000
  0
SEQEND
  8
0
  0
POLYLINE
  8
21
 66
1
 10
0.0000
 20
0.0000
 30
0.0000
 40
0.1016
 41
0.1016
 70
0
  0
VERTEX
  8
21
 10
72.8306
 20
39.1756
 30
0.0000
  0
VERTEX
  8
21
 10
73.2204
 20
38.7858
 30
0.0000
  0
SEQEND
  8
0
  0
POLYLINE
  8
21
 66
1
 10
0.0000
 20
0.0000
 30
0.0000
 40
0.0508
 41
0.0508
 70
0
  0
VERTEX
  8
21
 10
73.2024
 20
38.7678
 30
0.0000
 42
1.0000
  0
VERTEX
  8
21
 10
73.2384
 20
38.8038
 30
0.0000
  0
SEQEND
  8
0
  0
POLYLINE
  8
21
 66
1
 10
0.0000
 20
0.0000
 30
0.0000
 40
0.0508
 41
0.0508
 70
0
  0
VERTEX
  8
21
 10
72.8486
 20
39.1936
 30
0.0000
 42
1.0000
  0
VERTEX
  8
21
 10
72.8126
 20
39.1576
 30
0.0000
  0
SEQEND
  8
0
  0
POLYLINE
  8
21
 66
1
 10
0.0000
 20
0.0000
 30
0.0000
 40
0.1016
 41
0.1016
 70
0
  0
VERTEX
  8
21
 10
74.3898
 20
39.9552
 30
0.0000
  0
VERTEX
  8
21
 10
74.0000
 20
39.7603
 30
0.0000
  0
SEQEND
  8
0
  0
POLYLINE
  8
21
 66
1
 10
0.0000
 20
0.0000
 30
0.0000
 40
0.0508
 41
0.0508
 70
0
  0
VERTEX
  8
21
 10
73.9886
 20
39.7830
 30
0.0000
 42
1.0000
  0
VERTEX
  8
21
 10
74.0114
 20
39.7376
 30
0.0000
  0
SEQEND
  8
0
  0
POLYLINE
  8
21
 66
1
 10
0.0000
 20
0.0000
 30
0.0000
 40
0.0508
 41
0.0508
 70
0
  0
VERTEX
  8
21
 10
74.4012
 20
39.9325
 30
0.0000
 42
1.0000
  0
VERTEX
  8
21
 10
74.3784
 20
39.9779
 30
0.0000
  0
SEQEND
  8
0
  0
POLYLINE
  8
21
 66
1
 10
0.0000
 20
0.0000
 30
0.0000
 40
0.1016
 41
0.1016
 70
0
  0
VERTEX
  8
21
 10
74.0000
 20
39.7603
 30
0.0000
  0
VERTEX
  8
21
 10
73.6102
 20
39.3705
 30
0.0000
  0
SEQEND
  8
0
  0
POLYLINE
  8
21
 66
1
 10
0.0000
 20
0.0000
 30
0.0000
 40
0.0508
 41
0.0508
 70
0
  0
VERTEX
  8
21
 10
73.5922
 20
39.3885
 30
0.0000
 42
1.0000
  0
VERTEX
  8
21
 10
73.6282
 20
39.3525
 30
0.0000
  0
SEQEND
  8
0
  0
POLYLINE
  8
21
 66
1
 10
0.0000
 20
0.0000
 30
0.0000
 40
0.0508
 41
0.0508
 70
0
  0
VERTEX
  8
21
 10
74.0180
 20
39.7423
 30
0.0000
 42
1.0000
  0
VERTEX
  8
21
 10
73.9820
 20
39.7783
 30
0.0000
  0
SEQEND
  8
0
  0
POLYLINE
  8
21
 66
1
 10
0.0000
 20
0.0000
 30
0.0000
 40
0.1016
 41
0.1016
 70
0
  0
VERTEX
  8
21
 10
73.6102
 20
39.3705
 30
0.0000
  0
VERTEX
  8
21
 10
73.6102
 20
38.9807
 30
0.0000
  0
SEQEND
  8
0
  0
POLYLINE
  8
21
 66
1
 10
0.0000
 20
0.0000
 30
0.0000
 40
0.0508
 41
0.0508
 70
0
  0
VERTEX
  8
21
 10
73.5848
 20
38.9807
 30
0.0000
 42
1.0000
  0
VERTEX
  8
21
 10
73.6356
 20
38.9807
 30
0.0000
  0
SEQEND
  8
0
  0
POLYLINE
  8
21
 66
1
 10
0.0000
 20
0.0000
 30
0.0000
 40
0.0508
 41
0.0508
 70
0
  0
VERTEX
  8
21
 10
73.6356
 20
39.3705
 30
0.0000
 42
1.0000
  0
VERTEX
  8
21
 10
73.5848
 20
39.3705
 30
0.0000
  0
SEQEND
  8
0
  0
POLYLINE
  8
21
 66
1
 10
0.0000
 20
0.0000
 30
0.0000
 40
0.1016
 41
0.1016
 70
0
  0
VERTEX
  8
21
 10
73.6102
 20
38.9807
 30
0.0000
  0
VERTEX
  8
21
 10
73.8051
 20
38.7858
 30
0.0000
  0
SEQEND
  8
0
  0
POLYLINE
  8
21
 66
1
 10
0.0000
 20
0.0000
 30
0.0000
 40
0.0508
 41
0.0508
 70
0
  0
VERTEX
  8
21
 10
73.7871
 20
38.7678
 30
0.0000
 42
1.0000
  0
VERTEX
  8
21
 10
73.8231
 20
38.8038
 30
0.0000
  0
SEQEND
  8
0
  0
POLYLINE
  8
21
 66
1
 10
0.0000
 20
0.0000
 30
0.0000
 40
0.0508
 41
0.0508
 70
0
  0
VERTEX
  8
21
 10
73.6282
 20
38.9987
 30
0.0000
 42
1.0000
  0
VERTEX
  8
21
 10
73.5922
 20
38.9627
 30
0.0000
  0
SEQEND
  8
0
  0
POLYLINE
  8
21
 66
1
 10
0.0000
 20
0.0000
 30
0.0000
 40
0.1016
 41
0.1016
 70
0
  0
VERTEX
  8
21
 10
73.8051
 20
38.7858
 30
0.0000
  0
VERTEX
  8
21
 10
74.1949
 20
38.7858
 30
0.0000
  0
SEQEND
  8
0
  0
POLYLINE
  8
21
 66
1
 10
0.0000
 20
0.0000
 30
0.0000
 40
0.0508
 41
0.0508
 70
0
  0
VERTEX
  8
21
 10
74.1949
 20
38.7604
 30
0.0000
 42
1.0000
  0
VERTEX
  8
21
 10
74.1949
 20
38.8112
 30
0.0000
  0
SEQEND
  8
0
  0
POLYLINE
  8
21
 66
1
 10
0.0000
 20
0.0000
 30
0.0000
 40
0.0508
 41
0.0508
 70
0
  0
VERTEX
  8
21
 10
73.8051
 20
38.8112
 30
0.0000
 42
1.0000
  0
VERTEX
  8
21
 10
73.8051
 20
38.7604
 30
0.0000
  0
SEQEND
  8
0
  0
POLYLINE
  8
21
 66
1
 10
0.0000
 20
0.0000
 30
0.0000
 40
0.1016
 41
0.1016
 70
0
  0
VERTEX
  8
21
 10
74.1949
 20
38.7858
 30
0.0000
  0
VERTEX
  8
21
 10
74.3898
 20
38.9807
 30
0.0000
  0
SEQEND
  8
0
  0
POLYLINE
  8
21
 66
1
 10
0.0000
 20
0.0000
 30
0.0000
 40
0.0508
 41
0.0508
 70
0
  0
VERTEX
  8
21
 10
74.4078
 20
38.9627
 30
0.0000
 42
1.0000
  0
VERTEX
  8
21
 10
74.3718
 20
38.9987
 30
0.0000
  0
SEQEND
  8
0
  0
POLYLINE
  8
21
 66
1
 10
0.0000
 20
0.0000
 30
0.0000
 40
0.0508
 41
0.0508
 70
0
  0
VERTEX
  8
21
 10
74.1769
 20
38.8038
 30
0.0000
 42
1.0000
  0
VERTEX
  8
21
 10
74.2129
 20
38.7678
 30
0.0000
  0
SEQEND
  8
0
  0
POLYLINE
  8
21
 66
1
 10
0.0000
 20
0.0000
 30
0.0000
 40
0.1016
 41
0.1016
 70
0
  0
VERTEX
  8
21
 10
74.3898
 20
38.9807
 30
0.0000
  0
VERTEX
  8
21
 10
74.3898
 20
39.1756
 30
0.0000
  0
SEQEND
  8
0
  0
POLYLINE
  8
21
 66
1
 10
0.0000
 20
0.0000
 30
0.0000
 40
0.0508
 41
0.0508
 70
0
  0
VERTEX
  8
21
 10
74.4152
 20
39.1756
 30
0.0000
 42
1.0000
  0
VERTEX
  8
21
 10
74.3644
 20
39.1756
 30
0.0000
  0
SEQEND
  8
0
  0
POLYLINE
  8
21
 66
1
 10
0.0000
 20
0.0000
 30
0.0000
 40
0.0508
 41
0.0508
 70
0
  0
VERTEX
  8
21
 10
74.3644
 20
38.9807
 30
0.0000
 42
1.0000
  0
VERTEX
  8
21
 10
74.4152
 20
38.9807
 30
0.0000
  0
SEQEND
  8
0
  0
POLYLINE
  8
21
 66
1
 10
0.0000
 20
0.0000
 30
0.0000
 40
0.1016
 41
0.1016
 70
0
  0
VERTEX
  8
21
 10
74.3898
 20
39.1756
 30
0.0000
  0
VERTEX
  8
21
 10
74.1949
 20
39.3705
 30
0.0000
  0
SEQEND
  8
0
  0
POLYLINE
  8
21
 66
1
 10
0.0000
 20
0.0000
 30
0.0000
 40
0.0508
 41
0.0508
 70
0
  0
VERTEX
  8
21
 10
74.2129
 20
39.3885
 30
0.0000
 42
1.0000
  0
VERTEX
  8
21
 10
74.1769
 20
39.3525
 30
0.0000
  0
SEQEND
  8
0
  0
POLYLINE
  8
21
 66
1
 10
0.0000
 20
0.0000
 30
0.0000
 40
0.0508
 41
0.0508
 70
0
  0
VERTEX
  8
21
 10
74.3718
 20
39.1576
 30
0.0000
 42
1.0000
  0
VERTEX
  8
21
 10
74.4078
 20
39.1936
 30
0.0000
  0
SEQEND
  8
0
  0
POLYLINE
  8
21
 66
1
 10
0.0000
 20
0.0000
 30
0.0000
 40
0.1016
 41
0.1016
 70
0
  0
VERTEX
  8
21
 10
74.1949
 20
39.3705
 30
0.0000
  0
VERTEX
  8
21
 10
73.6102
 20
39.3705
 30
0.0000
  0
SEQEND
  8
0
  0
POLYLINE
  8
21
 66
1
 10
0.0000
 20
0.0000
 30
0.0000
 40
0.0508
 41
0.0508
 70
0
  0
VERTEX
  8
21
 10
73.6102
 20
39.3959
 30
0.0000
 42
1.0000
  0
VERTEX
  8
21
 10
73.6102
 20
39.3451
 30
0.0000
  0
SEQEND
  8
0
  0
POLYLINE
  8
21
 66
1
 10
0.0000
 20
0.0000
 30
0.0000
 40
0.0508
 41
0.0508
 70
0
  0
VERTEX
  8
21
 10
74.1949
 20
39.3451
 30
0.0000
 42
1.0000
  0
VERTEX
  8
21
 10
74.1949
 20
39.3959
 30
0.0000
  0
SEQEND
  8
0
  0
POINT
  8
23
 10
101.6000
 20
34.9250
 30
0.0000
  0
POLYLINE
  8
21
 66
1
 10
0.0000
 20
0.0000
 30
0.0000
 40
0.1270
 41
0.1270
 70
0
  0
VERTEX
  8
21
 10
97.3500
 20
39.7750
 30
0.0000
  0
VERTEX
  8
21
 10
105.8500
 20
39.7750
 30
0.0000
  0
SEQEND
  8
0
  0
POLYLINE
  8
21
 66
1
 10
0.0000
 20
0.0000
 30
0.0000
 40
0.0635
 41
0.0635
 70
0
  0
VERTEX
  8
21
 10
105.8500
 20
39.7432
 30
0.0000
 42
1.0000
  0
VERTEX
  8
21
 10
105.8500
 20
39.8068
 30
0.0000
  0
SEQEND
  8
0
  0
POLYLINE
  8
21
 66
1
 10
0.0000
 20
0.0000
 30
0.0000
 40
0.0635
 41
0.0635
 70
0
  0
VERTEX
  8
21
 10
97.3500
 20
39.8068
 30
0.0000
 42
1.0000
  0
VERTEX
  8
21
 10
97.3500
 20
39.7432
 30
0.0000
  0
SEQEND
  8
0
  0
POLYLINE
  8
21
 66
1
 10
0.0000
 20
0.0000
 30
0.0000
 40
0.1270
 41
0.1270
 70
0
  0
VERTEX
  8
21
 10
105.8500
 20
39.7750
 30
0.0000
  0
VERTEX
  8
21
 10
105.8500
 20
28.4250
 30
0.0000
  0
SEQEND
  8
0
  0
POLYLINE
  8
21
 66
1
 10
0.0000
 20
0.0000
 30
0.0000
 40
0.0635
 41
0.0635
 70
0
  0
VERTEX
  8
21
 10
105.8183
 20
28.4250
 30
0.0000
 42
1.0000
  0
VERTEX
  8
21
 10
105.8818
 20
28.4250
 30
0.0000
  0
SEQEND
  8
0
  0
POLYLINE
  8
21
 66
1
 10
0.0000
 20
0.0000
 30
0.0000
 40
0.0635
 41
0.0635
 70
0
  0
VERTEX
  8
21
 10
105.8818
 20
39.7750
 30
0.0000
 42
1.0000
  0
VERTEX
  8
21
 10
105.8183
 20
39.7750
 30
0.0000
  0
SEQEND
  8
0
  0
POLYLINE
  8
21
 66
1
 10
0.0000
 20
0.0000
 30
0.0000
 40
0.1270
 41
0.1270
 70
0
  0
VERTEX
  8
21
 10
105.8500
 20
28.4250
 30
0.0000
  0
VERTEX
  8
21
 10
97.3500
 20
28.4250
 30
0.0000
  0
SEQEND
  8
0
  0
POLYLINE
  8
21
 66
1
 10
0.0000
 20
0.0000
 30
0.0000
 40
0.0635
 41
0.0635
 70
0
  0
VERTEX
  8
21
 10
97.3500
 20
28.4567
 30
0.0000
 42
1.0000
  0
VERTEX
  8
21
 10
97.3500
 20
28.3933
 30
0.0000
  0
SEQEND
  8
0
  0
POLYLINE
  8
21
 66
1
 10
0.0000
 20
0.0000
 30
0.0000
 40
0.0635
 41
0.0635
 70
0
  0
VERTEX
  8
21
 10
105.8500
 20
28.3933
 30
0.0000
 42
1.0000
  0
VERTEX
  8
21
 10
105.8500
 20
28.4567
 30
0.0000
  0
SEQEND
  8
0
  0
POLYLINE
  8
21
 66
1
 10
0.0000
 20
0.0000
 30
0.0000
 40
0.1270
 41
0.1270
 70
0
  0
VERTEX
  8
21
 10
97.3500
 20
28.4250
 30
0.0000
  0
VERTEX
  8
21
 10
97.3500
 20
39.7750
 30
0.0000
  0
SEQEND
  8
0
  0
POLYLINE
  8
21
 66
1
 10
0.0000
 20
0.0000
 30
0.0000
 40
0.0635
 41
0.0635
 70
0
  0
VERTEX
  8
21
 10
97.3818
 20
39.7750
 30
0.0000
 42
1.0000
  0
VERTEX
  8
21
 10
97.3183
 20
39.7750
 30
0.0000
  0
SEQEND
  8
0
  0
POLYLINE
  8
21
 66
1
 10
0.0000
 20
0.0000
 30
0.0000
 40
0.0635
 41
0.0635
 70
0
  0
VERTEX
  8
21
 10
97.3183
 20
28.4250
 30
0.0000
 42
1.0000
  0
VERTEX
  8
21
 10
97.3818
 20
28.4250
 30
0.0000
  0
SEQEND
  8
0
  0
POLYLINE
  8
21
 66
1
 10
0.0000
 20
0.0000
 30
0.0000
 40
0.2032
 41
0.2032
 70
0
  0
VERTEX
  8
21
 10
102.7000
 20
34.3000
 30
0.0000
 42
1.7183
  0
VERTEX
  8
21
 10
100.5000
 20
34.3000
 30
0.0000
  0
SEQEND
  8
0
  0
POLYLINE
  8
21
 66
1
 10
0.0000
 20
0.0000
 30
0.0000
 40
0.1016
 41
0.1016
 70
0
  0
VERTEX
  8
21
 10
102.6558
 20
34.3251
 30
0.0000
 42
1.0000
  0
VERTEX
  8
21
 10
102.7442
 20
34.2749
 30
0.0000
  0
SEQEND
  8
0
  0
POLYLINE
  8
21
 66
1
 10
0.0000
 20
0.0000
 30
0.0000
 40
0.1016
 41
0.1016
 70
0
  0
VERTEX
  8
21
 10
100.4558
 20
34.2749
 30
0.0000
 42
1.0000
  0
VERTEX
  8
21
 10
100.5442
 20
34.3251
 30
0.0000
  0
SEQEND
  8
0
  0
POLYLINE
  8
21
 66
1
 10
0.0000
 20
0.0000
 30
0.0000
 40
0.2032
 41
0.2032
 70
0
  0
VERTEX
  8
21
 10
102.7000
 20
34.3000
 30
0.0000
  0
VERTEX
  8
21
 10
100.5000
 20
34.3000
 30
0.0000
  0
SEQEND
  8
0
  0
POLYLINE
  8
21
 66
1
 10
0.0000
 20
0.0000
 30
0.0000
 40
0.1016
 41
0.1016
 70
0
  0
VERTEX
  8
21
 10
100.5000
 20
34.3508
 30
0.0000
 42
1.0000
  0
VERTEX
  8
21
 10
100.5000
 20
34.2492
 30
0.0000
  0
SEQEND
  8
0
  0
POLYLINE
  8
21
 66
1
 10
0.0000
 20
0.0000
 30
0.0000
 40
0.1016
 41
0.1016
 70
0
  0
VERTEX
  8
21
 10
102.7000
 20
34.2492
 30
0.0000
 42
1.0000
  0
VERTEX
  8
21
 10
102.7000
 20
34.3508
 30
0.0000
  0
SEQEND
  8
0
  0
POLYLINE
  8
21
 66
1
 10
0.0000
 20
0.0000
 30
0.0000
 40
0.2032
 41
0.2032
 70
0
  0
VERTEX
  8
21
 10
104.0500
 20
34.3000
 30
0.0000
  0
VERTEX
  8
21
 10
99.1750
 20
34.3000
 30
0.0000
  0
SEQEND
  8
0
  0
POLYLINE
  8
21
 66
1
 10
0.0000
 20
0.0000
 30
0.0000
 40
0.1016
 41
0.1016
 70
0
  0
VERTEX
  8
21
 10
99.1750
 20
34.3508
 30
0.0000
 42
1.0000
  0
VERTEX
  8
21
 10
99.1750
 20
34.2492
 30
0.0000
  0
SEQEND
  8
0
  0
POLYLINE
  8
21
 66
1
 10
0.0000
 20
0.0000
 30
0.0000
 40
0.1016
 41
0.1016
 70
0
  0
VERTEX
  8
21
 10
104.0500
 20
34.2492
 30
0.0000
 42
1.0000
  0
VERTEX
  8
21
 10
104.0500
 20
34.3508
 30
0.0000
  0
SEQEND
  8
0
  0
POLYLINE
  8
21
 66
1
 10
0.0000
 20
0.0000
 30
0.0000
 40
0.2032
 41
0.2032
 70
0
  0
VERTEX
  8
21
 10
101.6000
 20
32.3850
 30
0.0000
 42
1.0000
  0
VERTEX
  8
21
 10
101.6000
 20
37.4650
 30
0.0000
 42
1.0000
  0
VERTEX
  8
21
 10
101.6000
 20
32.3850
 30
0.0000
  0
SEQEND
  8
0
  0
INSERT
  8
17
  2
OCTAGONP
 10
104.1000
 20
27.4250
 30
0.0000
 41
1.8796
 42
1.8796
 43
1.0000
 50
90.0000
  0
INSERT
  8
17
  2
OCTAGONP
 10
104.1000
 20
27.4250
 30
0.0000
 41
1.8796
 42
1.8796
 43
1.0000
 50
90.0000
  0
INSERT
  8
17
  2
OCTAGONP
 10
101.6000
 20
27.4250
 30
0.0000
 41
1.8796
 42
1.8796
 43
1.0000
 50
90.0000
  0
INSERT
  8
17
  2
OCTAGONP
 10
101.6000
 20
27.4250
 30
0.0000
 41
1.8796
 42
1.8796
 43
1.0000
 50
90.0000
  0
INSERT
  8
17
  2
OCTAGONP
 10
99.1000
 20
27.4250
 30
0.0000
 41
1.8796
 42
1.8796
 43
1.0000
 50
90.0000
  0
INSERT
  8
17
  2
OCTAGONP
 10
99.1000
 20
27.4250
 30
0.0000
 41
1.8796
 42
1.8796
 43
1.0000
 50
90.0000
  0
INSERT
  8
17
  2
LONGP100
 10
106.3000
 20
34.9250
 30
0.0000
 41
1.6002
 42
1.6002
 43
1.0000
 50
180.0000
  0
INSERT
  8
17
  2
LONGP100
 10
106.3000
 20
34.9250
 30
0.0000
 41
1.6002
 42
1.6002
 43
1.0000
 50
180.0000
  0
INSERT
  8
17
  2
LONGP100
 10
96.9000
 20
34.9250
 30
0.0000
 41
1.6002
 42
1.6002
 43
1.0000
 50
180.0000
  0
INSERT
  8
17
  2
LONGP100
 10
96.9000
 20
34.9250
 30
0.0000
 41
1.6002
 42
1.6002
 43
1.0000
 50
180.0000
  0
POLYLINE
  8
21
 66
1
 10
0.0000
 20
0.0000
 30
0.0000
 40
0.1016
 41
0.1016
 70
0
  0
VERTEX
  8
21
 10
97.8408
 20
38.7858
 30
0.0000
  0
VERTEX
  8
21
 10
97.8408
 20
39.9552
 30
0.0000
  0
SEQEND
  8
0
  0
POLYLINE
  8
21
 66
1
 10
0.0000
 20
0.0000
 30
0.0000
 40
0.0508
 41
0.0508
 70
0
  0
VERTEX
  8
21
 10
97.8662
 20
39.9552
 30
0.0000
 42
1.0000
  0
VERTEX
  8
21
 10
97.8154
 20
39.9552
 30
0.0000
  0
SEQEND
  8
0
  0
POLYLINE
  8
21
 66
1
 10
0.0000
 20
0.0000
 30
0.0000
 40
0.0508
 41
0.0508
 70
0
  0
VERTEX
  8
21
 10
97.8154
 20
38.7858
 30
0.0000
 42
1.0000
  0
VERTEX
  8
21
 10
97.8662
 20
38.7858
 30
0.0000
  0
SEQEND
  8
0
  0
POLYLINE
  8
21
 66
1
 10
0.0000
 20
0.0000
 30
0.0000
 40
0.1016
 41
0.1016
 70
0
  0
VERTEX
  8
21
 10
97.8408
 20
39.9552
 30
0.0000
  0
VERTEX
  8
21
 10
98.4255
 20
39.9552
 30
0.0000
  0
SEQEND
  8
0
  0
POLYLINE
  8
21
 66
1
 10
0.0000
 20
0.0000
 30
0.0000
 40
0.0508
 41
0.0508
 70
0
  0
VERTEX
  8
21
 10
98.4255
 20
39.9298
 30
0.0000
 42
1.0000
  0
VERTEX
  8
21
 10
98.4255
 20
39.9806
 30
0.0000
  0
SEQEND
  8
0
  0
POLYLINE
  8
21
 66
1
 10
0.0000
 20
0.0000
 30
0.0000
 40
0.0508
 41
0.0508
 70
0
  0
VERTEX
  8
21
 10
97.8408
 20
39.9806
 30
0.0000
 42
1.0000
  0
VERTEX
  8
21
 10
97.8408
 20
39.9298
 30
0.0000
  0
SEQEND
  8
0
  0
POLYLINE
  8
21
 66
1
 10
0.0000
 20
0.0000
 30
0.0000
 40
0.1016
 41
0.1016
 70
0
  0
VERTEX
  8
21
 10
98.4255
 20
39.9552
 30
0.0000
  0
VERTEX
  8
21
 10
98.6204
 20
39.7603
 30
0.0000
  0
SEQEND
  8
0
  0
POLYLINE
  8
21
 66
1
 10
0.0000
 20
0.0000
 30
0.0000
 40
0.0508
 41
0.0508
 70
0
  0
VERTEX
  8
21
 10
98.6024
 20
39.7423
 30
0.0000
 42
1.0000
  0
VERTEX
  8
21
 10
98.6384
 20
39.7783
 30
0.0000
  0
SEQEND
  8
0
  0
POLYLINE
  8
21
 66
1
 10
0.0000
 20
0.0000
 30
0.0000
 40
0.0508
 41
0.0508
 70
0
  0
VERTEX
  8
21
 10
98.4435
 20
39.9732
 30
0.0000
 42
1.0000
  0
VERTEX
  8
21
 10
98.4075
 20
39.9372
 30
0.0000
  0
SEQEND
  8
0
  0
POLYLINE
  8
21
 66
1
 10
0.0000
 20
0.0000
 30
0.0000
 40
0.1016
 41
0.1016
 70
0
  0
VERTEX
  8
21
 10
98.6204
 20
39.7603
 30
0.0000
  0
VERTEX
  8
21
 10
98.6204
 20
39.3705
 30
0.0000
  0
SEQEND
  8
0
  0
POLYLINE
  8
21
 66
1
 10
0.0000
 20
0.0000
 30
0.0000
 40
0.0508
 41
0.0508
 70
0
  0
VERTEX
  8
21
 10
98.5950
 20
39.3705
 30
0.0000
 42
1.0000
  0
VERTEX
  8
21
 10
98.6458
 20
39.3705
 30
0.0000
  0
SEQEND
  8
0
  0
POLYLINE
  8
21
 66
1
 10
0.0000
 20
0.0000
 30
0.0000
 40
0.0508
 41
0.0508
 70
0
  0
VERTEX
  8
21
 10
98.6458
 20
39.7603
 30
0.0000
 42
1.0000
  0
VERTEX
  8
21
 10
98.5950
 20
39.7603
 30
0.0000
  0
SEQEND
  8
0
  0
POLYLINE
  8
21
 66
1
 10
0.0000
 20
0.0000
 30
0.0000
 40
0.1016
 41
0.1016
 70
0
  0
VERTEX
  8
21
 10
98.6204
 20
39.3705
 30
0.0000
  0
VERTEX
  8
21
 10
98.4255
 20
39.1756
 30
0.0000
  0
SEQEND
  8
0
  0
POLYLINE
  8
21
 66
1
 10
0.0000
 20
0.0000
 30
0.0000
 40
0.0508
 41
0.0508
 70
0
  0
VERTEX
  8
21
 10
98.4075
 20
39.1936
 30
0.0000
 42
1.0000
  0
VERTEX
  8
21
 10
98.4435
 20
39.1576
 30
0.0000
  0
SEQEND
  8
0
  0
POLYLINE
  8
21
 66
1
 10
0.0000
 20
0.0000
 30
0.0000
 40
0.0508
 41
0.0508
 70
0
  0
VERTEX
  8
21
 10
98.6384
 20
39.3525
 30
0.0000
 42
1.0000
  0
VERTEX
  8
21
 10
98.6024
 20
39.3885
 30
0.0000
  0
SEQEND
  8
0
  0
POLYLINE
  8
21
 66
1
 10
0.0000
 20
0.0000
 30
0.0000
 40
0.1016
 41
0.1016
 70
0
  0
VERTEX
  8
21
 10
98.4255
 20
39.1756
 30
0.0000
  0
VERTEX
  8
21
 10
97.8408
 20
39.1756
 30
0.0000
  0
SEQEND
  8
0
  0
POLYLINE
  8
21
 66
1
 10
0.0000
 20
0.0000
 30
0.0000
 40
0.0508
 41
0.0508
 70
0
  0
VERTEX
  8
21
 10
97.8408
 20
39.2010
 30
0.0000
 42
1.0000
  0
VERTEX
  8
21
 10
97.8408
 20
39.1502
 30
0.0000
  0
SEQEND
  8
0
  0
POLYLINE
  8
21
 66
1
 10
0.0000
 20
0.0000
 30
0.0000
 40
0.0508
 41
0.0508
 70
0
  0
VERTEX
  8
21
 10
98.4255
 20
39.1502
 30
0.0000
 42
1.0000
  0
VERTEX
  8
21
 10
98.4255
 20
39.2010
 30
0.0000
  0
SEQEND
  8
0
  0
POLYLINE
  8
21
 66
1
 10
0.0000
 20
0.0000
 30
0.0000
 40
0.1016
 41
0.1016
 70
0
  0
VERTEX
  8
21
 10
98.2306
 20
39.1756
 30
0.0000
  0
VERTEX
  8
21
 10
98.6204
 20
38.7858
 30
0.0000
  0
SEQEND
  8
0
  0
POLYLINE
  8
21
 66
1
 10
0.0000
 20
0.0000
 30
0.0000
 40
0.0508
 41
0.0508
 70
0
  0
VERTEX
  8
21
 10
98.6024
 20
38.7678
 30
0.0000
 42
1.0000
  0
VERTEX
  8
21
 10
98.6384
 20
38.8038
 30
0.0000
  0
SEQEND
  8
0
  0
POLYLINE
  8
21
 66
1
 10
0.0000
 20
0.0000
 30
0.0000
 40
0.0508
 41
0.0508
 70
0
  0
VERTEX
  8
21
 10
98.2486
 20
39.1936
 30
0.0000
 42
1.0000
  0
VERTEX
  8
21
 10
98.2126
 20
39.1576
 30
0.0000
  0
SEQEND
  8
0
  0
POLYLINE
  8
21
 66
1
 10
0.0000
 20
0.0000
 30
0.0000
 40
0.1016
 41
0.1016
 70
0
  0
VERTEX
  8
21
 10
99.0102
 20
39.9552
 30
0.0000
  0
VERTEX
  8
21
 10
99.7898
 20
39.9552
 30
0.0000
  0
SEQEND
  8
0
  0
POLYLINE
  8
21
 66
1
 10
0.0000
 20
0.0000
 30
0.0000
 40
0.0508
 41
0.0508
 70
0
  0
VERTEX
  8
21
 10
99.7898
 20
39.9298
 30
0.0000
 42
1.0000
  0
VERTEX
  8
21
 10
99.7898
 20
39.9806
 30
0.0000
  0
SEQEND
  8
0
  0
POLYLINE
  8
21
 66
1
 10
0.0000
 20
0.0000
 30
0.0000
 40
0.0508
 41
0.0508
 70
0
  0
VERTEX
  8
21
 10
99.0102
 20
39.9806
 30
0.0000
 42
1.0000
  0
VERTEX
  8
21
 10
99.0102
 20
39.9298
 30
0.0000
  0
SEQEND
  8
0
  0
POLYLINE
  8
21
 66
1
 10
0.0000
 20
0.0000
 30
0.0000
 40
0.1016
 41
0.1016
 70
0
  0
VERTEX
  8
21
 10
99.7898
 20
39.9552
 30
0.0000
  0
VERTEX
  8
21
 10
99.7898
 20
39.7603
 30
0.0000
  0
SEQEND
  8
0
  0
POLYLINE
  8
21
 66
1
 10
0.0000
 20
0.0000
 30
0.0000
 40
0.0508
 41
0.0508
 70
0
  0
VERTEX
  8
21
 10
99.7644
 20
39.7603
 30
0.0000
 42
1.0000
  0
VERTEX
  8
21
 10
99.8152
 20
39.7603
 30
0.0000
  0
SEQEND
  8
0
  0
POLYLINE
  8
21
 66
1
 10
0.0000
 20
0.0000
 30
0.0000
 40
0.0508
 41
0.0508
 70
0
  0
VERTEX
  8
21
 10
99.8152
 20
39.9552
 30
0.0000
 42
1.0000
  0
VERTEX
  8
21
 10
99.7644
 20
39.9552
 30
0.0000
  0
SEQEND
  8
0
  0
POLYLINE
  8
21
 66
1
 10
0.0000
 20
0.0000
 30
0.0000
 40
0.1016
 41
0.1016
 70
0
  0
VERTEX
  8
21
 10
99.7898
 20
39.7603
 30
0.0000
  0
VERTEX
  8
21
 10
99.0102
 20
38.9807
 30
0.0000
  0
SEQEND
  8
0
  0
POLYLINE
  8
21
 66
1
 10
0.0000
 20
0.0000
 30
0.0000
 40
0.0508
 41
0.0508
 70
0
  0
VERTEX
  8
21
 10
98.9922
 20
38.9987
 30
0.0000
 42
1.0000
  0
VERTEX
  8
21
 10
99.0282
 20
38.9627
 30
0.0000
  0
SEQEND
  8
0
  0
POLYLINE
  8
21
 66
1
 10
0.0000
 20
0.0000
 30
0.0000
 40
0.0508
 41
0.0508
 70
0
  0
VERTEX
  8
21
 10
99.8078
 20
39.7423
 30
0.0000
 42
1.0000
  0
VERTEX
  8
21
 10
99.7718
 20
39.7783
 30
0.0000
  0
SEQEND
  8
0
  0
POLYLINE
  8
21
 66
1
 10
0.0000
 20
0.0000
 30
0.0000
 40
0.1016
 41
0.1016
 70
0
  0
VERTEX
  8
21
 10
99.0102
 20
38.9807
 30
0.0000
  0
VERTEX
  8
21
 10
99.0102
 20
38.7858
 30
0.0000
  0
SEQEND
  8
0
  0
POLYLINE
  8
21
 66
1
 10
0.0000
 20
0.0000
 30
0.0000
 40
0.0508
 41
0.0508
 70
0
  0
VERTEX
  8
21
 10
98.9848
 20
38.7858
 30
0.0000
 42
1.0000
  0
VERTEX
  8
21
 10
99.0356
 20
38.7858
 30
0.0000
  0
SEQEND
  8
0
  0
POLYLINE
  8
21
 66
1
 10
0.0000
 20
0.0000
 30
0.0000
 40
0.0508
 41
0.0508
 70
0
  0
VERTEX
  8
21
 10
99.0356
 20
38.9807
 30
0.0000
 42
1.0000
  0
VERTEX
  8
21
 10
98.9848
 20
38.9807
 30
0.0000
  0
SEQEND
  8
0
  0
POINT
  8
23
 10
19.0500
 20
31.7500
 30
0.0000
  0
POLYLINE
  8
21
 66
1
 10
0.0000
 20
0.0000
 30
0.0000
 40
0.2032
 41
0.2032
 70
0
  0
VERTEX
  8
21
 10
2.5400
 20
30.4800
 30
0.0000
  0
VERTEX
  8
21
 10
2.5400
 20
33.0200
 30
0.0000
  0
SEQEND
  8
0
  0
POLYLINE
  8
21
 66
1
 10
0.0000
 20
0.0000
 30
0.0000
 40
0.1016
 41
0.1016
 70
0
  0
VERTEX
  8
21
 10
2.5908
 20
33.0200
 30
0.0000
 42
1.0000
  0
VERTEX
  8
21
 10
2.4892
 20
33.0200
 30
0.0000
  0
SEQEND
  8
0
  0
POLYLINE
  8
21
 66
1
 10
0.0000
 20
0.0000
 30
0.0000
 40
0.1016
 41
0.1016
 70
0
  0
VERTEX
  8
21
 10
2.4892
 20
30.4800
 30
0.0000
 42
1.0000
  0
VERTEX
  8
21
 10
2.5908
 20
30.4800
 30
0.0000
  0
SEQEND
  8
0
  0
POLYLINE
  8
21
 66
1
 10
0.0000
 20
0.0000
 30
0.0000
 40
0.2032
 41
0.2032
 70
0
  0
VERTEX
  8
21
 10
2.5400
 20
33.0200
 30
0.0000
  0
VERTEX
  8
21
 10
1.2700
 20
33.0200
 30
0.0000
  0
SEQEND
  8
0
  0
POLYLINE
  8
21
 66
1
 10
0.0000
 20
0.0000
 30
0.0000
 40
0.1016
 41
0.1016
 70
0
  0
VERTEX
  8
21
 10
1.2700
 20
33.0708
 30
0.0000
 42
1.0000
  0
VERTEX
  8
21
 10
1.2700
 20
32.9692
 30
0.0000
  0
SEQEND
  8
0
  0
POLYLINE
  8
21
 66
1
 10
0.0000
 20
0.0000
 30
0.0000
 40
0.1016
 41
0.1016
 70
0
  0
VERTEX
  8
21
 10
2.5400
 20
32.9692
 30
0.0000
 42
1.0000
  0
VERTEX
  8
21
 10
2.5400
 20
33.0708
 30
0.0000
  0
SEQEND
  8
0
  0
POLYLINE
  8
21
 66
1
 10
0.0000
 20
0.0000
 30
0.0000
 40
0.2032
 41
0.2032
 70
0
  0
VERTEX
  8
21
 10
1.2700
 20
33.0200
 30
0.0000
  0
VERTEX
  8
21
 10
1.2700
 20
40.6400
 30
0.0000
  0
SEQEND
  8
0
  0
POLYLINE
  8
21
 66
1
 10
0.0000
 20
0.0000
 30
0.0000
 40
0.1016
 41
0.1016
 70
0
  0
VERTEX
  8
21
 10
1.3208
 20
40.6400
 30
0.0000
 42
1.0000
  0
VERTEX
  8
21
 10
1.2192
 20
40.6400
 30
0.0000
  0
SEQEND
  8
0
  0
POLYLINE
  8
21
 66
1
 10
0.0000
 20
0.0000
 30
0.0000
 40
0.1016
 41
0.1016
 70
0
  0
VERTEX
  8
21
 10
1.2192
 20
33.0200
 30
0.0000
 42
1.0000
  0
VERTEX
  8
21
 10
1.3208
 20
33.0200
 30
0.0000
  0
SEQEND
  8
0
  0
POLYLINE
  8
21
 66
1
 10
0.0000
 20
0.0000
 30
0.0000
 40
0.2032
 41
0.2032
 70
0
  0
VERTEX
  8
21
 10
1.2700
 20
40.6400
 30
0.0000
  0
VERTEX
  8
21
 10
36.8300
 20
40.6400
 30
0.0000
  0
SEQEND
  8
0
  0
POLYLINE
  8
21
 66
1
 10
0.0000
 20
0.0000
 30
0.0000
 40
0.1016
 41
0.1016
 70
0
  0
VERTEX
  8
21
 10
36.8300
 20
40.5892
 30
0.0000
 42
1.0000
  0
VERTEX
  8
21
 10
36.8300
 20
40.6908
 30
0.0000
  0
SEQEND
  8
0
  0
POLYLINE
  8
21
 66
1
 10
0.0000
 20
0.0000
 30
0.0000
 40
0.1016
 41
0.1016
 70
0
  0
VERTEX
  8
21
 10
1.2700
 20
40.6908
 30
0.0000
 42
1.0000
  0
VERTEX
  8
21
 10
1.2700
 20
40.5892
 30
0.0000
  0
SEQEND
  8
0
  0
POLYLINE
  8
21
 66
1
 10
0.0000
 20
0.0000
 30
0.0000
 40
0.2032
 41
0.2032
 70
0
  0
VERTEX
  8
21
 10
36.8300
 20
40.6400
 30
0.0000
  0
VERTEX
  8
21
 10
36.8300
 20
22.8600
 30
0.0000
  0
SEQEND
  8
0
  0
POLYLINE
  8
21
 66
1
 10
0.0000
 20
0.0000
 30
0.0000
 40
0.1016
 41
0.1016
 70
0
  0
VERTEX
  8
21
 10
36.7792
 20
22.8600
 30
0.0000
 42
1.0000
  0
VERTEX
  8
21
 10
36.8808
 20
22.8600
 30
0.0000
  0
SEQEND
  8
0
  0
POLYLINE
  8
21
 66
1
 10
0.0000
 20
0.0000
 30
0.0000
 40
0.1016
 41
0.1016
 70
0
  0
VERTEX
  8
21
 10
36.8808
 20
40.6400
 30
0.0000
 42
1.0000
  0
VERTEX
  8
21
 10
36.7792
 20
40.6400
 30
0.0000
  0
SEQEND
  8
0
  0
POLYLINE
  8
21
 66
1
 10
0.0000
 20
0.0000
 30
0.0000
 40
0.2032
 41
0.2032
 70
0
  0
VERTEX
  8
21
 10
36.8300
 20
22.8600
 30
0.0000
  0
VERTEX
  8
21
 10
1.2700
 20
22.8600
 30
0.0000
  0
SEQEND
  8
0
  0
POLYLINE
  8
21
 66
1
 10
0.0000
 20
0.0000
 30
0.0000
 40
0.1016
 41
0.1016
 70
0
  0
VERTEX
  8
21
 10
1.2700
 20
22.9108
 30
0.0000
 42
1.0000
  0
VERTEX
  8
21
 10
1.2700
 20
22.8092
 30
0.0000
  0
SEQEND
  8
0
  0
POLYLINE
  8
21
 66
1
 10
0.0000
 20
0.0000
 30
0.0000
 40
0.1016
 41
0.1016
 70
0
  0
VERTEX
  8
21
 10
36.8300
 20
22.8092
 30
0.0000
 42
1.0000
  0
VERTEX
  8
21
 10
36.8300
 20
22.9108
 30
0.0000
  0
SEQEND
  8
0
  0
POLYLINE
  8
21
 66
1
 10
0.0000
 20
0.0000
 30
0.0000
 40
0.2032
 41
0.2032
 70
0
  0
VERTEX
  8
21
 10
1.2700
 20
22.8600
 30
0.0000
  0
VERTEX
  8
21
 10
1.2700
 20
30.4800
 30
0.0000
  0
SEQEND
  8
0
  0
POLYLINE
  8
21
 66
1
 10
0.0000
 20
0.0000
 30
0.0000
 40
0.1016
 41
0.1016
 70
0
  0
VERTEX
  8
21
 10
1.3208
 20
30.4800
 30
0.0000
 42
1.0000
  0
VERTEX
  8
21
 10
1.2192
 20
30.4800
 30
0.0000
  0
SEQEND
  8
0
  0
POLYLINE
  8
21
 66
1
 10
0.0000
 20
0.0000
 30
0.0000
 40
0.1016
 41
0.1016
 70
0
  0
VERTEX
  8
21
 10
1.2192
 20
22.8600
 30
0.0000
 42
1.0000
  0
VERTEX
  8
21
 10
1.3208
 20
22.8600
 30
0.0000
  0
SEQEND
  8
0
  0
POLYLINE
  8
21
 66
1
 10
0.0000
 20
0.0000
 30
0.0000
 40
0.2032
 41
0.2032
 70
0
  0
VERTEX
  8
21
 10
1.2700
 20
30.4800
 30
0.0000
  0
VERTEX
  8
21
 10
2.5400
 20
30.4800
 30
0.0000
  0
SEQEND
  8
0
  0
POLYLINE
  8
21
 66
1
 10
0.0000
 20
0.0000
 30
0.0000
 40
0.1016
 41
0.1016
 70
0
  0
VERTEX
  8
21
 10
2.5400
 20
30.4292
 30
0.0000
 42
1.0000
  0
VERTEX
  8
21
 10
2.5400
 20
30.5308
 30
0.0000
  0
SEQEND
  8
0
  0
POLYLINE
  8
21
 66
1
 10
0.0000
 20
0.0000
 30
0.0000
 40
0.1016
 41
0.1016
 70
0
  0
VERTEX
  8
21
 10
1.2700
 20
30.5308
 30
0.0000
 42
1.0000
  0
VERTEX
  8
21
 10
1.2700
 20
30.4292
 30
0.0000
  0
SEQEND
  8
0
  0
INSERT
  8
17
  2
ROUNDP
 10
5.0800
 20
24.1300
 30
0.0000
 41
1.4732
 42
1.4732
 43
1.0000
 50
90.0000
  0
INSERT
  8
17
  2
ROUNDP
 10
5.0800
 20
24.1300
 30
0.0000
 41
1.4732
 42
1.4732
 43
1.0000
 50
90.0000
  0
INSERT
  8
17
  2
ROUNDP
 10
7.6200
 20
24.1300
 30
0.0000
 41
1.4732
 42
1.4732
 43
1.0000
 50
90.0000
  0
INSERT
  8
17
  2
ROUNDP
 10
7.6200
 20
24.1300
 30
0.0000
 41
1.4732
 42
1.4732
 43
1.0000
 50
90.0000
  0
INSERT
  8
17
  2
ROUNDP
 10
10.1600
 20
24.1300
 30
0.0000
 41
1.4732
 42
1.4732
 43
1.0000
 50
90.0000
  0
INSERT
  8
17
  2
ROUNDP
 10
10.1600
 20
24.1300
 30
0.0000
 41
1.4732
 42
1.4732
 43
1.0000
 50
90.0000
  0
INSERT
  8
17
  2
ROUNDP
 10
12.7000
 20
24.1300
 30
0.0000
 41
1.4732
 42
1.4732
 43
1.0000
 50
90.0000
  0
INSERT
  8
17
  2
ROUNDP
 10
12.7000
 20
24.1300
 30
0.0000
 41
1.4732
 42
1.4732
 43
1.0000
 50
90.0000
  0
INSERT
  8
17
  2
ROUNDP
 10
7.6200
 20
39.3700
 30
0.0000
 41
1.4732
 42
1.4732
 43
1.0000
 50
90.0000
  0
INSERT
  8
17
  2
ROUNDP
 10
7.6200
 20
39.3700
 30
0.0000
 41
1.4732
 42
1.4732
 43
1.0000
 50
90.0000
  0
INSERT
  8
17
  2
ROUNDP
 10
35.5600
 20
29.2100
 30
0.0000
 41
1.4732
 42
1.4732
 43
1.0000
 50
90.0000
  0
INSERT
  8
17
  2
ROUNDP
 10
35.5600
 20
29.2100
 30
0.0000
 41
1.4732
 42
1.4732
 43
1.0000
 50
90.0000
  0
INSERT
  8
17
  2
ROUNDP
 10
20.3200
 20
34.2900
 30
0.0000
 41
1.4732
 42
1.4732
 43
1.0000
 50
90.0000
  0
INSERT
  8
17
  2
ROUNDP
 10
20.3200
 20
34.2900
 30
0.0000
 41
1.4732
 42
1.4732
 43
1.0000
 50
90.0000
  0
INSERT
  8
17
  2
ROUNDP
 10
15.2400
 20
24.1300
 30
0.0000
 41
1.4732
 42
1.4732
 43
1.0000
 50
90.0000
  0
INSERT
  8
17
  2
ROUNDP
 10
15.2400
 20
24.1300
 30
0.0000
 41
1.4732
 42
1.4732
 43
1.0000
 50
90.0000
  0
INSERT
  8
17
  2
ROUNDP
 10
17.7800
 20
24.1300
 30
0.0000
 41
1.4732
 42
1.4732
 43
1.0000
 50
90.0000
  0
INSERT
  8
17
  2
ROUNDP
 10
17.7800
 20
24.1300
 30
0.0000
 41
1.4732
 42
1.4732
 43
1.0000
 50
90.0000
  0
INSERT
  8
17
  2
ROUNDP
 10
20.3200
 20
24.1300
 30
0.0000
 41
1.4732
 42
1.4732
 43
1.0000
 50
90.0000
  0
INSERT
  8
17
  2
ROUNDP
 10
20.3200
 20
24.1300
 30
0.0000
 41
1.4732
 42
1.4732
 43
1.0000
 50
90.0000
  0
INSERT
  8
17
  2
ROUNDP
 10
22.8600
 20
24.1300
 30
0.0000
 41
1.4732
 42
1.4732
 43
1.0000
 50
90.0000
  0
INSERT
  8
17
  2
ROUNDP
 10
22.8600
 20
24.1300
 30
0.0000
 41
1.4732
 42
1.4732
 43
1.0000
 50
90.0000
  0
INSERT
  8
17
  2
ROUNDP
 10
25.4000
 20
24.1300
 30
0.0000
 41
1.4732
 42
1.4732
 43
1.0000
 50
90.0000
  0
INSERT
  8
17
  2
ROUNDP
 10
25.4000
 20
24.1300
 30
0.0000
 41
1.4732
 42
1.4732
 43
1.0000
 50
90.0000
  0
INSERT
  8
17
  2
ROUNDP
 10
27.9400
 20
24.1300
 30
0.0000
 41
1.4732
 42
1.4732
 43
1.0000
 50
90.0000
  0
INSERT
  8
17
  2
ROUNDP
 10
27.9400
 20
24.1300
 30
0.0000
 41
1.4732
 42
1.4732
 43
1.0000
 50
90.0000
  0
INSERT
  8
17
  2
ROUNDP
 10
30.4800
 20
24.1300
 30
0.0000
 41
1.4732
 42
1.4732
 43
1.0000
 50
90.0000
  0
INSERT
  8
17
  2
ROUNDP
 10
30.4800
 20
24.1300
 30
0.0000
 41
1.4732
 42
1.4732
 43
1.0000
 50
90.0000
  0
INSERT
  8
17
  2
ROUNDP
 10
33.0200
 20
24.1300
 30
0.0000
 41
1.4732
 42
1.4732
 43
1.0000
 50
90.0000
  0
INSERT
  8
17
  2
ROUNDP
 10
33.0200
 20
24.1300
 30
0.0000
 41
1.4732
 42
1.4732
 43
1.0000
 50
90.0000
  0
INSERT
  8
17
  2
ROUNDP
 10
35.5600
 20
24.1300
 30
0.0000
 41
1.4732
 42
1.4732
 43
1.0000
 50
90.0000
  0
INSERT
  8
17
  2
ROUNDP
 10
35.5600
 20
24.1300
 30
0.0000
 41
1.4732
 42
1.4732
 43
1.0000
 50
90.0000
  0
INSERT
  8
17
  2
ROUNDP
 10
35.5600
 20
39.3700
 30
0.0000
 41
1.4732
 42
1.4732
 43
1.0000
 50
90.0000
  0
INSERT
  8
17
  2
ROUNDP
 10
35.5600
 20
39.3700
 30
0.0000
 41
1.4732
 42
1.4732
 43
1.0000
 50
90.0000
  0
INSERT
  8
17
  2
ROUNDP
 10
33.0200
 20
39.3700
 30
0.0000
 41
1.4732
 42
1.4732
 43
1.0000
 50
90.0000
  0
INSERT
  8
17
  2
ROUNDP
 10
33.0200
 20
39.3700
 30
0.0000
 41
1.4732
 42
1.4732
 43
1.0000
 50
90.0000
  0
INSERT
  8
17
  2
ROUNDP
 10
30.4800
 20
39.3700
 30
0.0000
 41
1.4732
 42
1.4732
 43
1.0000
 50
90.0000
  0
INSERT
  8
17
  2
ROUNDP
 10
30.4800
 20
39.3700
 30
0.0000
 41
1.4732
 42
1.4732
 43
1.0000
 50
90.0000
  0
INSERT
  8
17
  2
ROUNDP
 10
27.9400
 20
39.3700
 30
0.0000
 41
1.4732
 42
1.4732
 43
1.0000
 50
90.0000
  0
INSERT
  8
17
  2
ROUNDP
 10
27.9400
 20
39.3700
 30
0.0000
 41
1.4732
 42
1.4732
 43
1.0000
 50
90.0000
  0
INSERT
  8
17
  2
ROUNDP
 10
25.4000
 20
39.3700
 30
0.0000
 41
1.4732
 42
1.4732
 43
1.0000
 50
90.0000
  0
INSERT
  8
17
  2
ROUNDP
 10
25.4000
 20
39.3700
 30
0.0000
 41
1.4732
 42
1.4732
 43
1.0000
 50
90.0000
  0
INSERT
  8
17
  2
ROUNDP
 10
22.8600
 20
39.3700
 30
0.0000
 41
1.4732
 42
1.4732
 43
1.0000
 50
90.0000
  0
INSERT
  8
17
  2
ROUNDP
 10
22.8600
 20
39.3700
 30
0.0000
 41
1.4732
 42
1.4732
 43
1.0000
 50
90.0000
  0
INSERT
  8
17
  2
ROUNDP
 10
20.3200
 20
39.3700
 30
0.0000
 41
1.4732
 42
1.4732
 43
1.0000
 50
90.0000
  0
INSERT
  8
17
  2
ROUNDP
 10
20.3200
 20
39.3700
 30
0.0000
 41
1.4732
 42
1.4732
 43
1.0000
 50
90.0000
  0
INSERT
  8
17
  2
ROUNDP
 10
17.7800
 20
39.3700
 30
0.0000
 41
1.4732
 42
1.4732
 43
1.0000
 50
90.0000
  0
INSERT
  8
17
  2
ROUNDP
 10
17.7800
 20
39.3700
 30
0.0000
 41
1.4732
 42
1.4732
 43
1.0000
 50
90.0000
  0
INSERT
  8
17
  2
ROUNDP
 10
15.2400
 20
39.3700
 30
0.0000
 41
1.4732
 42
1.4732
 43
1.0000
 50
90.0000
  0
INSERT
  8
17
  2
ROUNDP
 10
15.2400
 20
39.3700
 30
0.0000
 41
1.4732
 42
1.4732
 43
1.0000
 50
90.0000
  0
INSERT
  8
17
  2
ROUNDP
 10
12.7000
 20
39.3700
 30
0.0000
 41
1.4732
 42
1.4732
 43
1.0000
 50
90.0000
  0
INSERT
  8
17
  2
ROUNDP
 10
12.7000
 20
39.3700
 30
0.0000
 41
1.4732
 42
1.4732
 43
1.0000
 50
90.0000
  0
INSERT
  8
17
  2
ROUNDP
 10
10.1600
 20
39.3700
 30
0.0000
 41
1.4732
 42
1.4732
 43
1.0000
 50
90.0000
  0
INSERT
  8
17
  2
ROUNDP
 10
10.1600
 20
39.3700
 30
0.0000
 41
1.4732
 42
1.4732
 43
1.0000
 50
90.0000
  0
INSERT
  8
17
  2
ROUNDP
 10
22.8600
 20
31.7500
 30
0.0000
 41
1.4732
 42
1.4732
 43
1.0000
 50
90.0000
  0
INSERT
  8
17
  2
ROUNDP
 10
22.8600
 20
31.7500
 30
0.0000
 41
1.4732
 42
1.4732
 43
1.0000
 50
90.0000
  0
INSERT
  8
17
  2
ROUNDP
 10
25.4000
 20
31.7500
 30
0.0000
 41
1.4732
 42
1.4732
 43
1.0000
 50
90.0000
  0
INSERT
  8
17
  2
ROUNDP
 10
25.4000
 20
31.7500
 30
0.0000
 41
1.4732
 42
1.4732
 43
1.0000
 50
90.0000
  0
INSERT
  8
17
  2
ROUNDP
 10
27.9400
 20
31.7500
 30
0.0000
 41
1.4732
 42
1.4732
 43
1.0000
 50
90.0000
  0
INSERT
  8
17
  2
ROUNDP
 10
27.9400
 20
31.7500
 30
0.0000
 41
1.4732
 42
1.4732
 43
1.0000
 50
90.0000
  0
INSERT
  8
17
  2
ROUNDP
 10
30.4800
 20
31.7500
 30
0.0000
 41
1.4732
 42
1.4732
 43
1.0000
 50
90.0000
  0
INSERT
  8
17
  2
ROUNDP
 10
30.4800
 20
31.7500
 30
0.0000
 41
1.4732
 42
1.4732
 43
1.0000
 50
90.0000
  0
INSERT
  8
17
  2
ROUNDP
 10
33.0200
 20
31.7500
 30
0.0000
 41
1.4732
 42
1.4732
 43
1.0000
 50
90.0000
  0
INSERT
  8
17
  2
ROUNDP
 10
33.0200
 20
31.7500
 30
0.0000
 41
1.4732
 42
1.4732
 43
1.0000
 50
90.0000
  0
INSERT
  8
17
  2
ROUNDP
 10
33.0200
 20
34.2900
 30
0.0000
 41
1.4732
 42
1.4732
 43
1.0000
 50
90.0000
  0
INSERT
  8
17
  2
ROUNDP
 10
33.0200
 20
34.2900
 30
0.0000
 41
1.4732
 42
1.4732
 43
1.0000
 50
90.0000
  0
INSERT
  8
17
  2
ROUNDP
 10
30.4800
 20
34.2900
 30
0.0000
 41
1.4732
 42
1.4732
 43
1.0000
 50
90.0000
  0
INSERT
  8
17
  2
ROUNDP
 10
30.4800
 20
34.2900
 30
0.0000
 41
1.4732
 42
1.4732
 43
1.0000
 50
90.0000
  0
INSERT
  8
17
  2
ROUNDP
 10
27.9400
 20
34.2900
 30
0.0000
 41
1.4732
 42
1.4732
 43
1.0000
 50
90.0000
  0
INSERT
  8
17
  2
ROUNDP
 10
27.9400
 20
34.2900
 30
0.0000
 41
1.4732
 42
1.4732
 43
1.0000
 50
90.0000
  0
INSERT
  8
17
  2
ROUNDP
 10
25.4000
 20
34.2900
 30
0.0000
 41
1.4732
 42
1.4732
 43
1.0000
 50
90.0000
  0
INSERT
  8
17
  2
ROUNDP
 10
25.4000
 20
34.2900
 30
0.0000
 41
1.4732
 42
1.4732
 43
1.0000
 50
90.0000
  0
INSERT
  8
17
  2
ROUNDP
 10
22.8600
 20
34.2900
 30
0.0000
 41
1.4732
 42
1.4732
 43
1.0000
 50
90.0000
  0
INSERT
  8
17
  2
ROUNDP
 10
22.8600
 20
34.2900
 30
0.0000
 41
1.4732
 42
1.4732
 43
1.0000
 50
90.0000
  0
INSERT
  8
17
  2
ROUNDP
 10
12.7000
 20
36.8300
 30
0.0000
 41
1.4732
 42
1.4732
 43
1.0000
 50
90.0000
  0
INSERT
  8
17
  2
ROUNDP
 10
12.7000
 20
36.8300
 30
0.0000
 41
1.4732
 42
1.4732
 43
1.0000
 50
90.0000
  0
INSERT
  8
17
  2
ROUNDP
 10
15.2400
 20
36.8300
 30
0.0000
 41
1.4732
 42
1.4732
 43
1.0000
 50
90.0000
  0
INSERT
  8
17
  2
ROUNDP
 10
15.2400
 20
36.8300
 30
0.0000
 41
1.4732
 42
1.4732
 43
1.0000
 50
90.0000
  0
INSERT
  8
17
  2
ROUNDP
 10
17.7800
 20
31.7500
 30
0.0000
 41
1.4732
 42
1.4732
 43
1.0000
 50
90.0000
  0
INSERT
  8
17
  2
ROUNDP
 10
17.7800
 20
31.7500
 30
0.0000
 41
1.4732
 42
1.4732
 43
1.0000
 50
90.0000
  0
INSERT
  8
17
  2
ROUNDP
 10
17.7800
 20
34.2900
 30
0.0000
 41
1.4732
 42
1.4732
 43
1.0000
 50
90.0000
  0
INSERT
  8
17
  2
ROUNDP
 10
17.7800
 20
34.2900
 30
0.0000
 41
1.4732
 42
1.4732
 43
1.0000
 50
90.0000
  0
INSERT
  8
17
  2
ROUNDP
 10
5.0800
 20
39.3700
 30
0.0000
 41
1.4732
 42
1.4732
 43
1.0000
 50
90.0000
  0
INSERT
  8
17
  2
ROUNDP
 10
5.0800
 20
39.3700
 30
0.0000
 41
1.4732
 42
1.4732
 43
1.0000
 50
90.0000
  0
INSERT
  8
17
  2
ROUNDP
 10
10.1600
 20
36.8300
 30
0.0000
 41
1.4732
 42
1.4732
 43
1.0000
 50
90.0000
  0
INSERT
  8
17
  2
ROUNDP
 10
10.1600
 20
36.8300
 30
0.0000
 41
1.4732
 42
1.4732
 43
1.0000
 50
90.0000
  0
INSERT
  8
17
  2
ROUNDP
 10
2.5400
 20
24.1300
 30
0.0000
 41
1.4732
 42
1.4732
 43
1.0000
 50
90.0000
  0
INSERT
  8
17
  2
ROUNDP
 10
2.5400
 20
24.1300
 30
0.0000
 41
1.4732
 42
1.4732
 43
1.0000
 50
90.0000
  0
INSERT
  8
17
  2
ROUNDP
 10
35.5600
 20
31.7500
 30
0.0000
 41
1.4732
 42
1.4732
 43
1.0000
 50
90.0000
  0
INSERT
  8
17
  2
ROUNDP
 10
35.5600
 20
31.7500
 30
0.0000
 41
1.4732
 42
1.4732
 43
1.0000
 50
90.0000
  0
INSERT
  8
17
  2
ROUNDP
 10
20.3200
 20
31.7500
 30
0.0000
 41
1.4732
 42
1.4732
 43
1.0000
 50
90.0000
  0
INSERT
  8
17
  2
ROUNDP
 10
20.3200
 20
31.7500
 30
0.0000
 41
1.4732
 42
1.4732
 43
1.0000
 50
90.0000
  0
INSERT
  8
17
  2
ROUNDP
 10
35.5600
 20
34.2900
 30
0.0000
 41
1.4732
 42
1.4732
 43
1.0000
 50
90.0000
  0
INSERT
  8
17
  2
ROUNDP
 10
35.5600
 20
34.2900
 30
0.0000
 41
1.4732
 42
1.4732
 43
1.0000
 50
90.0000
  0
INSERT
  8
17
  2
ROUNDP
 10
35.5600
 20
36.8300
 30
0.0000
 41
1.4732
 42
1.4732
 43
1.0000
 50
90.0000
  0
INSERT
  8
17
  2
ROUNDP
 10
35.5600
 20
36.8300
 30
0.0000
 41
1.4732
 42
1.4732
 43
1.0000
 50
90.0000
  0
INSERT
  8
17
  2
ROUNDP
 10
35.5600
 20
26.6700
 30
0.0000
 41
1.4732
 42
1.4732
 43
1.0000
 50
90.0000
  0
INSERT
  8
17
  2
ROUNDP
 10
35.5600
 20
26.6700
 30
0.0000
 41
1.4732
 42
1.4732
 43
1.0000
 50
90.0000
  0
INSERT
  8
17
  2
ROUNDP
 10
2.5400
 20
39.3700
 30
0.0000
 41
1.4732
 42
1.4732
 43
1.0000
 50
90.0000
  0
INSERT
  8
17
  2
ROUNDP
 10
2.5400
 20
39.3700
 30
0.0000
 41
1.4732
 42
1.4732
 43
1.0000
 50
90.0000
  0
INSERT
  8
17
  2
ROUNDP
 10
5.0800
 20
36.8300
 30
0.0000
 41
1.4732
 42
1.4732
 43
1.0000
 50
90.0000
  0
INSERT
  8
17
  2
ROUNDP
 10
5.0800
 20
36.8300
 30
0.0000
 41
1.4732
 42
1.4732
 43
1.0000
 50
90.0000
  0
POLYLINE
  8
1
 66
1
 10
0.0000
 20
0.0000
 30
0.0000
 40
0.4064
 41
0.4064
 70
0
  0
VERTEX
  8
1
 10
114.3000
 20
2.5400
 30
0.0000
  0
VERTEX
  8
1
 10
114.3000
 20
45.0850
 30
0.0000
  0
SEQEND
  8
0
  0
POLYLINE
  8
1
 66
1
 10
0.0000
 20
0.0000
 30
0.0000
 40
0.2032
 41
0.2032
 70
0
  0
VERTEX
  8
1
 10
114.4016
 20
45.0850
 30
0.0000
 42
1.0000
  0
VERTEX
  8
1
 10
114.1984
 20
45.0850
 30
0.0000
  0
SEQEND
  8
0
  0
POLYLINE
  8
1
 66
1
 10
0.0000
 20
0.0000
 30
0.0000
 40
0.2032
 41
0.2032
 70
0
  0
VERTEX
  8
1
 10
114.1984
 20
2.5400
 30
0.0000
 42
1.0000
  0
VERTEX
  8
1
 10
114.4016
 20
2.5400
 30
0.0000
  0
SEQEND
  8
0
  0
POLYLINE
  8
1
 66
1
 10
0.0000
 20
0.0000
 30
0.0000
 40
0.4064
 41
0.4064
 70
0
  0
VERTEX
  8
1
 10
114.3000
 20
45.0850
 30
0.0000
 42
0.4142
  0
VERTEX
  8
1
 10
111.7600
 20
47.6250
 30
0.0000
  0
SEQEND
  8
0
  0
POLYLINE
  8
1
 66
1
 10
0.0000
 20
0.0000
 30
0.0000
 40
0.2032
 41
0.2032
 70
0
  0
VERTEX
  8
1
 10
114.1984
 20
45.0850
 30
0.0000
 42
1.0000
  0
VERTEX
  8
1
 10
114.4016
 20
45.0850
 30
0.0000
  0
SEQEND
  8
0
  0
POLYLINE
  8
1
 66
1
 10
0.0000
 20
0.0000
 30
0.0000
 40
0.2032
 41
0.2032
 70
0
  0
VERTEX
  8
1
 10
111.7600
 20
47.7266
 30
0.0000
 42
1.0000
  0
VERTEX
  8
1
 10
111.7600
 20
47.5234
 30
0.0000
  0
SEQEND
  8
0
  0
POLYLINE
  8
1
 66
1
 10
0.0000
 20
0.0000
 30
0.0000
 40
0.4064
 41
0.4064
 70
0
  0
VERTEX
  8
1
 10
111.7600
 20
47.6250
 30
0.0000
  0
VERTEX
  8
1
 10
2.5400
 20
47.6250
 30
0.0000
  0
SEQEND
  8
0
  0
POLYLINE
  8
1
 66
1
 10
0.0000
 20
0.0000
 30
0.0000
 40
0.2032
 41
0.2032
 70
0
  0
VERTEX
  8
1
 10
2.5400
 20
47.7266
 30
0.0000
 42
1.0000
  0
VERTEX
  8
1
 10
2.5400
 20
47.5234
 30
0.0000
  0
SEQEND
  8
0
  0
POLYLINE
  8
1
 66
1
 10
0.0000
 20
0.0000
 30
0.0000
 40
0.2032
 41
0.2032
 70
0
  0
VERTEX
  8
1
 10
111.7600
 20
47.5234
 30
0.0000
 42
1.0000
  0
VERTEX
  8
1
 10
111.7600
 20
47.7266
 30
0.0000
  0
SEQEND
  8
0
  0
POLYLINE
  8
1
 66
1
 10
0.0000
 20
0.0000
 30
0.0000
 40
0.4064
 41
0.4064
 70
0
  0
VERTEX
  8
1
 10
2.5400
 20
47.6250
 30
0.0000
 42
0.4142
  0
VERTEX
  8
1
 10
0.0000
 20
45.0850
 30
0.0000
  0
SEQEND
  8
0
  0
POLYLINE
  8
1
 66
1
 10
0.0000
 20
0.0000
 30
0.0000
 40
0.2032
 41
0.2032
 70
0
  0
VERTEX
  8
1
 10
2.5400
 20
47.5234
 30
0.0000
 42
1.0000
  0
VERTEX
  8
1
 10
2.5400
 20
47.7266
 30
0.0000
  0
SEQEND
  8
0
  0
POLYLINE
  8
1
 66
1
 10
0.0000
 20
0.0000
 30
0.0000
 40
0.2032
 41
0.2032
 70
0
  0
VERTEX
  8
1
 10
-0.1016
 20
45.0850
 30
0.0000
 42
1.0000
  0
VERTEX
  8
1
 10
0.1016
 20
45.0850
 30
0.0000
  0
SEQEND
  8
0
  0
POLYLINE
  8
1
 66
1
 10
0.0000
 20
0.0000
 30
0.0000
 40
0.4064
 41
0.4064
 70
0
  0
VERTEX
  8
1
 10
0.0000
 20
45.0850
 30
0.0000
  0
VERTEX
  8
1
 10
0.0000
 20
2.5400
 30
0.0000
  0
SEQEND
  8
0
  0
POLYLINE
  8
1
 66
1
 10
0.0000
 20
0.0000
 30
0.0000
 40
0.2032
 41
0.2032
 70
0
  0
VERTEX
  8
1
 10
-0.1016
 20
2.5400
 30
0.0000
 42
1.0000
  0
VERTEX
  8
1
 10
0.1016
 20
2.5400
 30
0.0000
  0
SEQEND
  8
0
  0
POLYLINE
  8
1
 66
1
 10
0.0000
 20
0.0000
 30
0.0000
 40
0.2032
 41
0.2032
 70
0
  0
VERTEX
  8
1
 10
0.1016
 20
45.0850
 30
0.0000
 42
1.0000
  0
VERTEX
  8
1
 10
-0.1016
 20
45.0850
 30
0.0000
  0
SEQEND
  8
0
  0
POLYLINE
  8
1
 66
1
 10
0.0000
 20
0.0000
 30
0.0000
 40
0.4064
 41
0.4064
 70
0
  0
VERTEX
  8
1
 10
0.0000
 20
2.5400
 30
0.0000
 42
0.4142
  0
VERTEX
  8
1
 10
2.5400
 20
0.0000
 30
0.0000
  0
SEQEND
  8
0
  0
POLYLINE
  8
1
 66
1
 10
0.0000
 20
0.0000
 30
0.0000
 40
0.2032
 41
0.2032
 70
0
  0
VERTEX
  8
1
 10
0.1016
 20
2.5400
 30
0.0000
 42
1.0000
  0
VERTEX
  8
1
 10
-0.1016
 20
2.5400
 30
0.0000
  0
SEQEND
  8
0
  0
POLYLINE
  8
1
 66
1
 10
0.0000
 20
0.0000
 30
0.0000
 40
0.2032
 41
0.2032
 70
0
  0
VERTEX
  8
1
 10
2.5400
 20
-0.1016
 30
0.0000
 42
1.0000
  0
VERTEX
  8
1
 10
2.5400
 20
0.1016
 30
0.0000
  0
SEQEND
  8
0
  0
POLYLINE
  8
1
 66
1
 10
0.0000
 20
0.0000
 30
0.0000
 40
0.4064
 41
0.4064
 70
0
  0
VERTEX
  8
1
 10
2.5400
 20
0.0000
 30
0.0000
  0
VERTEX
  8
1
 10
111.7600
 20
0.0000
 30
0.0000
  0
SEQEND
  8
0
  0
POLYLINE
  8
1
 66
1
 10
0.0000
 20
0.0000
 30
0.0000
 40
0.2032
 41
0.2032
 70
0
  0
VERTEX
  8
1
 10
111.7600
 20
-0.1016
 30
0.0000
 42
1.0000
  0
VERTEX
  8
1
 10
111.7600
 20
0.1016
 30
0.0000
  0
SEQEND
  8
0
  0
POLYLINE
  8
1
 66
1
 10
0.0000
 20
0.0000
 30
0.0000
 40
0.2032
 41
0.2032
 70
0
  0
VERTEX
  8
1
 10
2.5400
 20
0.1016
 30
0.0000
 42
1.0000
  0
VERTEX
  8
1
 10
2.5400
 20
-0.1016
 30
0.0000
  0
SEQEND
  8
0
  0
POLYLINE
  8
1
 66
1
 10
0.0000
 20
0.0000
 30
0.0000
 40
0.4064
 41
0.4064
 70
0
  0
VERTEX
  8
1
 10
111.7600
 20
0.0000
 30
0.0000
 42
0.4142
  0
VERTEX
  8
1
 10
114.3000
 20
2.5400
 30
0.0000
  0
SEQEND
  8
0
  0
POLYLINE
  8
1
 66
1
 10
0.0000
 20
0.0000
 30
0.0000
 40
0.2032
 41
0.2032
 70
0
  0
VERTEX
  8
1
 10
111.7600
 20
0.1016
 30
0.0000
 42
1.0000
  0
VERTEX
  8
1
 10
111.7600
 20
-0.1016
 30
0.0000
  0
SEQEND
  8
0
  0
POLYLINE
  8
1
 66
1
 10
0.0000
 20
0.0000
 30
0.0000
 40
0.2032
 41
0.2032
 70
0
  0
VERTEX
  8
1
 10
114.4016
 20
2.5400
 30
0.0000
 42
1.0000
  0
VERTEX
  8
1
 10
114.1984
 20
2.5400
 30
0.0000
  0
SEQEND
  8
0
  0
POLYLINE
  8
1
 66
1
 10
0.0000
 20
0.0000
 30
0.0000
 40
0.2540
 41
0.2540
 70
0
  0
VERTEX
  8
1
 10
34.2900
 20
40.6908
 30
0.0000
  0
VERTEX
  8
1
 10
33.1470
 20
39.5478
 30
0.0000
  0
SEQEND
  8
0
  0
POLYLINE
  8
1
 66
1
 10
0.0000
 20
0.0000
 30
0.0000
 40
0.1270
 41
0.1270
 70
0
  0
VERTEX
  8
1
 10
33.1021
 20
39.5927
 30
0.0000
 42
1.0000
  0
VERTEX
  8
1
 10
33.1919
 20
39.5029
 30
0.0000
  0
SEQEND
  8
0
  0
POLYLINE
  8
1
 66
1
 10
0.0000
 20
0.0000
 30
0.0000
 40
0.1270
 41
0.1270
 70
0
  0
VERTEX
  8
1
 10
34.3349
 20
40.6459
 30
0.0000
 42
1.0000
  0
VERTEX
  8
1
 10
34.2451
 20
40.7357
 30
0.0000
  0
SEQEND
  8
0
  0
POLYLINE
  8
1
 66
1
 10
0.0000
 20
0.0000
 30
0.0000
 40
0.2540
 41
0.2540
 70
0
  0
VERTEX
  8
1
 10
35.4330
 20
40.6908
 30
0.0000
  0
VERTEX
  8
1
 10
34.2900
 20
40.6908
 30
0.0000
  0
SEQEND
  8
0
  0
POLYLINE
  8
1
 66
1
 10
0.0000
 20
0.0000
 30
0.0000
 40
0.1270
 41
0.1270
 70
0
  0
VERTEX
  8
1
 10
34.2900
 20
40.7543
 30
0.0000
 42
1.0000
  0
VERTEX
  8
1
 10
34.2900
 20
40.6273
 30
0.0000
  0
SEQEND
  8
0
  0
POLYLINE
  8
1
 66
1
 10
0.0000
 20
0.0000
 30
0.0000
 40
0.1270
 41
0.1270
 70
0
  0
VERTEX
  8
1
 10
35.4330
 20
40.6273
 30
0.0000
 42
1.0000
  0
VERTEX
  8
1
 10
35.4330
 20
40.7543
 30
0.0000
  0
SEQEND
  8
0
  0
POLYLINE
  8
1
 66
1
 10
0.0000
 20
0.0000
 30
0.0000
 40
0.2540
 41
0.2540
 70
0
  0
VERTEX
  8
1
 10
35.6616
 20
40.4622
 30
0.0000
  0
VERTEX
  8
1
 10
35.4330
 20
40.6908
 30
0.0000
  0
SEQEND
  8
0
  0
POLYLINE
  8
1
 66
1
 10
0.0000
 20
0.0000
 30
0.0000
 40
0.1270
 41
0.1270
 70
0
  0
VERTEX
  8
1
 10
35.4779
 20
40.7357
 30
0.0000
 42
1.0000
  0
VERTEX
  8
1
 10
35.3881
 20
40.6459
 30
0.0000
  0
SEQEND
  8
0
  0
POLYLINE
  8
1
 66
1
 10
0.0000
 20
0.0000
 30
0.0000
 40
0.1270
 41
0.1270
 70
0
  0
VERTEX
  8
1
 10
35.6167
 20
40.4173
 30
0.0000
 42
1.0000
  0
VERTEX
  8
1
 10
35.7065
 20
40.5071
 30
0.0000
  0
SEQEND
  8
0
  0
POLYLINE
  8
1
 66
1
 10
0.0000
 20
0.0000
 30
0.0000
 40
0.2540
 41
0.2540
 70
0
  0
VERTEX
  8
1
 10
36.3474
 20
40.4622
 30
0.0000
  0
VERTEX
  8
1
 10
35.6616
 20
40.4622
 30
0.0000
  0
SEQEND
  8
0
  0
POLYLINE
  8
1
 66
1
 10
0.0000
 20
0.0000
 30
0.0000
 40
0.1270
 41
0.1270
 70
0
  0
VERTEX
  8
1
 10
35.6616
 20
40.5257
 30
0.0000
 42
1.0000
  0
VERTEX
  8
1
 10
35.6616
 20
40.3987
 30
0.0000
  0
SEQEND
  8
0
  0
POLYLINE
  8
1
 66
1
 10
0.0000
 20
0.0000
 30
0.0000
 40
0.1270
 41
0.1270
 70
0
  0
VERTEX
  8
1
 10
36.3474
 20
40.3987
 30
0.0000
 42
1.0000
  0
VERTEX
  8
1
 10
36.3474
 20
40.5257
 30
0.0000
  0
SEQEND
  8
0
  0
POLYLINE
  8
1
 66
1
 10
0.0000
 20
0.0000
 30
0.0000
 40
0.2540
 41
0.2540
 70
0
  0
VERTEX
  8
1
 10
37.4904
 20
39.3192
 30
0.0000
  0
VERTEX
  8
1
 10
36.3474
 20
40.4622
 30
0.0000
  0
SEQEND
  8
0
  0
POLYLINE
  8
1
 66
1
 10
0.0000
 20
0.0000
 30
0.0000
 40
0.1270
 41
0.1270
 70
0
  0
VERTEX
  8
1
 10
36.3923
 20
40.5071
 30
0.0000
 42
1.0000
  0
VERTEX
  8
1
 10
36.3025
 20
40.4173
 30
0.0000
  0
SEQEND
  8
0
  0
POLYLINE
  8
1
 66
1
 10
0.0000
 20
0.0000
 30
0.0000
 40
0.1270
 41
0.1270
 70
0
  0
VERTEX
  8
1
 10
37.4455
 20
39.2743
 30
0.0000
 42
1.0000
  0
VERTEX
  8
1
 10
37.5353
 20
39.3641
 30
0.0000
  0
SEQEND
  8
0
  0
POLYLINE
  8
1
 66
1
 10
0.0000
 20
0.0000
 30
0.0000
 40
0.2540
 41
0.2540
 70
0
  0
VERTEX
  8
1
 10
37.4904
 20
23.5458
 30
0.0000
  0
VERTEX
  8
1
 10
37.4904
 20
39.3192
 30
0.0000
  0
SEQEND
  8
0
  0
POLYLINE
  8
1
 66
1
 10
0.0000
 20
0.0000
 30
0.0000
 40
0.1270
 41
0.1270
 70
0
  0
VERTEX
  8
1
 10
37.5539
 20
39.3192
 30
0.0000
 42
1.0000
  0
VERTEX
  8
1
 10
37.4269
 20
39.3192
 30
0.0000
  0
SEQEND
  8
0
  0
POLYLINE
  8
1
 66
1
 10
0.0000
 20
0.0000
 30
0.0000
 40
0.1270
 41
0.1270
 70
0
  0
VERTEX
  8
1
 10
37.4269
 20
23.5458
 30
0.0000
 42
1.0000
  0
VERTEX
  8
1
 10
37.5539
 20
23.5458
 30
0.0000
  0
SEQEND
  8
0
  0
POLYLINE
  8
1
 66
1
 10
0.0000
 20
0.0000
 30
0.0000
 40
0.2540
 41
0.2540
 70
0
  0
VERTEX
  8
1
 10
21.2598
 20
7.3152
 30
0.0000
  0
VERTEX
  8
1
 10
37.4904
 20
23.5458
 30
0.0000
  0
SEQEND
  8
0
  0
POLYLINE
  8
1
 66
1
 10
0.0000
 20
0.0000
 30
0.0000
 40
0.1270
 41
0.1270
 70
0
  0
VERTEX
  8
1
 10
37.5353
 20
23.5009
 30
0.0000
 42
1.0000
  0
VERTEX
  8
1
 10
37.4455
 20
23.5907
 30
0.0000
  0
SEQEND
  8
0
  0
POLYLINE
  8
1
 66
1
 10
0.0000
 20
0.0000
 30
0.0000
 40
0.1270
 41
0.1270
 70
0
  0
VERTEX
  8
1
 10
21.2149
 20
7.3601
 30
0.0000
 42
1.0000
  0
VERTEX
  8
1
 10
21.3047
 20
7.2703
 30
0.0000
  0
SEQEND
  8
0
  0
POLYLINE
  8
1
 66
1
 10
0.0000
 20
0.0000
 30
0.0000
 40
0.2540
 41
0.2540
 70
0
  0
VERTEX
  8
1
 10
17.6022
 20
7.3152
 30
0.0000
  0
VERTEX
  8
1
 10
21.2598
 20
7.3152
 30
0.0000
  0
SEQEND
  8
0
  0
POLYLINE
  8
1
 66
1
 10
0.0000
 20
0.0000
 30
0.0000
 40
0.1270
 41
0.1270
 70
0
  0
VERTEX
  8
1
 10
21.2598
 20
7.2517
 30
0.0000
 42
1.0000
  0
VERTEX
  8
1
 10
21.2598
 20
7.3787
 30
0.0000
  0
SEQEND
  8
0
  0
POLYLINE
  8
1
 66
1
 10
0.0000
 20
0.0000
 30
0.0000
 40
0.1270
 41
0.1270
 70
0
  0
VERTEX
  8
1
 10
17.6022
 20
7.3787
 30
0.0000
 42
1.0000
  0
VERTEX
  8
1
 10
17.6022
 20
7.2517
 30
0.0000
  0
SEQEND
  8
0
  0
POLYLINE
  8
1
 66
1
 10
0.0000
 20
0.0000
 30
0.0000
 40
0.2540
 41
0.2540
 70
0
  0
VERTEX
  8
1
 10
16.0020
 20
5.7150
 30
0.0000
  0
VERTEX
  8
1
 10
17.6022
 20
7.3152
 30
0.0000
  0
SEQEND
  8
0
  0
POLYLINE
  8
1
 66
1
 10
0.0000
 20
0.0000
 30
0.0000
 40
0.1270
 41
0.1270
 70
0
  0
VERTEX
  8
1
 10
17.6471
 20
7.2703
 30
0.0000
 42
1.0000
  0
VERTEX
  8
1
 10
17.5573
 20
7.3601
 30
0.0000
  0
SEQEND
  8
0
  0
POLYLINE
  8
1
 66
1
 10
0.0000
 20
0.0000
 30
0.0000
 40
0.1270
 41
0.1270
 70
0
  0
VERTEX
  8
1
 10
15.9571
 20
5.7599
 30
0.0000
 42
1.0000
  0
VERTEX
  8
1
 10
16.0469
 20
5.6701
 30
0.0000
  0
SEQEND
  8
0
  0
POLYLINE
  8
1
 66
1
 10
0.0000
 20
0.0000
 30
0.0000
 40
0.2540
 41
0.2540
 70
0
  0
VERTEX
  8
1
 10
16.0020
 20
5.2578
 30
0.0000
  0
VERTEX
  8
1
 10
16.0020
 20
5.7150
 30
0.0000
  0
SEQEND
  8
0
  0
POLYLINE
  8
1
 66
1
 10
0.0000
 20
0.0000
 30
0.0000
 40
0.1270
 41
0.1270
 70
0
  0
VERTEX
  8
1
 10
16.0655
 20
5.7150
 30
0.0000
 42
1.0000
  0
VERTEX
  8
1
 10
15.9385
 20
5.7150
 30
0.0000
  0
SEQEND
  8
0
  0
POLYLINE
  8
1
 66
1
 10
0.0000
 20
0.0000
 30
0.0000
 40
0.1270
 41
0.1270
 70
0
  0
VERTEX
  8
1
 10
15.9385
 20
5.2578
 30
0.0000
 42
1.0000
  0
VERTEX
  8
1
 10
16.0655
 20
5.2578
 30
0.0000
  0
SEQEND
  8
0
  0
POLYLINE
  8
1
 66
1
 10
0.0000
 20
0.0000
 30
0.0000
 40
0.2540
 41
0.2540
 70
0
  0
VERTEX
  8
1
 10
33.1470
 20
39.5478
 30
0.0000
  0
VERTEX
  8
1
 10
33.0200
 20
39.3700
 30
0.0000
  0
SEQEND
  8
0
  0
POLYLINE
  8
1
 66
1
 10
0.0000
 20
0.0000
 30
0.0000
 40
0.1270
 41
0.1270
 70
0
  0
VERTEX
  8
1
 10
32.9683
 20
39.4069
 30
0.0000
 42
1.0000
  0
VERTEX
  8
1
 10
33.0717
 20
39.3331
 30
0.0000
  0
SEQEND
  8
0
  0
POLYLINE
  8
1
 66
1
 10
0.0000
 20
0.0000
 30
0.0000
 40
0.1270
 41
0.1270
 70
0
  0
VERTEX
  8
1
 10
33.1987
 20
39.5109
 30
0.0000
 42
1.0000
  0
VERTEX
  8
1
 10
33.0953
 20
39.5847
 30
0.0000
  0
SEQEND
  8
0
  0
POLYLINE
  8
1
 66
1
 10
0.0000
 20
0.0000
 30
0.0000
 40
0.2540
 41
0.2540
 70
0
  0
VERTEX
  8
1
 10
16.0020
 20
5.2578
 30
0.0000
  0
VERTEX
  8
1
 10
15.8750
 20
5.2000
 30
0.0000
  0
SEQEND
  8
0
  0
POLYLINE
  8
1
 66
1
 10
0.0000
 20
0.0000
 30
0.0000
 40
0.1270
 41
0.1270
 70
0
  0
VERTEX
  8
1
 10
15.8487
 20
5.2578
 30
0.0000
 42
1.0000
  0
VERTEX
  8
1
 10
15.9013
 20
5.1422
 30
0.0000
  0
SEQEND
  8
0
  0
POLYLINE
  8
1
 66
1
 10
0.0000
 20
0.0000
 30
0.0000
 40
0.1270
 41
0.1270
 70
0
  0
VERTEX
  8
1
 10
16.0283
 20
5.2000
 30
0.0000
 42
1.0000
  0
VERTEX
  8
1
 10
15.9757
 20
5.3156
 30
0.0000
  0
SEQEND
  8
0
  0
POLYLINE
  8
16
 66
1
 10
0.0000
 20
0.0000
 30
0.0000
 40
0.2540
 41
0.2540
 70
0
  0
VERTEX
  8
16
 10
30.6324
 20
40.0050
 30
0.0000
  0
VERTEX
  8
16
 10
30.6324
 20
39.5478
 30
0.0000
  0
SEQEND
  8
0
  0
POLYLINE
  8
16
 66
1
 10
0.0000
 20
0.0000
 30
0.0000
 40
0.1270
 41
0.1270
 70
0
  0
VERTEX
  8
16
 10
30.5689
 20
39.5478
 30
0.0000
 42
1.0000
  0
VERTEX
  8
16
 10
30.6959
 20
39.5478
 30
0.0000
  0
SEQEND
  8
0
  0
POLYLINE
  8
16
 66
1
 10
0.0000
 20
0.0000
 30
0.0000
 40
0.1270
 41
0.1270
 70
0
  0
VERTEX
  8
16
 10
30.6959
 20
40.0050
 30
0.0000
 42
1.0000
  0
VERTEX
  8
16
 10
30.5689
 20
40.0050
 30
0.0000
  0
SEQEND
  8
0
  0
POLYLINE
  8
16
 66
1
 10
0.0000
 20
0.0000
 30
0.0000
 40
0.2540
 41
0.2540
 70
0
  0
VERTEX
  8
16
 10
30.8610
 20
40.2336
 30
0.0000
  0
VERTEX
  8
16
 10
30.6324
 20
40.0050
 30
0.0000
  0
SEQEND
  8
0
  0
POLYLINE
  8
16
 66
1
 10
0.0000
 20
0.0000
 30
0.0000
 40
0.1270
 41
0.1270
 70
0
  0
VERTEX
  8
16
 10
30.5875
 20
40.0499
 30
0.0000
 42
1.0000
  0
VERTEX
  8
16
 10
30.6773
 20
39.9601
 30
0.0000
  0
SEQEND
  8
0
  0
POLYLINE
  8
16
 66
1
 10
0.0000
 20
0.0000
 30
0.0000
 40
0.1270
 41
0.1270
 70
0
  0
VERTEX
  8
16
 10
30.9059
 20
40.1887
 30
0.0000
 42
1.0000
  0
VERTEX
  8
16
 10
30.8161
 20
40.2785
 30
0.0000
  0
SEQEND
  8
0
  0
POLYLINE
  8
16
 66
1
 10
0.0000
 20
0.0000
 30
0.0000
 40
0.2540
 41
0.2540
 70
0
  0
VERTEX
  8
16
 10
30.8610
 20
40.4622
 30
0.0000
  0
VERTEX
  8
16
 10
30.8610
 20
40.2336
 30
0.0000
  0
SEQEND
  8
0
  0
POLYLINE
  8
16
 66
1
 10
0.0000
 20
0.0000
 30
0.0000
 40
0.1270
 41
0.1270
 70
0
  0
VERTEX
  8
16
 10
30.7975
 20
40.2336
 30
0.0000
 42
1.0000
  0
VERTEX
  8
16
 10
30.9245
 20
40.2336
 30
0.0000
  0
SEQEND
  8
0
  0
POLYLINE
  8
16
 66
1
 10
0.0000
 20
0.0000
 30
0.0000
 40
0.1270
 41
0.1270
 70
0
  0
VERTEX
  8
16
 10
30.9245
 20
40.4622
 30
0.0000
 42
1.0000
  0
VERTEX
  8
16
 10
30.7975
 20
40.4622
 30
0.0000
  0
SEQEND
  8
0
  0
POLYLINE
  8
16
 66
1
 10
0.0000
 20
0.0000
 30
0.0000
 40
0.2540
 41
0.2540
 70
0
  0
VERTEX
  8
16
 10
31.7754
 20
41.3766
 30
0.0000
  0
VERTEX
  8
16
 10
30.8610
 20
40.4622
 30
0.0000
  0
SEQEND
  8
0
  0
POLYLINE
  8
16
 66
1
 10
0.0000
 20
0.0000
 30
0.0000
 40
0.1270
 41
0.1270
 70
0
  0
VERTEX
  8
16
 10
30.8161
 20
40.5071
 30
0.0000
 42
1.0000
  0
VERTEX
  8
16
 10
30.9059
 20
40.4173
 30
0.0000
  0
SEQEND
  8
0
  0
POLYLINE
  8
16
 66
1
 10
0.0000
 20
0.0000
 30
0.0000
 40
0.1270
 41
0.1270
 70
0
  0
VERTEX
  8
16
 10
31.8203
 20
41.3317
 30
0.0000
 42
1.0000
  0
VERTEX
  8
16
 10
31.7305
 20
41.4215
 30
0.0000
  0
SEQEND
  8
0
  0
POLYLINE
  8
16
 66
1
 10
0.0000
 20
0.0000
 30
0.0000
 40
0.2540
 41
0.2540
 70
0
  0
VERTEX
  8
16
 10
36.3474
 20
41.3766
 30
0.0000
  0
VERTEX
  8
16
 10
31.7754
 20
41.3766
 30
0.0000
  0
SEQEND
  8
0
  0
POLYLINE
  8
16
 66
1
 10
0.0000
 20
0.0000
 30
0.0000
 40
0.1270
 41
0.1270
 70
0
  0
VERTEX
  8
16
 10
31.7754
 20
41.4401
 30
0.0000
 42
1.0000
  0
VERTEX
  8
16
 10
31.7754
 20
41.3131
 30
0.0000
  0
SEQEND
  8
0
  0
POLYLINE
  8
16
 66
1
 10
0.0000
 20
0.0000
 30
0.0000
 40
0.1270
 41
0.1270
 70
0
  0
VERTEX
  8
16
 10
36.3474
 20
41.3131
 30
0.0000
 42
1.0000
  0
VERTEX
  8
16
 10
36.3474
 20
41.4401
 30
0.0000
  0
SEQEND
  8
0
  0
POLYLINE
  8
16
 66
1
 10
0.0000
 20
0.0000
 30
0.0000
 40
0.2540
 41
0.2540
 70
0
  0
VERTEX
  8
16
 10
41.1480
 20
36.5760
 30
0.0000
  0
VERTEX
  8
16
 10
36.3474
 20
41.3766
 30
0.0000
  0
SEQEND
  8
0
  0
POLYLINE
  8
16
 66
1
 10
0.0000
 20
0.0000
 30
0.0000
 40
0.1270
 41
0.1270
 70
0
  0
VERTEX
  8
16
 10
36.3923
 20
41.4215
 30
0.0000
 42
1.0000
  0
VERTEX
  8
16
 10
36.3025
 20
41.3317
 30
0.0000
  0
SEQEND
  8
0
  0
POLYLINE
  8
16
 66
1
 10
0.0000
 20
0.0000
 30
0.0000
 40
0.1270
 41
0.1270
 70
0
  0
VERTEX
  8
16
 10
41.1031
 20
36.5311
 30
0.0000
 42
1.0000
  0
VERTEX
  8
16
 10
41.1929
 20
36.6209
 30
0.0000
  0
SEQEND
  8
0
  0
POLYLINE
  8
16
 66
1
 10
0.0000
 20
0.0000
 30
0.0000
 40
0.2540
 41
0.2540
 70
0
  0
VERTEX
  8
16
 10
41.1480
 20
5.2578
 30
0.0000
  0
VERTEX
  8
16
 10
41.1480
 20
36.5760
 30
0.0000
  0
SEQEND
  8
0
  0
POLYLINE
  8
16
 66
1
 10
0.0000
 20
0.0000
 30
0.0000
 40
0.1270
 41
0.1270
 70
0
  0
VERTEX
  8
16
 10
41.2115
 20
36.5760
 30
0.0000
 42
1.0000
  0
VERTEX
  8
16
 10
41.0845
 20
36.5760
 30
0.0000
  0
SEQEND
  8
0
  0
POLYLINE
  8
16
 66
1
 10
0.0000
 20
0.0000
 30
0.0000
 40
0.1270
 41
0.1270
 70
0
  0
VERTEX
  8
16
 10
41.0845
 20
5.2578
 30
0.0000
 42
1.0000
  0
VERTEX
  8
16
 10
41.2115
 20
5.2578
 30
0.0000
  0
SEQEND
  8
0
  0
POLYLINE
  8
16
 66
1
 10
0.0000
 20
0.0000
 30
0.0000
 40
0.2540
 41
0.2540
 70
0
  0
VERTEX
  8
16
 10
30.6324
 20
39.5478
 30
0.0000
  0
VERTEX
  8
16
 10
30.4800
 20
39.3700
 30
0.0000
  0
SEQEND
  8
0
  0
POLYLINE
  8
16
 66
1
 10
0.0000
 20
0.0000
 30
0.0000
 40
0.1270
 41
0.1270
 70
0
  0
VERTEX
  8
16
 10
30.4318
 20
39.4113
 30
0.0000
 42
1.0000
  0
VERTEX
  8
16
 10
30.5282
 20
39.3287
 30
0.0000
  0
SEQEND
  8
0
  0
POLYLINE
  8
16
 66
1
 10
0.0000
 20
0.0000
 30
0.0000
 40
0.1270
 41
0.1270
 70
0
  0
VERTEX
  8
16
 10
30.6806
 20
39.5065
 30
0.0000
 42
1.0000
  0
VERTEX
  8
16
 10
30.5842
 20
39.5891
 30
0.0000
  0
SEQEND
  8
0
  0
POLYLINE
  8
16
 66
1
 10
0.0000
 20
0.0000
 30
0.0000
 40
0.2540
 41
0.2540
 70
0
  0
VERTEX
  8
16
 10
41.1480
 20
5.2578
 30
0.0000
  0
VERTEX
  8
16
 10
41.2750
 20
5.2000
 30
0.0000
  0
SEQEND
  8
0
  0
POLYLINE
  8
16
 66
1
 10
0.0000
 20
0.0000
 30
0.0000
 40
0.1270
 41
0.1270
 70
0
  0
VERTEX
  8
16
 10
41.2487
 20
5.1422
 30
0.0000
 42
1.0000
  0
VERTEX
  8
16
 10
41.3013
 20
5.2578
 30
0.0000
  0
SEQEND
  8
0
  0
POLYLINE
  8
16
 66
1
 10
0.0000
 20
0.0000
 30
0.0000
 40
0.1270
 41
0.1270
 70
0
  0
VERTEX
  8
16
 10
41.1743
 20
5.3156
 30
0.0000
 42
1.0000
  0
VERTEX
  8
16
 10
41.1217
 20
5.2000
 30
0.0000
  0
SEQEND
  8
0
  0
POLYLINE
  8
16
 66
1
 10
0.0000
 20
0.0000
 30
0.0000
 40
0.2540
 41
0.2540
 70
0
  0
VERTEX
  8
16
 10
27.8892
 20
40.0050
 30
0.0000
  0
VERTEX
  8
16
 10
27.8892
 20
39.5478
 30
0.0000
  0
SEQEND
  8
0
  0
POLYLINE
  8
16
 66
1
 10
0.0000
 20
0.0000
 30
0.0000
 40
0.1270
 41
0.1270
 70
0
  0
VERTEX
  8
16
 10
27.8257
 20
39.5478
 30
0.0000
 42
1.0000
  0
VERTEX
  8
16
 10
27.9527
 20
39.5478
 30
0.0000
  0
SEQEND
  8
0
  0
POLYLINE
  8
16
 66
1
 10
0.0000
 20
0.0000
 30
0.0000
 40
0.1270
 41
0.1270
 70
0
  0
VERTEX
  8
16
 10
27.9527
 20
40.0050
 30
0.0000
 42
1.0000
  0
VERTEX
  8
16
 10
27.8257
 20
40.0050
 30
0.0000
  0
SEQEND
  8
0
  0
POLYLINE
  8
16
 66
1
 10
0.0000
 20
0.0000
 30
0.0000
 40
0.2540
 41
0.2540
 70
0
  0
VERTEX
  8
16
 10
29.7180
 20
41.8338
 30
0.0000
  0
VERTEX
  8
16
 10
27.8892
 20
40.0050
 30
0.0000
  0
SEQEND
  8
0
  0
POLYLINE
  8
16
 66
1
 10
0.0000
 20
0.0000
 30
0.0000
 40
0.1270
 41
0.1270
 70
0
  0
VERTEX
  8
16
 10
27.8443
 20
40.0499
 30
0.0000
 42
1.0000
  0
VERTEX
  8
16
 10
27.9341
 20
39.9601
 30
0.0000
  0
SEQEND
  8
0
  0
POLYLINE
  8
16
 66
1
 10
0.0000
 20
0.0000
 30
0.0000
 40
0.1270
 41
0.1270
 70
0
  0
VERTEX
  8
16
 10
29.7629
 20
41.7889
 30
0.0000
 42
1.0000
  0
VERTEX
  8
16
 10
29.6731
 20
41.8787
 30
0.0000
  0
SEQEND
  8
0
  0
POLYLINE
  8
16
 66
1
 10
0.0000
 20
0.0000
 30
0.0000
 40
0.2540
 41
0.2540
 70
0
  0
VERTEX
  8
16
 10
36.5760
 20
41.8338
 30
0.0000
  0
VERTEX
  8
16
 10
29.7180
 20
41.8338
 30
0.0000
  0
SEQEND
  8
0
  0
POLYLINE
  8
16
 66
1
 10
0.0000
 20
0.0000
 30
0.0000
 40
0.1270
 41
0.1270
 70
0
  0
VERTEX
  8
16
 10
29.7180
 20
41.8973
 30
0.0000
 42
1.0000
  0
VERTEX
  8
16
 10
29.7180
 20
41.7703
 30
0.0000
  0
SEQEND
  8
0
  0
POLYLINE
  8
16
 66
1
 10
0.0000
 20
0.0000
 30
0.0000
 40
0.1270
 41
0.1270
 70
0
  0
VERTEX
  8
16
 10
36.5760
 20
41.7703
 30
0.0000
 42
1.0000
  0
VERTEX
  8
16
 10
36.5760
 20
41.8973
 30
0.0000
  0
SEQEND
  8
0
  0
POLYLINE
  8
16
 66
1
 10
0.0000
 20
0.0000
 30
0.0000
 40
0.2540
 41
0.2540
 70
0
  0
VERTEX
  8
16
 10
43.2054
 20
35.2044
 30
0.0000
  0
VERTEX
  8
16
 10
36.5760
 20
41.8338
 30
0.0000
  0
SEQEND
  8
0
  0
POLYLINE
  8
16
 66
1
 10
0.0000
 20
0.0000
 30
0.0000
 40
0.1270
 41
0.1270
 70
0
  0
VERTEX
  8
16
 10
36.6209
 20
41.8787
 30
0.0000
 42
1.0000
  0
VERTEX
  8
16
 10
36.5311
 20
41.7889
 30
0.0000
  0
SEQEND
  8
0
  0
POLYLINE
  8
16
 66
1
 10
0.0000
 20
0.0000
 30
0.0000
 40
0.1270
 41
0.1270
 70
0
  0
VERTEX
  8
16
 10
43.1605
 20
35.1595
 30
0.0000
 42
1.0000
  0
VERTEX
  8
16
 10
43.2503
 20
35.2493
 30
0.0000
  0
SEQEND
  8
0
  0
POLYLINE
  8
16
 66
1
 10
0.0000
 20
0.0000
 30
0.0000
 40
0.2540
 41
0.2540
 70
0
  0
VERTEX
  8
16
 10
43.2054
 20
27.8892
 30
0.0000
  0
VERTEX
  8
16
 10
43.2054
 20
35.2044
 30
0.0000
  0
SEQEND
  8
0
  0
POLYLINE
  8
16
 66
1
 10
0.0000
 20
0.0000
 30
0.0000
 40
0.1270
 41
0.1270
 70
0
  0
VERTEX
  8
16
 10
43.2689
 20
35.2044
 30
0.0000
 42
1.0000
  0
VERTEX
  8
16
 10
43.1419
 20
35.2044
 30
0.0000
  0
SEQEND
  8
0
  0
POLYLINE
  8
16
 66
1
 10
0.0000
 20
0.0000
 30
0.0000
 40
0.1270
 41
0.1270
 70
0
  0
VERTEX
  8
16
 10
43.1419
 20
27.8892
 30
0.0000
 42
1.0000
  0
VERTEX
  8
16
 10
43.2689
 20
27.8892
 30
0.0000
  0
SEQEND
  8
0
  0
POLYLINE
  8
16
 66
1
 10
0.0000
 20
0.0000
 30
0.0000
 40
0.2540
 41
0.2540
 70
0
  0
VERTEX
  8
16
 10
63.5508
 20
7.5438
 30
0.0000
  0
VERTEX
  8
16
 10
43.2054
 20
27.8892
 30
0.0000
  0
SEQEND
  8
0
  0
POLYLINE
  8
16
 66
1
 10
0.0000
 20
0.0000
 30
0.0000
 40
0.1270
 41
0.1270
 70
0
  0
VERTEX
  8
16
 10
43.2503
 20
27.9341
 30
0.0000
 42
1.0000
  0
VERTEX
  8
16
 10
43.1605
 20
27.8443
 30
0.0000
  0
SEQEND
  8
0
  0
POLYLINE
  8
16
 66
1
 10
0.0000
 20
0.0000
 30
0.0000
 40
0.1270
 41
0.1270
 70
0
  0
VERTEX
  8
16
 10
63.5059
 20
7.4989
 30
0.0000
 42
1.0000
  0
VERTEX
  8
16
 10
63.5957
 20
7.5887
 30
0.0000
  0
SEQEND
  8
0
  0
POLYLINE
  8
16
 66
1
 10
0.0000
 20
0.0000
 30
0.0000
 40
0.2540
 41
0.2540
 70
0
  0
VERTEX
  8
16
 10
65.1510
 20
7.5438
 30
0.0000
  0
VERTEX
  8
16
 10
63.5508
 20
7.5438
 30
0.0000
  0
SEQEND
  8
0
  0
POLYLINE
  8
16
 66
1
 10
0.0000
 20
0.0000
 30
0.0000
 40
0.1270
 41
0.1270
 70
0
  0
VERTEX
  8
16
 10
63.5508
 20
7.6073
 30
0.0000
 42
1.0000
  0
VERTEX
  8
16
 10
63.5508
 20
7.4803
 30
0.0000
  0
SEQEND
  8
0
  0
POLYLINE
  8
16
 66
1
 10
0.0000
 20
0.0000
 30
0.0000
 40
0.1270
 41
0.1270
 70
0
  0
VERTEX
  8
16
 10
65.1510
 20
7.4803
 30
0.0000
 42
1.0000
  0
VERTEX
  8
16
 10
65.1510
 20
7.6073
 30
0.0000
  0
SEQEND
  8
0
  0
POLYLINE
  8
16
 66
1
 10
0.0000
 20
0.0000
 30
0.0000
 40
0.2540
 41
0.2540
 70
0
  0
VERTEX
  8
16
 10
66.5226
 20
6.1722
 30
0.0000
  0
VERTEX
  8
16
 10
65.1510
 20
7.5438
 30
0.0000
  0
SEQEND
  8
0
  0
POLYLINE
  8
16
 66
1
 10
0.0000
 20
0.0000
 30
0.0000
 40
0.1270
 41
0.1270
 70
0
  0
VERTEX
  8
16
 10
65.1959
 20
7.5887
 30
0.0000
 42
1.0000
  0
VERTEX
  8
16
 10
65.1061
 20
7.4989
 30
0.0000
  0
SEQEND
  8
0
  0
POLYLINE
  8
16
 66
1
 10
0.0000
 20
0.0000
 30
0.0000
 40
0.1270
 41
0.1270
 70
0
  0
VERTEX
  8
16
 10
66.4777
 20
6.1273
 30
0.0000
 42
1.0000
  0
VERTEX
  8
16
 10
66.5675
 20
6.2171
 30
0.0000
  0
SEQEND
  8
0
  0
POLYLINE
  8
16
 66
1
 10
0.0000
 20
0.0000
 30
0.0000
 40
0.2540
 41
0.2540
 70
0
  0
VERTEX
  8
16
 10
66.5226
 20
5.2578
 30
0.0000
  0
VERTEX
  8
16
 10
66.5226
 20
6.1722
 30
0.0000
  0
SEQEND
  8
0
  0
POLYLINE
  8
16
 66
1
 10
0.0000
 20
0.0000
 30
0.0000
 40
0.1270
 41
0.1270
 70
0
  0
VERTEX
  8
16
 10
66.5861
 20
6.1722
 30
0.0000
 42
1.0000
  0
VERTEX
  8
16
 10
66.4591
 20
6.1722
 30
0.0000
  0
SEQEND
  8
0
  0
POLYLINE
  8
16
 66
1
 10
0.0000
 20
0.0000
 30
0.0000
 40
0.1270
 41
0.1270
 70
0
  0
VERTEX
  8
16
 10
66.4591
 20
5.2578
 30
0.0000
 42
1.0000
  0
VERTEX
  8
16
 10
66.5861
 20
5.2578
 30
0.0000
  0
SEQEND
  8
0
  0
POLYLINE
  8
16
 66
1
 10
0.0000
 20
0.0000
 30
0.0000
 40
0.2540
 41
0.2540
 70
0
  0
VERTEX
  8
16
 10
27.8892
 20
39.5478
 30
0.0000
  0
VERTEX
  8
16
 10
27.9400
 20
39.3700
 30
0.0000
  0
SEQEND
  8
0
  0
POLYLINE
  8
16
 66
1
 10
0.0000
 20
0.0000
 30
0.0000
 40
0.1270
 41
0.1270
 70
0
  0
VERTEX
  8
16
 10
27.8789
 20
39.3526
 30
0.0000
 42
1.0000
  0
VERTEX
  8
16
 10
28.0011
 20
39.3874
 30
0.0000
  0
SEQEND
  8
0
  0
POLYLINE
  8
16
 66
1
 10
0.0000
 20
0.0000
 30
0.0000
 40
0.1270
 41
0.1270
 70
0
  0
VERTEX
  8
16
 10
27.9503
 20
39.5652
 30
0.0000
 42
1.0000
  0
VERTEX
  8
16
 10
27.8281
 20
39.5304
 30
0.0000
  0
SEQEND
  8
0
  0
POLYLINE
  8
16
 66
1
 10
0.0000
 20
0.0000
 30
0.0000
 40
0.2540
 41
0.2540
 70
0
  0
VERTEX
  8
16
 10
66.5226
 20
5.2578
 30
0.0000
  0
VERTEX
  8
16
 10
66.6750
 20
5.2000
 30
0.0000
  0
SEQEND
  8
0
  0
POLYLINE
  8
16
 66
1
 10
0.0000
 20
0.0000
 30
0.0000
 40
0.1270
 41
0.1270
 70
0
  0
VERTEX
  8
16
 10
66.6525
 20
5.1406
 30
0.0000
 42
1.0000
  0
VERTEX
  8
16
 10
66.6975
 20
5.2594
 30
0.0000
  0
SEQEND
  8
0
  0
POLYLINE
  8
16
 66
1
 10
0.0000
 20
0.0000
 30
0.0000
 40
0.1270
 41
0.1270
 70
0
  0
VERTEX
  8
16
 10
66.5451
 20
5.3172
 30
0.0000
 42
1.0000
  0
VERTEX
  8
16
 10
66.5001
 20
5.1984
 30
0.0000
  0
SEQEND
  8
0
  0
POLYLINE
  8
16
 66
1
 10
0.0000
 20
0.0000
 30
0.0000
 40
0.2540
 41
0.2540
 70
0
  0
VERTEX
  8
16
 10
25.3746
 20
40.0050
 30
0.0000
  0
VERTEX
  8
16
 10
25.3746
 20
39.5478
 30
0.0000
  0
SEQEND
  8
0
  0
POLYLINE
  8
16
 66
1
 10
0.0000
 20
0.0000
 30
0.0000
 40
0.1270
 41
0.1270
 70
0
  0
VERTEX
  8
16
 10
25.3111
 20
39.5478
 30
0.0000
 42
1.0000
  0
VERTEX
  8
16
 10
25.4381
 20
39.5478
 30
0.0000
  0
SEQEND
  8
0
  0
POLYLINE
  8
16
 66
1
 10
0.0000
 20
0.0000
 30
0.0000
 40
0.1270
 41
0.1270
 70
0
  0
VERTEX
  8
16
 10
25.4381
 20
40.0050
 30
0.0000
 42
1.0000
  0
VERTEX
  8
16
 10
25.3111
 20
40.0050
 30
0.0000
  0
SEQEND
  8
0
  0
POLYLINE
  8
16
 66
1
 10
0.0000
 20
0.0000
 30
0.0000
 40
0.2540
 41
0.2540
 70
0
  0
VERTEX
  8
16
 10
27.6606
 20
42.2910
 30
0.0000
  0
VERTEX
  8
16
 10
25.3746
 20
40.0050
 30
0.0000
  0
SEQEND
  8
0
  0
POLYLINE
  8
16
 66
1
 10
0.0000
 20
0.0000
 30
0.0000
 40
0.1270
 41
0.1270
 70
0
  0
VERTEX
  8
16
 10
25.3297
 20
40.0499
 30
0.0000
 42
1.0000
  0
VERTEX
  8
16
 10
25.4195
 20
39.9601
 30
0.0000
  0
SEQEND
  8
0
  0
POLYLINE
  8
16
 66
1
 10
0.0000
 20
0.0000
 30
0.0000
 40
0.1270
 41
0.1270
 70
0
  0
VERTEX
  8
16
 10
27.7055
 20
42.2461
 30
0.0000
 42
1.0000
  0
VERTEX
  8
16
 10
27.6157
 20
42.3359
 30
0.0000
  0
SEQEND
  8
0
  0
POLYLINE
  8
16
 66
1
 10
0.0000
 20
0.0000
 30
0.0000
 40
0.2540
 41
0.2540
 70
0
  0
VERTEX
  8
16
 10
54.1782
 20
42.2910
 30
0.0000
  0
VERTEX
  8
16
 10
27.6606
 20
42.2910
 30
0.0000
  0
SEQEND
  8
0
  0
POLYLINE
  8
16
 66
1
 10
0.0000
 20
0.0000
 30
0.0000
 40
0.1270
 41
0.1270
 70
0
  0
VERTEX
  8
16
 10
27.6606
 20
42.3545
 30
0.0000
 42
1.0000
  0
VERTEX
  8
16
 10
27.6606
 20
42.2275
 30
0.0000
  0
SEQEND
  8
0
  0
POLYLINE
  8
16
 66
1
 10
0.0000
 20
0.0000
 30
0.0000
 40
0.1270
 41
0.1270
 70
0
  0
VERTEX
  8
16
 10
54.1782
 20
42.2275
 30
0.0000
 42
1.0000
  0
VERTEX
  8
16
 10
54.1782
 20
42.3545
 30
0.0000
  0
SEQEND
  8
0
  0
POLYLINE
  8
16
 66
1
 10
0.0000
 20
0.0000
 30
0.0000
 40
0.2540
 41
0.2540
 70
0
  0
VERTEX
  8
16
 10
88.9254
 20
7.5438
 30
0.0000
  0
VERTEX
  8
16
 10
54.1782
 20
42.2910
 30
0.0000
  0
SEQEND
  8
0
  0
POLYLINE
  8
16
 66
1
 10
0.0000
 20
0.0000
 30
0.0000
 40
0.1270
 41
0.1270
 70
0
  0
VERTEX
  8
16
 10
54.2231
 20
42.3359
 30
0.0000
 42
1.0000
  0
VERTEX
  8
16
 10
54.1333
 20
42.2461
 30
0.0000
  0
SEQEND
  8
0
  0
POLYLINE
  8
16
 66
1
 10
0.0000
 20
0.0000
 30
0.0000
 40
0.1270
 41
0.1270
 70
0
  0
VERTEX
  8
16
 10
88.8805
 20
7.4989
 30
0.0000
 42
1.0000
  0
VERTEX
  8
16
 10
88.9703
 20
7.5887
 30
0.0000
  0
SEQEND
  8
0
  0
POLYLINE
  8
16
 66
1
 10
0.0000
 20
0.0000
 30
0.0000
 40
0.2540
 41
0.2540
 70
0
  0
VERTEX
  8
16
 10
90.2970
 20
7.5438
 30
0.0000
  0
VERTEX
  8
16
 10
88.9254
 20
7.5438
 30
0.0000
  0
SEQEND
  8
0
  0
POLYLINE
  8
16
 66
1
 10
0.0000
 20
0.0000
 30
0.0000
 40
0.1270
 41
0.1270
 70
0
  0
VERTEX
  8
16
 10
88.9254
 20
7.6073
 30
0.0000
 42
1.0000
  0
VERTEX
  8
16
 10
88.9254
 20
7.4803
 30
0.0000
  0
SEQEND
  8
0
  0
POLYLINE
  8
16
 66
1
 10
0.0000
 20
0.0000
 30
0.0000
 40
0.1270
 41
0.1270
 70
0
  0
VERTEX
  8
16
 10
90.2970
 20
7.4803
 30
0.0000
 42
1.0000
  0
VERTEX
  8
16
 10
90.2970
 20
7.6073
 30
0.0000
  0
SEQEND
  8
0
  0
POLYLINE
  8
16
 66
1
 10
0.0000
 20
0.0000
 30
0.0000
 40
0.2540
 41
0.2540
 70
0
  0
VERTEX
  8
16
 10
91.8972
 20
5.9436
 30
0.0000
  0
VERTEX
  8
16
 10
90.2970
 20
7.5438
 30
0.0000
  0
SEQEND
  8
0
  0
POLYLINE
  8
16
 66
1
 10
0.0000
 20
0.0000
 30
0.0000
 40
0.1270
 41
0.1270
 70
0
  0
VERTEX
  8
16
 10
90.3419
 20
7.5887
 30
0.0000
 42
1.0000
  0
VERTEX
  8
16
 10
90.2521
 20
7.4989
 30
0.0000
  0
SEQEND
  8
0
  0
POLYLINE
  8
16
 66
1
 10
0.0000
 20
0.0000
 30
0.0000
 40
0.1270
 41
0.1270
 70
0
  0
VERTEX
  8
16
 10
91.8523
 20
5.8987
 30
0.0000
 42
1.0000
  0
VERTEX
  8
16
 10
91.9421
 20
5.9885
 30
0.0000
  0
SEQEND
  8
0
  0
POLYLINE
  8
16
 66
1
 10
0.0000
 20
0.0000
 30
0.0000
 40
0.2540
 41
0.2540
 70
0
  0
VERTEX
  8
16
 10
91.8972
 20
5.2578
 30
0.0000
  0
VERTEX
  8
16
 10
91.8972
 20
5.9436
 30
0.0000
  0
SEQEND
  8
0
  0
POLYLINE
  8
16
 66
1
 10
0.0000
 20
0.0000
 30
0.0000
 40
0.1270
 41
0.1270
 70
0
  0
VERTEX
  8
16
 10
91.9607
 20
5.9436
 30
0.0000
 42
1.0000
  0
VERTEX
  8
16
 10
91.8337
 20
5.9436
 30
0.0000
  0
SEQEND
  8
0
  0
POLYLINE
  8
16
 66
1
 10
0.0000
 20
0.0000
 30
0.0000
 40
0.1270
 41
0.1270
 70
0
  0
VERTEX
  8
16
 10
91.8337
 20
5.2578
 30
0.0000
 42
1.0000
  0
VERTEX
  8
16
 10
91.9607
 20
5.2578
 30
0.0000
  0
SEQEND
  8
0
  0
POLYLINE
  8
16
 66
1
 10
0.0000
 20
0.0000
 30
0.0000
 40
0.2540
 41
0.2540
 70
0
  0
VERTEX
  8
16
 10
25.3746
 20
39.5478
 30
0.0000
  0
VERTEX
  8
16
 10
25.4000
 20
39.3700
 30
0.0000
  0
SEQEND
  8
0
  0
POLYLINE
  8
16
 66
1
 10
0.0000
 20
0.0000
 30
0.0000
 40
0.1270
 41
0.1270
 70
0
  0
VERTEX
  8
16
 10
25.3371
 20
39.3610
 30
0.0000
 42
1.0000
  0
VERTEX
  8
16
 10
25.4629
 20
39.3790
 30
0.0000
  0
SEQEND
  8
0
  0
POLYLINE
  8
16
 66
1
 10
0.0000
 20
0.0000
 30
0.0000
 40
0.1270
 41
0.1270
 70
0
  0
VERTEX
  8
16
 10
25.4375
 20
39.5568
 30
0.0000
 42
1.0000
  0
VERTEX
  8
16
 10
25.3117
 20
39.5388
 30
0.0000
  0
SEQEND
  8
0
  0
POLYLINE
  8
16
 66
1
 10
0.0000
 20
0.0000
 30
0.0000
 40
0.2540
 41
0.2540
 70
0
  0
VERTEX
  8
16
 10
91.8972
 20
5.2578
 30
0.0000
  0
VERTEX
  8
16
 10
92.0750
 20
5.2000
 30
0.0000
  0
SEQEND
  8
0
  0
POLYLINE
  8
16
 66
1
 10
0.0000
 20
0.0000
 30
0.0000
 40
0.1270
 41
0.1270
 70
0
  0
VERTEX
  8
16
 10
92.0554
 20
5.1396
 30
0.0000
 42
1.0000
  0
VERTEX
  8
16
 10
92.0946
 20
5.2604
 30
0.0000
  0
SEQEND
  8
0
  0
POLYLINE
  8
16
 66
1
 10
0.0000
 20
0.0000
 30
0.0000
 40
0.1270
 41
0.1270
 70
0
  0
VERTEX
  8
16
 10
91.9168
 20
5.3182
 30
0.0000
 42
1.0000
  0
VERTEX
  8
16
 10
91.8776
 20
5.1974
 30
0.0000
  0
SEQEND
  8
0
  0
POLYLINE
  8
1
 66
1
 10
0.0000
 20
0.0000
 30
0.0000
 40
0.2540
 41
0.2540
 70
0
  0
VERTEX
  8
1
 10
22.8600
 20
40.4622
 30
0.0000
  0
VERTEX
  8
1
 10
22.8600
 20
39.3700
 30
0.0000
  0
SEQEND
  8
0
  0
POLYLINE
  8
1
 66
1
 10
0.0000
 20
0.0000
 30
0.0000
 40
0.1270
 41
0.1270
 70
0
  0
VERTEX
  8
1
 10
22.7965
 20
39.3700
 30
0.0000
 42
1.0000
  0
VERTEX
  8
1
 10
22.9235
 20
39.3700
 30
0.0000
  0
SEQEND
  8
0
  0
POLYLINE
  8
1
 66
1
 10
0.0000
 20
0.0000
 30
0.0000
 40
0.1270
 41
0.1270
 70
0
  0
VERTEX
  8
1
 10
22.9235
 20
40.4622
 30
0.0000
 42
1.0000
  0
VERTEX
  8
1
 10
22.7965
 20
40.4622
 30
0.0000
  0
SEQEND
  8
0
  0
POLYLINE
  8
1
 66
1
 10
0.0000
 20
0.0000
 30
0.0000
 40
0.2540
 41
0.2540
 70
0
  0
VERTEX
  8
1
 10
23.5458
 20
41.1480
 30
0.0000
  0
VERTEX
  8
1
 10
22.8600
 20
40.4622
 30
0.0000
  0
SEQEND
  8
0
  0
POLYLINE
  8
1
 66
1
 10
0.0000
 20
0.0000
 30
0.0000
 40
0.1270
 41
0.1270
 70
0
  0
VERTEX
  8
1
 10
22.8151
 20
40.5071
 30
0.0000
 42
1.0000
  0
VERTEX
  8
1
 10
22.9049
 20
40.4173
 30
0.0000
  0
SEQEND
  8
0
  0
POLYLINE
  8
1
 66
1
 10
0.0000
 20
0.0000
 30
0.0000
 40
0.1270
 41
0.1270
 70
0
  0
VERTEX
  8
1
 10
23.5907
 20
41.1031
 30
0.0000
 42
1.0000
  0
VERTEX
  8
1
 10
23.5009
 20
41.1929
 30
0.0000
  0
SEQEND
  8
0
  0
POLYLINE
  8
1
 66
1
 10
0.0000
 20
0.0000
 30
0.0000
 40
0.2540
 41
0.2540
 70
0
  0
VERTEX
  8
1
 10
36.3474
 20
41.1480
 30
0.0000
  0
VERTEX
  8
1
 10
23.5458
 20
41.1480
 30
0.0000
  0
SEQEND
  8
0
  0
POLYLINE
  8
1
 66
1
 10
0.0000
 20
0.0000
 30
0.0000
 40
0.1270
 41
0.1270
 70
0
  0
VERTEX
  8
1
 10
23.5458
 20
41.2115
 30
0.0000
 42
1.0000
  0
VERTEX
  8
1
 10
23.5458
 20
41.0845
 30
0.0000
  0
SEQEND
  8
0
  0
POLYLINE
  8
1
 66
1
 10
0.0000
 20
0.0000
 30
0.0000
 40
0.1270
 41
0.1270
 70
0
  0
VERTEX
  8
1
 10
36.3474
 20
41.0845
 30
0.0000
 42
1.0000
  0
VERTEX
  8
1
 10
36.3474
 20
41.2115
 30
0.0000
  0
SEQEND
  8
0
  0
POLYLINE
  8
1
 66
1
 10
0.0000
 20
0.0000
 30
0.0000
 40
0.2540
 41
0.2540
 70
0
  0
VERTEX
  8
1
 10
48.0060
 20
29.4894
 30
0.0000
  0
VERTEX
  8
1
 10
36.3474
 20
41.1480
 30
0.0000
  0
SEQEND
  8
0
  0
POLYLINE
  8
1
 66
1
 10
0.0000
 20
0.0000
 30
0.0000
 40
0.1270
 41
0.1270
 70
0
  0
VERTEX
  8
1
 10
36.3923
 20
41.1929
 30
0.0000
 42
1.0000
  0
VERTEX
  8
1
 10
36.3025
 20
41.1031
 30
0.0000
  0
SEQEND
  8
0
  0
POLYLINE
  8
1
 66
1
 10
0.0000
 20
0.0000
 30
0.0000
 40
0.1270
 41
0.1270
 70
0
  0
VERTEX
  8
1
 10
47.9611
 20
29.4445
 30
0.0000
 42
1.0000
  0
VERTEX
  8
1
 10
48.0509
 20
29.5343
 30
0.0000
  0
SEQEND
  8
0
  0
POLYLINE
  8
1
 66
1
 10
0.0000
 20
0.0000
 30
0.0000
 40
0.2540
 41
0.2540
 70
0
  0
VERTEX
  8
1
 10
48.9204
 20
29.4894
 30
0.0000
  0
VERTEX
  8
1
 10
48.0060
 20
29.4894
 30
0.0000
  0
SEQEND
  8
0
  0
POLYLINE
  8
1
 66
1
 10
0.0000
 20
0.0000
 30
0.0000
 40
0.1270
 41
0.1270
 70
0
  0
VERTEX
  8
1
 10
48.0060
 20
29.5529
 30
0.0000
 42
1.0000
  0
VERTEX
  8
1
 10
48.0060
 20
29.4259
 30
0.0000
  0
SEQEND
  8
0
  0
POLYLINE
  8
1
 66
1
 10
0.0000
 20
0.0000
 30
0.0000
 40
0.1270
 41
0.1270
 70
0
  0
VERTEX
  8
1
 10
48.9204
 20
29.4259
 30
0.0000
 42
1.0000
  0
VERTEX
  8
1
 10
48.9204
 20
29.5529
 30
0.0000
  0
SEQEND
  8
0
  0
POLYLINE
  8
1
 66
1
 10
0.0000
 20
0.0000
 30
0.0000
 40
0.2540
 41
0.2540
 70
0
  0
VERTEX
  8
1
 10
50.9778
 20
27.4320
 30
0.0000
  0
VERTEX
  8
1
 10
48.9204
 20
29.4894
 30
0.0000
  0
SEQEND
  8
0
  0
POLYLINE
  8
1
 66
1
 10
0.0000
 20
0.0000
 30
0.0000
 40
0.1270
 41
0.1270
 70
0
  0
VERTEX
  8
1
 10
48.9653
 20
29.5343
 30
0.0000
 42
1.0000
  0
VERTEX
  8
1
 10
48.8755
 20
29.4445
 30
0.0000
  0
SEQEND
  8
0
  0
POLYLINE
  8
1
 66
1
 10
0.0000
 20
0.0000
 30
0.0000
 40
0.1270
 41
0.1270
 70
0
  0
VERTEX
  8
1
 10
50.9329
 20
27.3871
 30
0.0000
 42
1.0000
  0
VERTEX
  8
1
 10
51.0227
 20
27.4769
 30
0.0000
  0
SEQEND
  8
0
  0
POLYLINE
  8
1
 66
1
 10
0.0000
 20
0.0000
 30
0.0000
 40
0.2540
 41
0.2540
 70
0
  0
VERTEX
  8
1
 10
50.9778
 20
27.4320
 30
0.0000
  0
VERTEX
  8
1
 10
50.8000
 20
27.4250
 30
0.0000
  0
SEQEND
  8
0
  0
POLYLINE
  8
1
 66
1
 10
0.0000
 20
0.0000
 30
0.0000
 40
0.1270
 41
0.1270
 70
0
  0
VERTEX
  8
1
 10
50.7975
 20
27.4885
 30
0.0000
 42
1.0000
  0
VERTEX
  8
1
 10
50.8025
 20
27.3615
 30
0.0000
  0
SEQEND
  8
0
  0
POLYLINE
  8
1
 66
1
 10
0.0000
 20
0.0000
 30
0.0000
 40
0.1270
 41
0.1270
 70
0
  0
VERTEX
  8
1
 10
50.9803
 20
27.3685
 30
0.0000
 42
1.0000
  0
VERTEX
  8
1
 10
50.9753
 20
27.4955
 30
0.0000
  0
SEQEND
  8
0
  0
POLYLINE
  8
16
 66
1
 10
0.0000
 20
0.0000
 30
0.0000
 40
0.2540
 41
0.2540
 70
0
  0
VERTEX
  8
16
 10
20.3454
 20
40.0050
 30
0.0000
  0
VERTEX
  8
16
 10
20.3454
 20
39.5478
 30
0.0000
  0
SEQEND
  8
0
  0
POLYLINE
  8
16
 66
1
 10
0.0000
 20
0.0000
 30
0.0000
 40
0.1270
 41
0.1270
 70
0
  0
VERTEX
  8
16
 10
20.2819
 20
39.5478
 30
0.0000
 42
1.0000
  0
VERTEX
  8
16
 10
20.4089
 20
39.5478
 30
0.0000
  0
SEQEND
  8
0
  0
POLYLINE
  8
16
 66
1
 10
0.0000
 20
0.0000
 30
0.0000
 40
0.1270
 41
0.1270
 70
0
  0
VERTEX
  8
16
 10
20.4089
 20
40.0050
 30
0.0000
 42
1.0000
  0
VERTEX
  8
16
 10
20.2819
 20
40.0050
 30
0.0000
  0
SEQEND
  8
0
  0
POLYLINE
  8
16
 66
1
 10
0.0000
 20
0.0000
 30
0.0000
 40
0.2540
 41
0.2540
 70
0
  0
VERTEX
  8
16
 10
23.0886
 20
42.7482
 30
0.0000
  0
VERTEX
  8
16
 10
20.3454
 20
40.0050
 30
0.0000
  0
SEQEND
  8
0
  0
POLYLINE
  8
16
 66
1
 10
0.0000
 20
0.0000
 30
0.0000
 40
0.1270
 41
0.1270
 70
0
  0
VERTEX
  8
16
 10
20.3005
 20
40.0499
 30
0.0000
 42
1.0000
  0
VERTEX
  8
16
 10
20.3903
 20
39.9601
 30
0.0000
  0
SEQEND
  8
0
  0
POLYLINE
  8
16
 66
1
 10
0.0000
 20
0.0000
 30
0.0000
 40
0.1270
 41
0.1270
 70
0
  0
VERTEX
  8
16
 10
23.1335
 20
42.7033
 30
0.0000
 42
1.0000
  0
VERTEX
  8
16
 10
23.0437
 20
42.7931
 30
0.0000
  0
SEQEND
  8
0
  0
POLYLINE
  8
16
 66
1
 10
0.0000
 20
0.0000
 30
0.0000
 40
0.2540
 41
0.2540
 70
0
  0
VERTEX
  8
16
 10
60.1218
 20
42.7482
 30
0.0000
  0
VERTEX
  8
16
 10
23.0886
 20
42.7482
 30
0.0000
  0
SEQEND
  8
0
  0
POLYLINE
  8
16
 66
1
 10
0.0000
 20
0.0000
 30
0.0000
 40
0.1270
 41
0.1270
 70
0
  0
VERTEX
  8
16
 10
23.0886
 20
42.8117
 30
0.0000
 42
1.0000
  0
VERTEX
  8
16
 10
23.0886
 20
42.6847
 30
0.0000
  0
SEQEND
  8
0
  0
POLYLINE
  8
16
 66
1
 10
0.0000
 20
0.0000
 30
0.0000
 40
0.1270
 41
0.1270
 70
0
  0
VERTEX
  8
16
 10
60.1218
 20
42.6847
 30
0.0000
 42
1.0000
  0
VERTEX
  8
16
 10
60.1218
 20
42.8117
 30
0.0000
  0
SEQEND
  8
0
  0
POLYLINE
  8
16
 66
1
 10
0.0000
 20
0.0000
 30
0.0000
 40
0.2540
 41
0.2540
 70
0
  0
VERTEX
  8
16
 10
73.1520
 20
29.7180
 30
0.0000
  0
VERTEX
  8
16
 10
60.1218
 20
42.7482
 30
0.0000
  0
SEQEND
  8
0
  0
POLYLINE
  8
16
 66
1
 10
0.0000
 20
0.0000
 30
0.0000
 40
0.1270
 41
0.1270
 70
0
  0
VERTEX
  8
16
 10
60.1667
 20
42.7931
 30
0.0000
 42
1.0000
  0
VERTEX
  8
16
 10
60.0769
 20
42.7033
 30
0.0000
  0
SEQEND
  8
0
  0
POLYLINE
  8
16
 66
1
 10
0.0000
 20
0.0000
 30
0.0000
 40
0.1270
 41
0.1270
 70
0
  0
VERTEX
  8
16
 10
73.1071
 20
29.6731
 30
0.0000
 42
1.0000
  0
VERTEX
  8
16
 10
73.1969
 20
29.7629
 30
0.0000
  0
SEQEND
  8
0
  0
POLYLINE
  8
16
 66
1
 10
0.0000
 20
0.0000
 30
0.0000
 40
0.2540
 41
0.2540
 70
0
  0
VERTEX
  8
16
 10
74.7522
 20
29.7180
 30
0.0000
  0
VERTEX
  8
16
 10
73.1520
 20
29.7180
 30
0.0000
  0
SEQEND
  8
0
  0
POLYLINE
  8
16
 66
1
 10
0.0000
 20
0.0000
 30
0.0000
 40
0.1270
 41
0.1270
 70
0
  0
VERTEX
  8
16
 10
73.1520
 20
29.7815
 30
0.0000
 42
1.0000
  0
VERTEX
  8
16
 10
73.1520
 20
29.6545
 30
0.0000
  0
SEQEND
  8
0
  0
POLYLINE
  8
16
 66
1
 10
0.0000
 20
0.0000
 30
0.0000
 40
0.1270
 41
0.1270
 70
0
  0
VERTEX
  8
16
 10
74.7522
 20
29.6545
 30
0.0000
 42
1.0000
  0
VERTEX
  8
16
 10
74.7522
 20
29.7815
 30
0.0000
  0
SEQEND
  8
0
  0
POLYLINE
  8
16
 66
1
 10
0.0000
 20
0.0000
 30
0.0000
 40
0.2540
 41
0.2540
 70
0
  0
VERTEX
  8
16
 10
76.1238
 20
28.3464
 30
0.0000
  0
VERTEX
  8
16
 10
74.7522
 20
29.7180
 30
0.0000
  0
SEQEND
  8
0
  0
POLYLINE
  8
16
 66
1
 10
0.0000
 20
0.0000
 30
0.0000
 40
0.1270
 41
0.1270
 70
0
  0
VERTEX
  8
16
 10
74.7971
 20
29.7629
 30
0.0000
 42
1.0000
  0
VERTEX
  8
16
 10
74.7073
 20
29.6731
 30
0.0000
  0
SEQEND
  8
0
  0
POLYLINE
  8
16
 66
1
 10
0.0000
 20
0.0000
 30
0.0000
 40
0.1270
 41
0.1270
 70
0
  0
VERTEX
  8
16
 10
76.0789
 20
28.3015
 30
0.0000
 42
1.0000
  0
VERTEX
  8
16
 10
76.1687
 20
28.3913
 30
0.0000
  0
SEQEND
  8
0
  0
POLYLINE
  8
16
 66
1
 10
0.0000
 20
0.0000
 30
0.0000
 40
0.2540
 41
0.2540
 70
0
  0
VERTEX
  8
16
 10
76.1238
 20
27.4320
 30
0.0000
  0
VERTEX
  8
16
 10
76.1238
 20
28.3464
 30
0.0000
  0
SEQEND
  8
0
  0
POLYLINE
  8
16
 66
1
 10
0.0000
 20
0.0000
 30
0.0000
 40
0.1270
 41
0.1270
 70
0
  0
VERTEX
  8
16
 10
76.1873
 20
28.3464
 30
0.0000
 42
1.0000
  0
VERTEX
  8
16
 10
76.0603
 20
28.3464
 30
0.0000
  0
SEQEND
  8
0
  0
POLYLINE
  8
16
 66
1
 10
0.0000
 20
0.0000
 30
0.0000
 40
0.1270
 41
0.1270
 70
0
  0
VERTEX
  8
16
 10
76.0603
 20
27.4320
 30
0.0000
 42
1.0000
  0
VERTEX
  8
16
 10
76.1873
 20
27.4320
 30
0.0000
  0
SEQEND
  8
0
  0
POLYLINE
  8
16
 66
1
 10
0.0000
 20
0.0000
 30
0.0000
 40
0.2540
 41
0.2540
 70
0
  0
VERTEX
  8
16
 10
20.3454
 20
39.5478
 30
0.0000
  0
VERTEX
  8
16
 10
20.3200
 20
39.3700
 30
0.0000
  0
SEQEND
  8
0
  0
POLYLINE
  8
16
 66
1
 10
0.0000
 20
0.0000
 30
0.0000
 40
0.1270
 41
0.1270
 70
0
  0
VERTEX
  8
16
 10
20.2571
 20
39.3790
 30
0.0000
 42
1.0000
  0
VERTEX
  8
16
 10
20.3829
 20
39.3610
 30
0.0000
  0
SEQEND
  8
0
  0
POLYLINE
  8
16
 66
1
 10
0.0000
 20
0.0000
 30
0.0000
 40
0.1270
 41
0.1270
 70
0
  0
VERTEX
  8
16
 10
20.4083
 20
39.5388
 30
0.0000
 42
1.0000
  0
VERTEX
  8
16
 10
20.2825
 20
39.5568
 30
0.0000
  0
SEQEND
  8
0
  0
POLYLINE
  8
16
 66
1
 10
0.0000
 20
0.0000
 30
0.0000
 40
0.2540
 41
0.2540
 70
0
  0
VERTEX
  8
16
 10
76.1238
 20
27.4320
 30
0.0000
  0
VERTEX
  8
16
 10
76.2000
 20
27.4250
 30
0.0000
  0
SEQEND
  8
0
  0
POLYLINE
  8
16
 66
1
 10
0.0000
 20
0.0000
 30
0.0000
 40
0.1270
 41
0.1270
 70
0
  0
VERTEX
  8
16
 10
76.1942
 20
27.3618
 30
0.0000
 42
1.0000
  0
VERTEX
  8
16
 10
76.2058
 20
27.4882
 30
0.0000
  0
SEQEND
  8
0
  0
POLYLINE
  8
16
 66
1
 10
0.0000
 20
0.0000
 30
0.0000
 40
0.1270
 41
0.1270
 70
0
  0
VERTEX
  8
16
 10
76.1296
 20
27.4952
 30
0.0000
 42
1.0000
  0
VERTEX
  8
16
 10
76.1180
 20
27.3688
 30
0.0000
  0
SEQEND
  8
0
  0
POLYLINE
  8
1
 66
1
 10
0.0000
 20
0.0000
 30
0.0000
 40
0.2540
 41
0.2540
 70
0
  0
VERTEX
  8
1
 10
18.0594
 20
39.5478
 30
0.0000
  0
VERTEX
  8
1
 10
17.8308
 20
39.5478
 30
0.0000
  0
SEQEND
  8
0
  0
POLYLINE
  8
1
 66
1
 10
0.0000
 20
0.0000
 30
0.0000
 40
0.1270
 41
0.1270
 70
0
  0
VERTEX
  8
1
 10
17.8308
 20
39.6113
 30
0.0000
 42
1.0000
  0
VERTEX
  8
1
 10
17.8308
 20
39.4843
 30
0.0000
  0
SEQEND
  8
0
  0
POLYLINE
  8
1
 66
1
 10
0.0000
 20
0.0000
 30
0.0000
 40
0.1270
 41
0.1270
 70
0
  0
VERTEX
  8
1
 10
18.0594
 20
39.4843
 30
0.0000
 42
1.0000
  0
VERTEX
  8
1
 10
18.0594
 20
39.6113
 30
0.0000
  0
SEQEND
  8
0
  0
POLYLINE
  8
1
 66
1
 10
0.0000
 20
0.0000
 30
0.0000
 40
0.2540
 41
0.2540
 70
0
  0
VERTEX
  8
1
 10
20.1168
 20
41.6052
 30
0.0000
  0
VERTEX
  8
1
 10
18.0594
 20
39.5478
 30
0.0000
  0
SEQEND
  8
0
  0
POLYLINE
  8
1
 66
1
 10
0.0000
 20
0.0000
 30
0.0000
 40
0.1270
 41
0.1270
 70
0
  0
VERTEX
  8
1
 10
18.0145
 20
39.5927
 30
0.0000
 42
1.0000
  0
VERTEX
  8
1
 10
18.1043
 20
39.5029
 30
0.0000
  0
SEQEND
  8
0
  0
POLYLINE
  8
1
 66
1
 10
0.0000
 20
0.0000
 30
0.0000
 40
0.1270
 41
0.1270
 70
0
  0
VERTEX
  8
1
 10
20.1617
 20
41.5603
 30
0.0000
 42
1.0000
  0
VERTEX
  8
1
 10
20.0719
 20
41.6501
 30
0.0000
  0
SEQEND
  8
0
  0
POLYLINE
  8
1
 66
1
 10
0.0000
 20
0.0000
 30
0.0000
 40
0.2540
 41
0.2540
 70
0
  0
VERTEX
  8
1
 10
86.8680
 20
41.6052
 30
0.0000
  0
VERTEX
  8
1
 10
20.1168
 20
41.6052
 30
0.0000
  0
SEQEND
  8
0
  0
POLYLINE
  8
1
 66
1
 10
0.0000
 20
0.0000
 30
0.0000
 40
0.1270
 41
0.1270
 70
0
  0
VERTEX
  8
1
 10
20.1168
 20
41.6687
 30
0.0000
 42
1.0000
  0
VERTEX
  8
1
 10
20.1168
 20
41.5417
 30
0.0000
  0
SEQEND
  8
0
  0
POLYLINE
  8
1
 66
1
 10
0.0000
 20
0.0000
 30
0.0000
 40
0.1270
 41
0.1270
 70
0
  0
VERTEX
  8
1
 10
86.8680
 20
41.5417
 30
0.0000
 42
1.0000
  0
VERTEX
  8
1
 10
86.8680
 20
41.6687
 30
0.0000
  0
SEQEND
  8
0
  0
POLYLINE
  8
1
 66
1
 10
0.0000
 20
0.0000
 30
0.0000
 40
0.2540
 41
0.2540
 70
0
  0
VERTEX
  8
1
 10
98.9838
 20
29.4894
 30
0.0000
  0
VERTEX
  8
1
 10
86.8680
 20
41.6052
 30
0.0000
  0
SEQEND
  8
0
  0
POLYLINE
  8
1
 66
1
 10
0.0000
 20
0.0000
 30
0.0000
 40
0.1270
 41
0.1270
 70
0
  0
VERTEX
  8
1
 10
86.9129
 20
41.6501
 30
0.0000
 42
1.0000
  0
VERTEX
  8
1
 10
86.8231
 20
41.5603
 30
0.0000
  0
SEQEND
  8
0
  0
POLYLINE
  8
1
 66
1
 10
0.0000
 20
0.0000
 30
0.0000
 40
0.1270
 41
0.1270
 70
0
  0
VERTEX
  8
1
 10
98.9389
 20
29.4445
 30
0.0000
 42
1.0000
  0
VERTEX
  8
1
 10
99.0287
 20
29.5343
 30
0.0000
  0
SEQEND
  8
0
  0
POLYLINE
  8
1
 66
1
 10
0.0000
 20
0.0000
 30
0.0000
 40
0.2540
 41
0.2540
 70
0
  0
VERTEX
  8
1
 10
99.8982
 20
29.4894
 30
0.0000
  0
VERTEX
  8
1
 10
98.9838
 20
29.4894
 30
0.0000
  0
SEQEND
  8
0
  0
POLYLINE
  8
1
 66
1
 10
0.0000
 20
0.0000
 30
0.0000
 40
0.1270
 41
0.1270
 70
0
  0
VERTEX
  8
1
 10
98.9838
 20
29.5529
 30
0.0000
 42
1.0000
  0
VERTEX
  8
1
 10
98.9838
 20
29.4259
 30
0.0000
  0
SEQEND
  8
0
  0
POLYLINE
  8
1
 66
1
 10
0.0000
 20
0.0000
 30
0.0000
 40
0.1270
 41
0.1270
 70
0
  0
VERTEX
  8
1
 10
99.8982
 20
29.4259
 30
0.0000
 42
1.0000
  0
VERTEX
  8
1
 10
99.8982
 20
29.5529
 30
0.0000
  0
SEQEND
  8
0
  0
POLYLINE
  8
1
 66
1
 10
0.0000
 20
0.0000
 30
0.0000
 40
0.2540
 41
0.2540
 70
0
  0
VERTEX
  8
1
 10
101.4984
 20
27.8892
 30
0.0000
  0
VERTEX
  8
1
 10
99.8982
 20
29.4894
 30
0.0000
  0
SEQEND
  8
0
  0
POLYLINE
  8
1
 66
1
 10
0.0000
 20
0.0000
 30
0.0000
 40
0.1270
 41
0.1270
 70
0
  0
VERTEX
  8
1
 10
99.9431
 20
29.5343
 30
0.0000
 42
1.0000
  0
VERTEX
  8
1
 10
99.8533
 20
29.4445
 30
0.0000
  0
SEQEND
  8
0
  0
POLYLINE
  8
1
 66
1
 10
0.0000
 20
0.0000
 30
0.0000
 40
0.1270
 41
0.1270
 70
0
  0
VERTEX
  8
1
 10
101.4535
 20
27.8443
 30
0.0000
 42
1.0000
  0
VERTEX
  8
1
 10
101.5433
 20
27.9341
 30
0.0000
  0
SEQEND
  8
0
  0
POLYLINE
  8
1
 66
1
 10
0.0000
 20
0.0000
 30
0.0000
 40
0.2540
 41
0.2540
 70
0
  0
VERTEX
  8
1
 10
101.4984
 20
27.4320
 30
0.0000
  0
VERTEX
  8
1
 10
101.4984
 20
27.8892
 30
0.0000
  0
SEQEND
  8
0
  0
POLYLINE
  8
1
 66
1
 10
0.0000
 20
0.0000
 30
0.0000
 40
0.1270
 41
0.1270
 70
0
  0
VERTEX
  8
1
 10
101.5619
 20
27.8892
 30
0.0000
 42
1.0000
  0
VERTEX
  8
1
 10
101.4349
 20
27.8892
 30
0.0000
  0
SEQEND
  8
0
  0
POLYLINE
  8
1
 66
1
 10
0.0000
 20
0.0000
 30
0.0000
 40
0.1270
 41
0.1270
 70
0
  0
VERTEX
  8
1
 10
101.4349
 20
27.4320
 30
0.0000
 42
1.0000
  0
VERTEX
  8
1
 10
101.5619
 20
27.4320
 30
0.0000
  0
SEQEND
  8
0
  0
POLYLINE
  8
1
 66
1
 10
0.0000
 20
0.0000
 30
0.0000
 40
0.2540
 41
0.2540
 70
0
  0
VERTEX
  8
1
 10
17.8308
 20
39.5478
 30
0.0000
  0
VERTEX
  8
1
 10
17.7800
 20
39.3700
 30
0.0000
  0
SEQEND
  8
0
  0
POLYLINE
  8
1
 66
1
 10
0.0000
 20
0.0000
 30
0.0000
 40
0.1270
 41
0.1270
 70
0
  0
VERTEX
  8
1
 10
17.7189
 20
39.3874
 30
0.0000
 42
1.0000
  0
VERTEX
  8
1
 10
17.8411
 20
39.3526
 30
0.0000
  0
SEQEND
  8
0
  0
POLYLINE
  8
1
 66
1
 10
0.0000
 20
0.0000
 30
0.0000
 40
0.1270
 41
0.1270
 70
0
  0
VERTEX
  8
1
 10
17.8919
 20
39.5304
 30
0.0000
 42
1.0000
  0
VERTEX
  8
1
 10
17.7697
 20
39.5652
 30
0.0000
  0
SEQEND
  8
0
  0
POLYLINE
  8
1
 66
1
 10
0.0000
 20
0.0000
 30
0.0000
 40
0.2540
 41
0.2540
 70
0
  0
VERTEX
  8
1
 10
101.4984
 20
27.4320
 30
0.0000
  0
VERTEX
  8
1
 10
101.6000
 20
27.4250
 30
0.0000
  0
SEQEND
  8
0
  0
POLYLINE
  8
1
 66
1
 10
0.0000
 20
0.0000
 30
0.0000
 40
0.1270
 41
0.1270
 70
0
  0
VERTEX
  8
1
 10
101.5956
 20
27.3617
 30
0.0000
 42
1.0000
  0
VERTEX
  8
1
 10
101.6044
 20
27.4883
 30
0.0000
  0
SEQEND
  8
0
  0
POLYLINE
  8
1
 66
1
 10
0.0000
 20
0.0000
 30
0.0000
 40
0.1270
 41
0.1270
 70
0
  0
VERTEX
  8
1
 10
101.5028
 20
27.4953
 30
0.0000
 42
1.0000
  0
VERTEX
  8
1
 10
101.4940
 20
27.3687
 30
0.0000
  0
SEQEND
  8
0
  0
POLYLINE
  8
16
 66
1
 10
0.0000
 20
0.0000
 30
0.0000
 40
0.6096
 41
0.6096
 70
0
  0
VERTEX
  8
16
 10
0.0000
 20
45.0850
 30
0.0000
  0
VERTEX
  8
16
 10
0.0000
 20
2.5400
 30
0.0000
  0
SEQEND
  8
0
  0
POLYLINE
  8
16
 66
1
 10
0.0000
 20
0.0000
 30
0.0000
 40
0.3048
 41
0.3048
 70
0
  0
VERTEX
  8
16
 10
-0.1524
 20
2.5400
 30
0.0000
 42
1.0000
  0
VERTEX
  8
16
 10
0.1524
 20
2.5400
 30
0.0000
  0
SEQEND
  8
0
  0
POLYLINE
  8
16
 66
1
 10
0.0000
 20
0.0000
 30
0.0000
 40
0.3048
 41
0.3048
 70
0
  0
VERTEX
  8
16
 10
0.1524
 20
45.0850
 30
0.0000
 42
1.0000
  0
VERTEX
  8
16
 10
-0.1524
 20
45.0850
 30
0.0000
  0
SEQEND
  8
0
  0
POLYLINE
  8
16
 66
1
 10
0.0000
 20
0.0000
 30
0.0000
 40
0.6096
 41
0.6096
 70
0
  0
VERTEX
  8
16
 10
0.0000
 20
2.5400
 30
0.0000
 42
0.4142
  0
VERTEX
  8
16
 10
2.5400
 20
0.0000
 30
0.0000
  0
SEQEND
  8
0
  0
POLYLINE
  8
16
 66
1
 10
0.0000
 20
0.0000
 30
0.0000
 40
0.3048
 41
0.3048
 70
0
  0
VERTEX
  8
16
 10
0.1524
 20
2.5400
 30
0.0000
 42
1.0000
  0
VERTEX
  8
16
 10
-0.1524
 20
2.5400
 30
0.0000
  0
SEQEND
  8
0
  0
POLYLINE
  8
16
 66
1
 10
0.0000
 20
0.0000
 30
0.0000
 40
0.3048
 41
0.3048
 70
0
  0
VERTEX
  8
16
 10
2.5400
 20
-0.1524
 30
0.0000
 42
1.0000
  0
VERTEX
  8
16
 10
2.5400
 20
0.1524
 30
0.0000
  0
SEQEND
  8
0
  0
POLYLINE
  8
16
 66
1
 10
0.0000
 20
0.0000
 30
0.0000
 40
0.6096
 41
0.6096
 70
0
  0
VERTEX
  8
16
 10
2.5400
 20
0.0000
 30
0.0000
  0
VERTEX
  8
16
 10
111.7600
 20
0.0000
 30
0.0000
  0
SEQEND
  8
0
  0
POLYLINE
  8
16
 66
1
 10
0.0000
 20
0.0000
 30
0.0000
 40
0.3048
 41
0.3048
 70
0
  0
VERTEX
  8
16
 10
111.7600
 20
-0.1524
 30
0.0000
 42
1.0000
  0
VERTEX
  8
16
 10
111.7600
 20
0.1524
 30
0.0000
  0
SEQEND
  8
0
  0
POLYLINE
  8
16
 66
1
 10
0.0000
 20
0.0000
 30
0.0000
 40
0.3048
 41
0.3048
 70
0
  0
VERTEX
  8
16
 10
2.5400
 20
0.1524
 30
0.0000
 42
1.0000
  0
VERTEX
  8
16
 10
2.5400
 20
-0.1524
 30
0.0000
  0
SEQEND
  8
0
  0
POLYLINE
  8
16
 66
1
 10
0.0000
 20
0.0000
 30
0.0000
 40
0.6096
 41
0.6096
 70
0
  0
VERTEX
  8
16
 10
111.7600
 20
0.0000
 30
0.0000
 42
0.4142
  0
VERTEX
  8
16
 10
114.3000
 20
2.5400
 30
0.0000
  0
SEQEND
  8
0
  0
POLYLINE
  8
16
 66
1
 10
0.0000
 20
0.0000
 30
0.0000
 40
0.3048
 41
0.3048
 70
0
  0
VERTEX
  8
16
 10
111.7600
 20
0.1524
 30
0.0000
 42
1.0000
  0
VERTEX
  8
16
 10
111.7600
 20
-0.1524
 30
0.0000
  0
SEQEND
  8
0
  0
POLYLINE
  8
16
 66
1
 10
0.0000
 20
0.0000
 30
0.0000
 40
0.3048
 41
0.3048
 70
0
  0
VERTEX
  8
16
 10
114.4524
 20
2.5400
 30
0.0000
 42
1.0000
  0
VERTEX
  8
16
 10
114.1476
 20
2.5400
 30
0.0000
  0
SEQEND
  8
0
  0
POLYLINE
  8
16
 66
1
 10
0.0000
 20
0.0000
 30
0.0000
 40
0.6096
 41
0.6096
 70
0
  0
VERTEX
  8
16
 10
114.3000
 20
2.5400
 30
0.0000
  0
VERTEX
  8
16
 10
114.3000
 20
45.0850
 30
0.0000
  0
SEQEND
  8
0
  0
POLYLINE
  8
16
 66
1
 10
0.0000
 20
0.0000
 30
0.0000
 40
0.3048
 41
0.3048
 70
0
  0
VERTEX
  8
16
 10
114.4524
 20
45.0850
 30
0.0000
 42
1.0000
  0
VERTEX
  8
16
 10
114.1476
 20
45.0850
 30
0.0000
  0
SEQEND
  8
0
  0
POLYLINE
  8
16
 66
1
 10
0.0000
 20
0.0000
 30
0.0000
 40
0.3048
 41
0.3048
 70
0
  0
VERTEX
  8
16
 10
114.1476
 20
2.5400
 30
0.0000
 42
1.0000
  0
VERTEX
  8
16
 10
114.4524
 20
2.5400
 30
0.0000
  0
SEQEND
  8
0
  0
POLYLINE
  8
16
 66
1
 10
0.0000
 20
0.0000
 30
0.0000
 40
0.6096
 41
0.6096
 70
0
  0
VERTEX
  8
16
 10
114.3000
 20
45.0850
 30
0.0000
 42
0.4142
  0
VERTEX
  8
16
 10
111.7600
 20
47.6250
 30
0.0000
  0
SEQEND
  8
0
  0
POLYLINE
  8
16
 66
1
 10
0.0000
 20
0.0000
 30
0.0000
 40
0.3048
 41
0.3048
 70
0
  0
VERTEX
  8
16
 10
114.1476
 20
45.0850
 30
0.0000
 42
1.0000
  0
VERTEX
  8
16
 10
114.4524
 20
45.0850
 30
0.0000
  0
SEQEND
  8
0
  0
POLYLINE
  8
16
 66
1
 10
0.0000
 20
0.0000
 30
0.0000
 40
0.3048
 41
0.3048
 70
0
  0
VERTEX
  8
16
 10
111.7600
 20
47.7774
 30
0.0000
 42
1.0000
  0
VERTEX
  8
16
 10
111.7600
 20
47.4726
 30
0.0000
  0
SEQEND
  8
0
  0
POLYLINE
  8
16
 66
1
 10
0.0000
 20
0.0000
 30
0.0000
 40
0.6096
 41
0.6096
 70
0
  0
VERTEX
  8
16
 10
111.7600
 20
47.6250
 30
0.0000
  0
VERTEX
  8
16
 10
2.5400
 20
47.6250
 30
0.0000
  0
SEQEND
  8
0
  0
POLYLINE
  8
16
 66
1
 10
0.0000
 20
0.0000
 30
0.0000
 40
0.3048
 41
0.3048
 70
0
  0
VERTEX
  8
16
 10
2.5400
 20
47.7774
 30
0.0000
 42
1.0000
  0
VERTEX
  8
16
 10
2.5400
 20
47.4726
 30
0.0000
  0
SEQEND
  8
0
  0
POLYLINE
  8
16
 66
1
 10
0.0000
 20
0.0000
 30
0.0000
 40
0.3048
 41
0.3048
 70
0
  0
VERTEX
  8
16
 10
111.7600
 20
47.4726
 30
0.0000
 42
1.0000
  0
VERTEX
  8
16
 10
111.7600
 20
47.7774
 30
0.0000
  0
SEQEND
  8
0
  0
POLYLINE
  8
16
 66
1
 10
0.0000
 20
0.0000
 30
0.0000
 40
0.6096
 41
0.6096
 70
0
  0
VERTEX
  8
16
 10
2.5400
 20
47.6250
 30
0.0000
 42
0.4142
  0
VERTEX
  8
16
 10
0.0000
 20
45.0850
 30
0.0000
  0
SEQEND
  8
0
  0
POLYLINE
  8
16
 66
1
 10
0.0000
 20
0.0000
 30
0.0000
 40
0.3048
 41
0.3048
 70
0
  0
VERTEX
  8
16
 10
2.5400
 20
47.4726
 30
0.0000
 42
1.0000
  0
VERTEX
  8
16
 10
2.5400
 20
47.7774
 30
0.0000
  0
SEQEND
  8
0
  0
POLYLINE
  8
16
 66
1
 10
0.0000
 20
0.0000
 30
0.0000
 40
0.3048
 41
0.3048
 70
0
  0
VERTEX
  8
16
 10
-0.1524
 20
45.0850
 30
0.0000
 42
1.0000
  0
VERTEX
  8
16
 10
0.1524
 20
45.0850
 30
0.0000
  0
SEQEND
  8
0
  0
ENDSEC
  0
EOF
